<?xml version="1.0" standalone="no"?>
<!DOCTYPE svg PUBLIC "-//W3C//DTD SVG 1.1//EN" "http://www.w3.org/Graphics/SVG/1.1/DTD/svg11.dtd" >
<svg xmlns="http://www.w3.org/2000/svg" xmlns:xlink="http://www.w3.org/1999/xlink" version="1.1">
<metadata>
Created by FontForge 20201107 at Sun Jul  8 17:17:12 2018
 By www-data
Copyright(c) Beijing Founder Electronics Co.,Ltd. 
</metadata>
<defs>
<font id="FZFANGJHS_XI--GB1-0" horiz-adv-x="1000" vert-adv-y="1000" >
  <font-face 
    font-family="FZFangJunHeiS Light"
    font-weight="300"
    font-stretch="normal"
    units-per-em="1000"
    panose-1="2 0 4 0 0 0 0 0 0 0"
    ascent="850"
    descent="-150"
    x-height="504"
    cap-height="695"
    bbox="-29 -219 1000 882"
    underline-thickness="50"
    underline-position="-125"
    unicode-range="U+0020-29F8C"
  />
<missing-glyph 
 />
    <glyph glyph-name=".notdef" 
 />
    <glyph glyph-name="space" unicode=" " horiz-adv-x="270" 
 />
    <glyph glyph-name="exclam" unicode="!" horiz-adv-x="245" 
d="M91 695h62l-13 -517h-38zM151 61v-76h-58v76h58z" />
    <glyph glyph-name="quotedbl" unicode="&#x22;" horiz-adv-x="269" 
d="M41 705h61l-12 -190h-36zM167 705h60l-12 -190h-36z" />
    <glyph glyph-name="numbersign" unicode="#" horiz-adv-x="487" 
d="M243 -15l42 240h-135l-43 -240h-38l43 240h-105l9 42h104l33 185h-97l10 42h95l40 221h38l-40 -221h133l38 221h38l-39 -221h112l-8 -42h-111l-32 -185h102l-9 -42h-101l-41 -240h-38zM191 452l-33 -185h134l32 185h-133z" />
    <glyph glyph-name="dollar" unicode="$" horiz-adv-x="507" 
d="M456 525l-49 -10q-20 126 -126 136v-278q195 -54 190 -201q-4 -174 -190 -186v-81h-38v81q-180 2 -213 168l49 11q23 -134 164 -138v306q-193 44 -189 189q12 160 189 173v80h38v-82q150 -14 175 -168zM281 322v-295q140 7 140 145q3 110 -140 150zM243 383v270
q-130 -11 -139 -131q-5 -99 139 -139z" />
    <glyph glyph-name="percent" unicode="%" horiz-adv-x="780" 
d="M238 -15h-43l349 730h43zM186 381q94 5 96 150q-2 145 -95 148q-96 -3 -98 -151q5 -138 97 -147zM187 715q127 -6 132 -188q-3 -178 -137 -182q-123 9 -129 182q3 183 134 188zM596 20q95 5 97 151q-2 145 -96 148q-95 -3 -97 -152q5 -137 96 -147zM597 354
q129 -6 133 -188q-3 -176 -137 -181q-124 10 -130 181q4 182 134 188z" />
    <glyph glyph-name="ampersand" unicode="&#x26;" horiz-adv-x="618" 
d="M490 315h48q-9 -123 -49 -200q62 -65 128 -130h-62q-57 56 -90 93q-76 -103 -232 -103q-187 10 -197 188q-2 135 158 218q-81 100 -78 174q5 144 152 150q141 -4 145 -150q2 -109 -150 -188q91 -109 192 -217q29 66 35 165zM232 17q139 1 202 94q-127 136 -211 235
q-138 -74 -137 -175q8 -146 146 -154zM164 555q-2 -60 71 -153q132 67 132 153q-1 108 -100 110q-97 -8 -103 -110z" />
    <glyph glyph-name="quotesingle" unicode="'" horiz-adv-x="150" 
d="M44 705h61l-12 -190h-36z" />
    <glyph glyph-name="parenleft" unicode="(" horiz-adv-x="294" 
d="M250 -25h-42q-147 177 -145 365q1 193 145 365h42q-142 -178 -137 -365q-6 -185 137 -365z" />
    <glyph glyph-name="parenright" unicode=")" horiz-adv-x="292" 
d="M52 705h42q144 -172 145 -365q2 -188 -145 -365h-42q143 180 137 365q5 187 -137 365z" />
    <glyph glyph-name="asterisk" unicode="*" horiz-adv-x="359" 
d="M313 608l18 -51l-131 -27l97 -121l-43 -28l-73 133l-73 -131l-43 26l95 121l-130 27l19 51l118 -56l-12 153h52l-14 -153z" />
    <glyph glyph-name="plus" unicode="+" horiz-adv-x="527" 
d="M476 361v-44h-191v-214h-41v214h-191v44h191v212h41v-212h191z" />
    <glyph glyph-name="comma" unicode="," horiz-adv-x="233" 
d="M156 74v-80q0 -125 -77 -185l-21 25q66 57 63 150h-43v90h78z" />
    <glyph glyph-name="hyphen" unicode="-" horiz-adv-x="495" 
d="M425 363v-44h-376v44h376z" />
    <glyph glyph-name="period" unicode="." horiz-adv-x="232" 
d="M155 72v-88h-78v88h78z" />
    <glyph glyph-name="slash" unicode="/" horiz-adv-x="246" 
d="M43 -25h-42l198 730h42z" />
    <glyph glyph-name="zero" unicode="0" horiz-adv-x="490" 
d="M244 17q160 -5 158 323q1 325 -158 323q-157 -1 -157 -323q-1 -326 157 -323zM244 705q205 -6 208 -365q0 -364 -208 -365q-208 -3 -207 365q4 357 207 365z" />
    <glyph glyph-name="one" unicode="1" horiz-adv-x="388" 
d="M256 -15h-48v618q-58 -57 -182 -88v42q178 43 194 148h36v-720z" />
    <glyph glyph-name="two" unicode="2" horiz-adv-x="482" 
d="M440 27v-42h-412v30q60 151 207 278q164 134 152 224q-5 141 -143 146q-109 -1 -155 -135l-48 13q52 164 208 164q180 -9 188 -188q12 -116 -166 -255q-133 -110 -188 -235h357z" />
    <glyph glyph-name="three" unicode="3" horiz-adv-x="486" 
d="M29 149l49 9q31 -145 158 -141q160 3 163 168q-6 146 -177 151h-48v42h48q146 6 152 146q-5 134 -134 139q-114 -2 -146 -128l-50 7q39 161 196 163q179 -6 184 -182q-3 -117 -112 -166q136 -46 137 -172q-5 -205 -214 -210q-172 -1 -206 174z" />
    <glyph glyph-name="four" unicode="4" horiz-adv-x="491" 
d="M59 206h258v413zM453 164h-88v-179h-48v179h-305v30l318 511h35v-499h88v-42z" />
    <glyph glyph-name="five" unicode="5" horiz-adv-x="488" 
d="M29 131l48 14q41 -129 160 -128q158 6 162 204q-7 183 -159 192q-96 1 -154 -92l-30 4l37 370h323v-42h-293l-27 -266q62 70 152 69q190 -14 201 -235q-7 -237 -213 -246q-159 1 -207 156z" />
    <glyph glyph-name="six" unicode="6" horiz-adv-x="497" 
d="M91 241q8 -212 164 -224q148 7 154 201q-8 178 -151 189q-150 -14 -167 -166zM447 566l-47 -14q-39 110 -133 111q-162 -11 -178 -316q73 101 170 102q188 -14 200 -231q-9 -232 -204 -243q-216 1 -216 341q5 378 228 389q135 -1 180 -139z" />
    <glyph glyph-name="seven" unicode="7" horiz-adv-x="488" 
d="M449 695v-30q-227 -392 -252 -680h-52q21 262 252 668h-358v42h410z" />
    <glyph glyph-name="eight" unicode="8" horiz-adv-x="498" 
d="M250 337q-155 -7 -163 -165q7 -150 163 -157q159 3 163 157q-7 158 -163 165zM250 665q-131 -7 -137 -144q7 -137 137 -144q133 3 136 144q-6 137 -136 144zM63 521q11 174 187 184q175 -11 186 -184q1 -107 -100 -164q128 -49 127 -185q-8 -189 -213 -197
q-206 7 -213 197q4 133 127 185q-99 52 -101 164z" />
    <glyph glyph-name="nine" unicode="9" horiz-adv-x="498" 
d="M406 438q-9 213 -166 225q-145 -10 -154 -195q5 -187 148 -195q158 10 172 165zM48 92l48 13q41 -90 142 -88q163 0 168 310q-59 -98 -177 -96q-184 12 -193 231q11 230 201 243q220 1 219 -341q3 -395 -219 -389q-145 0 -189 117z" />
    <glyph glyph-name="colon" unicode=":" horiz-adv-x="231" 
d="M154 475v-90h-78v90h78zM154 74v-90h-78v90h78z" />
    <glyph glyph-name="semicolon" unicode=";" horiz-adv-x="233" 
d="M156 474v-90h-78v90h78zM156 74v-80q0 -125 -77 -185l-21 25q66 57 63 150h-43v90h78z" />
    <glyph glyph-name="less" unicode="&#x3c;" horiz-adv-x="525" 
d="M479 548l-383 -206l383 -210v-56l-430 242v48l430 238v-56z" />
    <glyph glyph-name="equal" unicode="=" horiz-adv-x="513" 
d="M466 252v-42h-418v42h418zM466 470v-42h-418v42h418z" />
    <glyph glyph-name="greater" unicode="&#x3e;" horiz-adv-x="521" 
d="M49 547v56l430 -238v-48l-430 -242v56l383 210z" />
    <glyph glyph-name="question" unicode="?" horiz-adv-x="486" 
d="M202 58h58v-73h-58v73zM255 207v-33h-48v33q0 98 87 167q106 79 100 157q-6 126 -144 132q-118 0 -164 -139l-49 11q51 171 214 170q183 -9 193 -174q4 -108 -121 -195q-69 -50 -68 -129z" />
    <glyph glyph-name="at" unicode="@" horiz-adv-x="712" 
d="M611 106l18 -21q-106 -116 -268 -110q-318 13 -329 357q26 343 334 373q296 -16 313 -318q-11 -227 -170 -242q-74 0 -74 83q0 13 1 25q-38 -106 -127 -108q-119 11 -125 170q13 209 177 225q74 -3 97 -73l7 66h35l-30 -251q-18 -114 45 -107q123 17 132 209
q-13 275 -281 291q-277 -30 -302 -342q15 -309 303 -328q147 1 244 101zM216 309q4 -126 102 -134q93 13 123 155q4 19 9 58q-1 115 -86 122q-139 -12 -148 -201z" />
    <glyph glyph-name="A" unicode="A" horiz-adv-x="589" 
d="M52 -15h-52l267 710h51l271 -710h-52l-87 233h-313zM292 641l-140 -381h282z" />
    <glyph glyph-name="B" unicode="B" horiz-adv-x="570" 
d="M295 336h-182v-309h203q173 -3 170 153q-9 151 -191 156zM296 653h-183v-275h182q161 1 163 146q-4 127 -162 129zM326 -15h-261v710h244q189 -7 199 -171q0 -124 -125 -167q151 -39 153 -176q-6 -192 -210 -196z" />
    <glyph glyph-name="C" unicode="C" horiz-adv-x="628" 
d="M552 187l49 -11q-53 -203 -263 -201q-281 17 -294 358q15 349 287 372q190 1 251 -171l-47 -16q-55 144 -209 145q-218 -24 -232 -330q10 -300 244 -316q173 0 214 170z" />
    <glyph glyph-name="D" unicode="D" horiz-adv-x="623" 
d="M291 653h-178v-626h176q249 -1 248 313q-8 303 -246 313zM289 -15h-224v710h229q283 -12 293 -353q2 -360 -298 -357z" />
    <glyph glyph-name="E" unicode="E" horiz-adv-x="555" 
d="M113 27h412v-42h-460v710h450v-42h-402v-278h368v-42h-368v-306z" />
    <glyph glyph-name="F" unicode="F" horiz-adv-x="523" 
d="M491 653h-378v-278h308v-42h-308v-348h-48v710h426v-42z" />
    <glyph glyph-name="G" unicode="G" horiz-adv-x="675" 
d="M418 322h207v-224q-78 -120 -266 -123q-302 15 -313 363q17 345 308 367q201 1 269 -174l-47 -15q-59 148 -222 147q-243 -21 -258 -324q12 -303 260 -322q156 3 221 96v167h-159v42z" />
    <glyph glyph-name="H" unicode="H" horiz-adv-x="620" 
d="M506 695h48v-710h-48v349h-394v-349h-48v710h48v-319h394v319z" />
    <glyph glyph-name="I" unicode="I" horiz-adv-x="199" 
d="M123 -15h-48v710h48v-710z" />
    <glyph glyph-name="J" unicode="J" horiz-adv-x="406" 
d="M340 695v-536q7 -184 -150 -174h-60q-90 1 -125 69l44 22q26 -47 82 -49h58q109 -9 103 133v535h48z" />
    <glyph glyph-name="K" unicode="K" horiz-adv-x="585" 
d="M113 -15h-48v710h48v-421l383 421h62l-265 -288l290 -422h-58l-263 388l-149 -162v-226z" />
    <glyph glyph-name="L" unicode="L" horiz-adv-x="485" 
d="M460 27v-42h-395v710h48v-668h347z" />
    <glyph glyph-name="M" unicode="M" horiz-adv-x="733" 
d="M588 695h80v-710h-48v671l-232 -669h-44l-232 669v-671h-48v710h80l222 -644z" />
    <glyph glyph-name="N" unicode="N" horiz-adv-x="625" 
d="M480 -15l-368 672v-672h-48v710h80l368 -672v672h48v-710h-80z" />
    <glyph glyph-name="O" unicode="O" horiz-adv-x="688" 
d="M343 663q-236 -23 -252 -328q14 -297 252 -319q242 14 253 319q-16 305 -253 328zM343 -25q-288 18 -302 360q15 350 302 370q284 -23 303 -370q-11 -346 -303 -360z" />
    <glyph glyph-name="P" unicode="P" horiz-adv-x="583" 
d="M336 310h-222v-325h-48v710h270q203 -6 210 -193q-4 -188 -210 -192zM318 653h-204v-301h204q180 -1 178 151q-4 146 -178 150z" />
    <glyph glyph-name="Q" unicode="Q" horiz-adv-x="677" 
d="M361 -24v-180h-48v180q-269 34 -279 357q19 338 303 362q286 -23 304 -362q-9 -324 -280 -357zM361 212v-194q224 27 230 315q-12 303 -254 320q-238 -21 -253 -320q9 -279 229 -315v194h48z" />
    <glyph glyph-name="R" unicode="R" horiz-adv-x="608" 
d="M605 -15h-64l-259 325h-169v-325h-48v710h270q203 -6 210 -193q-4 -186 -207 -192zM317 653h-204v-301h204q180 -1 178 151q-4 146 -178 150z" />
    <glyph glyph-name="S" unicode="S" horiz-adv-x="560" 
d="M505 526l-48 -11q-27 151 -188 148q-161 -8 -173 -146q-8 -106 189 -139q242 -42 237 -205q-8 -192 -233 -198q-228 -6 -270 173l48 14q31 -152 218 -145q184 2 187 156q10 129 -200 160q-231 37 -226 184q16 176 220 188q207 -3 239 -179z" />
    <glyph glyph-name="T" unicode="T" horiz-adv-x="539" 
d="M520 653h-226v-668h-48v668h-226v42h500v-42z" />
    <glyph glyph-name="U" unicode="U" horiz-adv-x="628" 
d="M515 285v410h48v-411q3 -313 -253 -309q-247 -3 -245 309v411h48v-410q-3 -272 198 -268q209 -7 204 268z" />
    <glyph glyph-name="V" unicode="V" horiz-adv-x="591" 
d="M531 695h54l-265 -710h-50l-264 710h54l235 -665z" />
    <glyph glyph-name="W" unicode="W" horiz-adv-x="820" 
d="M762 695h52l-182 -710h-46l-177 638l-177 -638h-46l-182 710h52l153 -638l175 638h50l175 -638z" />
    <glyph glyph-name="X" unicode="X" horiz-adv-x="583" 
d="M324 352l255 -367h-60l-225 338l-229 -338h-59l259 367l-235 343h56l209 -315l204 315h56z" />
    <glyph glyph-name="Y" unicode="Y" horiz-adv-x="576" 
d="M574 695l-262 -402v-308h-48v309l-262 401h56l230 -364l230 364h56z" />
    <glyph glyph-name="Z" unicode="Z" horiz-adv-x="535" 
d="M504 695v-30l-423 -638h435v-42h-499v30l423 638h-386v42h450z" />
    <glyph glyph-name="bracketleft" unicode="[" horiz-adv-x="241" 
d="M210 17v-42h-171v730h169v-42h-121v-646h123z" />
    <glyph glyph-name="backslash" unicode="\" horiz-adv-x="247" 
d="M201 -25l-198 730h42l198 -730h-42z" />
    <glyph glyph-name="bracketright" unicode="]" horiz-adv-x="242" 
d="M29 17h123v646h-121v42h169v-730h-171v42z" />
    <glyph glyph-name="asciicircum" unicode="^" horiz-adv-x="340" 
d="M193 705l130 -190h-53l-98 154l-97 -154h-54l130 190h42z" />
    <glyph glyph-name="underscore" unicode="_" horiz-adv-x="521" 
d="M521 17v-42h-521v42h521z" />
    <glyph glyph-name="grave" unicode="`" horiz-adv-x="269" 
d="M41 705h67l105 -190h-34z" />
    <glyph glyph-name="a" unicode="a" horiz-adv-x="490" 
d="M382 211v84q-44 -38 -151 -52q-151 -18 -146 -124q1 -100 118 -101q170 8 179 193zM97 359l-49 10q37 147 201 146q180 -1 181 -173v-239q0 -70 25 -118h-48q-25 43 -25 96v8q-58 -111 -189 -114q-154 3 -158 144q4 136 168 160q131 16 179 56v8q2 132 -132 130
q-122 2 -153 -114z" />
    <glyph glyph-name="b" unicode="b" horiz-adv-x="487" 
d="M104 298v-95q8 -175 149 -186q149 1 149 225q-4 223 -151 231q-131 -17 -147 -175zM104 -15h-48v710h48v-279q67 98 156 99q184 -14 192 -272q-5 -259 -192 -268q-97 -1 -156 94v-84z" />
    <glyph glyph-name="c" unicode="c" horiz-adv-x="449" 
d="M424 375l-48 -12q-29 109 -135 110q-151 -11 -158 -228q4 -221 158 -228q122 -2 142 125l49 -9q-31 -161 -191 -158q-203 9 -208 269q10 255 208 271q147 -2 183 -140z" />
    <glyph glyph-name="d" unicode="d" horiz-adv-x="486" 
d="M376 216v82q-9 164 -146 175q-147 -6 -151 -231q2 -222 149 -225q143 6 148 199zM424 -15h-48v81q-49 -91 -149 -91q-194 7 -198 268q8 259 198 272q97 -1 149 -88v268h48v-710z" />
    <glyph glyph-name="e" unicode="e" horiz-adv-x="492" 
d="M454 239h-370q6 -212 167 -222q117 0 154 90l50 -8q-48 -125 -204 -124q-210 11 -217 266q8 262 211 274q202 -9 209 -249v-27zM85 281h322q-8 183 -161 192q-140 -7 -161 -192z" />
    <glyph glyph-name="f" unicode="f" horiz-adv-x="242" 
d="M133 588v-105h103v-42h-103v-456h-48v456h-82v42h82v105q-4 121 118 117h57v-42h-57q-74 4 -70 -75z" />
    <glyph glyph-name="g" unicode="g" horiz-adv-x="490" 
d="M386 229v78q-11 155 -147 166q-157 -4 -160 -220q3 -205 154 -210q151 3 153 186zM434 504v-467q7 -239 -215 -231q-112 2 -171 75l44 24q45 -57 127 -57q174 -9 167 190v50q-50 -87 -159 -87q-191 11 -198 253q10 246 198 261q109 -1 159 -93v82h48z" />
    <glyph glyph-name="h" unicode="h" horiz-adv-x="487" 
d="M428 319v-334h-48v326q1 163 -124 162q-146 -7 -151 -190v-298h-48v710h48v-273q63 94 157 93q167 1 166 -196z" />
    <glyph glyph-name="i" unicode="i" horiz-adv-x="160" 
d="M103 -15h-46v519h46v-519zM103 623h-46v72h46v-72z" />
    <glyph glyph-name="j" unicode="j" horiz-adv-x="235" 
d="M136 623h-47v72h47v-72zM137 510v-598q4 -113 -95 -108q-31 -1 -71 16l16 38q27 -12 53 -12q52 -5 49 66v598h48z" />
    <glyph glyph-name="k" unicode="k" horiz-adv-x="440" 
d="M105 -15h-48v710h48v-440l250 260h61l-190 -194l210 -336h-57l-184 304l-90 -93v-211z" />
    <glyph glyph-name="l" unicode="l" horiz-adv-x="167" 
d="M105 -15h-48v710h48v-710z" />
    <glyph glyph-name="m" unicode="m" horiz-adv-x="728" 
d="M674 308v-323h-48v322q2 170 -106 166q-112 -9 -131 -174v-314h-48v321q2 171 -108 167q-118 -6 -128 -174v-314h-48v519h48v-80q54 92 136 91q114 1 143 -109q56 110 144 109q149 5 146 -207z" />
    <glyph glyph-name="n" unicode="n" horiz-adv-x="490" 
d="M431 310v-325h-48v326q1 164 -125 162q-126 -10 -151 -165v-323h-48v518h48v-94q64 107 161 106q166 4 163 -205z" />
    <glyph glyph-name="o" unicode="o" horiz-adv-x="488" 
d="M243 477q-156 -12 -164 -231q8 -220 164 -234q160 6 164 234q-5 224 -164 231zM243 -25q-207 9 -214 271q11 255 214 269q206 -11 214 -269q-5 -264 -214 -271z" />
    <glyph glyph-name="p" unicode="p" horiz-adv-x="486" 
d="M104 293v-79q7 -187 150 -197q148 -1 148 224q-5 224 -148 232q-137 -13 -150 -180zM104 -194h-48v699h48v-92q63 101 152 102q190 -11 196 -273q-3 -263 -196 -267q-99 0 -152 98v-267z" />
    <glyph glyph-name="q" unicode="q" horiz-adv-x="486" 
d="M376 216v81q-7 169 -145 176q-146 -11 -152 -232q3 -218 152 -224q143 3 145 199zM424 -194h-48v265q-52 -97 -153 -96q-189 7 -194 267q10 258 196 273q101 1 151 -96v86h48v-699z" />
    <glyph glyph-name="r" unicode="r" horiz-adv-x="308" 
d="M306 490l-30 -45q-27 20 -60 20q-108 -9 -113 -195v-285h-48v519h48v-93q44 102 119 104q50 1 84 -25z" />
    <glyph glyph-name="s" unicode="s" horiz-adv-x="453" 
d="M388 406l-48 -11q-23 80 -123 78q-115 -3 -120 -94q-12 -79 142 -106q171 -34 168 -151q-2 -146 -184 -147q-164 -6 -195 120l50 9q26 -90 144 -87q132 2 135 105q6 81 -133 108q-186 34 -177 149q11 128 164 136q149 2 177 -109z" />
    <glyph glyph-name="t" unicode="t" horiz-adv-x="242" 
d="M215 29l18 -34q-28 -20 -67 -20q-88 -6 -85 110v356h-71v42h71v174h48v-174h94v-42h-94v-353q-3 -76 48 -71q18 0 38 12z" />
    <glyph glyph-name="u" unicode="u" horiz-adv-x="487" 
d="M379 504h48v-519h-48v92q-58 -101 -160 -102q-166 -3 -164 196v333h48v-325q-3 -167 125 -162q141 13 151 174v313z" />
    <glyph glyph-name="v" unicode="v" horiz-adv-x="439" 
d="M378 504h52l-185 -519h-50l-185 519h52l158 -474z" />
    <glyph glyph-name="w" unicode="w" horiz-adv-x="639" 
d="M581 504h52l-155 -519h-50l-110 475l-111 -475h-50l-154 519h52l127 -475l111 475h50l110 -475z" />
    <glyph glyph-name="x" unicode="x" horiz-adv-x="439" 
d="M361 504h52l-164 -256l183 -263h-56l-153 240l-159 -240h-56l188 263l-169 256h52l144 -232z" />
    <glyph glyph-name="y" unicode="y" horiz-adv-x="439" 
d="M380 504h52l-205 -549q-32 -85 -58 -117q-25 -31 -64 -30q-40 0 -76 21l23 33q27 -12 51 -12q45 -8 86 115l14 41l-190 498h52l158 -442z" />
    <glyph glyph-name="z" unicode="z" horiz-adv-x="438" 
d="M420 27v-42h-404v25l327 452h-306v42h371v-24l-327 -453h339z" />
    <glyph glyph-name="braceleft" unicode="{" horiz-adv-x="293" 
d="M167 249v-174q-2 -60 54 -58h50v-42h-50q-109 -7 -102 100v174q3 73 -71 70h-26v42h26q74 -3 71 70v174q-4 104 102 100h50v-42h-50q-56 2 -54 -58v-174q2 -65 -57 -91q59 -22 57 -91z" />
    <glyph glyph-name="bar" unicode="|" horiz-adv-x="207" 
d="M125 -25h-48v730h48v-730z" />
    <glyph glyph-name="braceright" unicode="}" horiz-adv-x="292" 
d="M125 431v174q2 60 -54 58h-50v42h50q106 4 102 -100v-174q-3 -73 71 -70h26v-42h-26q-74 3 -71 -70v-174q7 -107 -102 -100h-50v42h50q56 -2 54 58v174q-2 69 57 91q-59 26 -57 91z" />
    <glyph glyph-name="asciitilde" unicode="~" horiz-adv-x="513" 
d="M35 305v50q57 47 119 46q55 1 116 -29q69 -34 99 -33q64 1 110 54v-50q-45 -45 -109 -46q-47 -1 -115 35q-51 27 -103 27q-60 0 -117 -54z" />
    <glyph glyph-name="currency" unicode="&#xa4;" 
d="M702 638l48 -48l-55 -54q49 -58 50 -150q-1 -89 -50 -151l54 -56l-45 -45l-55 58q-60 -54 -149 -55q-89 1 -149 55l-55 -58l-45 45l54 56q-49 62 -50 151q1 92 50 150l-55 54l48 48l57 -56q59 50 145 51q86 -1 145 -51zM312 387q18 -176 188 -194q170 18 188 194
q-19 173 -188 191q-169 -18 -188 -191z" />
    <glyph glyph-name="section" unicode="&#xa7;" 
d="M679 561h-56q-5 104 -126 101q-116 -2 -119 -77q-7 -39 99 -83l146 -65q110 -47 108 -120q2 -81 -114 -131q3 -2 9 -7q57 -43 55 -82q-11 -111 -181 -123q-190 1 -195 147h57q2 -105 127 -107q142 4 134 85q-4 31 -79 70l-198 100q-80 41 -80 107q4 79 114 122
q-61 37 -62 86q14 118 179 121q177 -5 182 -144zM615 388l-192 87q-92 -30 -101 -97q1 -46 58 -75l186 -93q104 43 109 91q1 62 -60 87z" />
    <glyph glyph-name="dieresis" unicode="&#xa8;" 
d="M451 753v-82h-69v82h69zM616 753v-82h-69v82h69z" />
    <glyph glyph-name="degree" unicode="&#xb0;" 
d="M271 693q-87 -10 -98 -103q11 -93 98 -103q87 10 98 103q-11 93 -98 103zM417 590q-11 -135 -146 -146q-135 11 -146 146q11 135 146 146q135 -11 146 -146z" />
    <glyph glyph-name="plusminus" unicode="&#xb1;" 
d="M711 428v-44h-191v-214h-41v214h-191v44h191v212h41v-212h191zM711 104v-44h-423v44h423z" />
    <glyph glyph-name="bullet" unicode="&#x2022;" 
d="M540 305h-80v90h80v-90z" />
    <glyph glyph-name="bullet" unicode="&#xb7;" 
d="M540 305h-80v90h80v-90z" />
    <glyph glyph-name="multiply" unicode="&#xd7;" 
d="M739 552l-202 -202l202 -202l-38 -37l-202 201l-202 -201l-37 37l202 202l-202 202l37 37l202 -202l202 202z" />
    <glyph glyph-name="agrave" unicode="&#xe0;" horiz-adv-x="486" 
d="M207 771l107 -138h-55l-134 138h82zM392 217v82q-9 164 -146 175q-147 -6 -151 -231q2 -222 149 -225q143 6 148 199zM440 -14h-48v81q-49 -91 -149 -91q-194 7 -198 268q8 259 198 272q97 -1 149 -88v78h48v-520z" />
    <glyph glyph-name="aacute" unicode="&#xe1;" horiz-adv-x="486" 
d="M243 632h-55l107 138h82zM392 217v82q-9 164 -146 175q-147 -6 -151 -231q2 -222 149 -225q143 6 148 199zM440 -14h-48v81q-49 -91 -149 -91q-194 7 -198 268q8 259 198 272q97 -1 149 -88v78h48v-520z" />
    <glyph glyph-name="egrave" unicode="&#xe8;" horiz-adv-x="492" 
d="M455 240h-370q6 -212 167 -222q117 0 154 90l50 -8q-48 -125 -204 -124q-210 11 -217 266q8 262 211 274q202 -9 209 -249v-27zM86 282h322q-8 183 -161 192q-140 -7 -161 -192zM200 770l107 -138h-55l-134 138h82z" />
    <glyph glyph-name="eacute" unicode="&#xe9;" horiz-adv-x="492" 
d="M455 240h-370q6 -212 167 -222q117 0 154 90l50 -8q-48 -125 -204 -124q-210 11 -217 266q8 262 211 274q202 -9 209 -249v-27zM86 282h322q-8 183 -161 192q-140 -7 -161 -192zM246 632h-55l107 138h82z" />
    <glyph glyph-name="ecircumflex" unicode="&#xea;" horiz-adv-x="492" 
d="M455 240h-370q6 -212 167 -222q117 0 154 90l50 -8q-48 -125 -204 -124q-210 11 -217 266q8 262 211 274q202 -9 209 -249v-27zM86 282h322q-8 183 -161 192q-140 -7 -161 -192zM165 626h-51l96 144h80l96 -144h-55l-81 101z" />
    <glyph glyph-name="igrave" unicode="&#xec;" horiz-adv-x="225" 
d="M69 780l107 -138h-55l-132 138h80zM138 -15h-46v519h46v-519z" />
    <glyph glyph-name="iacute" unicode="&#xed;" horiz-adv-x="225" 
d="M116 642h-55l107 138h82zM139 -15h-46v519h46v-519z" />
    <glyph glyph-name="ograve" unicode="&#xf2;" horiz-adv-x="488" 
d="M198 770l107 -138h-55l-134 138h82zM244 478q-156 -12 -164 -231q8 -220 164 -234q160 6 164 234q-5 224 -164 231zM244 -24q-207 9 -214 271q11 255 214 269q206 -11 214 -269q-5 -264 -214 -271z" />
    <glyph glyph-name="oacute" unicode="&#xf3;" horiz-adv-x="488" 
d="M244 632h-55l107 138h82zM244 478q-156 -12 -164 -231q8 -220 164 -234q160 6 164 234q-5 224 -164 231zM244 -24q-207 9 -214 271q11 255 214 269q206 -11 214 -269q-5 -264 -214 -271z" />
    <glyph glyph-name="divide" unicode="&#xf7;" 
d="M783 377v-53h-566v53h566zM535 602v-88h-72v88h72zM535 186v-88h-72v88h72z" />
    <glyph glyph-name="ugrave" unicode="&#xf9;" horiz-adv-x="487" 
d="M197 770l107 -138h-55l-134 138h82zM381 505h48v-519h-48v92q-58 -101 -160 -102q-166 -3 -164 196v333h48v-325q-3 -167 125 -162q141 13 151 174v313z" />
    <glyph glyph-name="uacute" unicode="&#xfa;" horiz-adv-x="487" 
d="M243 632h-55l107 138h82zM381 505h48v-519h-48v92q-58 -101 -160 -102q-166 -3 -164 196v333h48v-325q-3 -167 125 -162q141 13 151 174v313z" />
    <glyph glyph-name="udieresis" unicode="&#xfc;" horiz-adv-x="487" 
d="M194 702v-82h-69v82h69zM359 702v-82h-69v82h69zM381 505h48v-519h-48v92q-58 -101 -160 -102q-166 -3 -164 196v333h48v-325q-3 -167 125 -162q141 13 151 174v313z" />
    <glyph glyph-name="amacron" unicode="&#x101;" horiz-adv-x="486" 
d="M399 706v-48h-296v48h296zM392 217v82q-9 164 -146 175q-147 -6 -151 -231q2 -222 149 -225q143 6 148 199zM440 -14h-48v81q-49 -91 -149 -91q-194 7 -198 268q8 259 198 272q97 -1 149 -88v78h48v-520z" />
    <glyph glyph-name="emacron" unicode="&#x113;" horiz-adv-x="492" 
d="M455 240h-370q6 -212 167 -222q117 0 154 90l50 -8q-48 -125 -204 -124q-210 11 -217 266q8 262 211 274q202 -9 209 -249v-27zM86 282h322q-8 183 -161 192q-140 -7 -161 -192zM402 706v-48h-296v48h296z" />
    <glyph glyph-name="ecaron" unicode="&#x11b;" horiz-adv-x="492" 
d="M455 240h-370q6 -212 167 -222q117 0 154 90l50 -8q-48 -125 -204 -124q-210 11 -217 266q8 262 211 274q202 -9 209 -249v-27zM86 282h322q-8 183 -161 192q-140 -7 -161 -192zM166 770l80 -96l76 96h60l-96 -144h-80l-96 144h56z" />
    <glyph glyph-name="imacron" unicode="&#x12b;" horiz-adv-x="302" 
d="M299 716v-48h-296v48h296zM166 -15h-46v519h46v-519z" />
    <glyph glyph-name="nacute" unicode="&#x144;" horiz-adv-x="490" 
d="M245 642h-55l107 138h82zM431 310v-325h-48v326q1 164 -125 162q-126 -10 -151 -165v-323h-48v518h48v-94q64 107 161 106q166 4 163 -205z" />
    <glyph glyph-name="ncaron" unicode="&#x148;" horiz-adv-x="490" 
d="M160 780l85 -103l81 103h55l-96 -144h-80l-96 144h51zM431 310v-325h-48v326q1 164 -125 162q-126 -10 -151 -165v-323h-48v518h48v-94q64 107 161 106q166 4 163 -205z" />
    <glyph glyph-name="omacron" unicode="&#x14d;" horiz-adv-x="488" 
d="M400 706v-48h-296v48h296zM244 478q-156 -12 -164 -231q8 -220 164 -234q160 6 164 234q-5 224 -164 231zM244 -24q-207 9 -214 271q11 255 214 269q206 -11 214 -269q-5 -264 -214 -271z" />
    <glyph glyph-name="umacron" unicode="&#x16b;" horiz-adv-x="487" 
d="M395 706v-48h-296v48h296zM381 505h48v-519h-48v92q-58 -101 -160 -102q-166 -3 -164 196v333h48v-325q-3 -167 125 -162q141 13 151 174v313z" />
    <glyph glyph-name="uni01CE" unicode="&#x1ce;" horiz-adv-x="486" 
d="M163 770l80 -96l76 96h60l-96 -144h-80l-96 144h56zM392 217v82q-9 164 -146 175q-147 -6 -151 -231q2 -222 149 -225q143 6 148 199zM440 -14h-48v81q-49 -91 -149 -91q-194 7 -198 268q8 259 198 272q97 -1 149 -88v78h48v-520z" />
    <glyph glyph-name="uni01D0" unicode="&#x1d0;" horiz-adv-x="302" 
d="M174 -15h-46v519h46v-519zM67 780l85 -103l81 103h55l-96 -144h-80l-96 144h51z" />
    <glyph glyph-name="uni01D2" unicode="&#x1d2;" horiz-adv-x="488" 
d="M244 478q-156 -12 -164 -231q8 -220 164 -234q160 6 164 234q-5 224 -164 231zM244 -24q-207 9 -214 271q11 255 214 269q206 -11 214 -269q-5 -264 -214 -271zM159 770l85 -103l81 103h55l-96 -144h-80l-96 144h51z" />
    <glyph glyph-name="uni01D4" unicode="&#x1d4;" horiz-adv-x="487" 
d="M381 505h48v-519h-48v92q-58 -101 -160 -102q-166 -3 -164 196v333h48v-325q-3 -167 125 -162q141 13 151 174v313zM158 770l85 -103l81 103h55l-96 -144h-80l-96 144h51z" />
    <glyph glyph-name="uni01D6" unicode="&#x1d6;" horiz-adv-x="487" 
d="M387 829v-47h-296v47h296zM381 505h48v-519h-48v92q-58 -101 -160 -102q-166 -3 -164 196v333h48v-325q-3 -167 125 -162q141 13 151 174v313zM194 702v-82h-69v82h69zM359 702v-82h-69v82h69z" />
    <glyph glyph-name="uni01D8" unicode="&#x1d8;" horiz-adv-x="487" 
d="M242 743h-55l107 135h82zM381 505h48v-519h-48v92q-58 -101 -160 -102q-166 -3 -164 196v333h48v-325q-3 -167 125 -162q141 13 151 174v313zM194 702v-82h-69v82h69zM359 702v-82h-69v82h69z" />
    <glyph glyph-name="uni01DA" unicode="&#x1da;" horiz-adv-x="487" 
d="M158 859l85 -91l81 91h55l-96 -133h-80l-96 133h51zM381 505h48v-519h-48v92q-58 -101 -160 -102q-166 -3 -164 196v333h48v-325q-3 -167 125 -162q141 13 151 174v313zM194 702v-82h-69v82h69zM359 702v-82h-69v82h69z" />
    <glyph glyph-name="uni01DC" unicode="&#x1dc;" horiz-adv-x="487" 
d="M195 882l107 -135h-55l-134 135h82zM381 505h48v-519h-48v92q-58 -101 -160 -102q-166 -3 -164 196v333h48v-325q-3 -167 125 -162q141 13 151 174v313zM194 702v-82h-69v82h69zM359 702v-82h-69v82h69z" />
    <glyph glyph-name="uni0251" unicode="&#x251;" horiz-adv-x="486" 
d="M392 217v82q-9 164 -146 175q-147 -6 -151 -231q2 -222 149 -225q143 6 148 199zM440 -14h-48v81q-49 -91 -149 -91q-194 7 -198 268q8 259 198 272q97 -1 149 -88v78h48v-520z" />
    <glyph glyph-name="uni0261" unicode="&#x261;" horiz-adv-x="490" 
d="M399 241v78q-11 155 -147 166q-157 -4 -160 -220q3 -205 154 -210q151 3 153 186zM447 516v-467q7 -239 -215 -231q-112 2 -171 75l44 24q45 -57 127 -57q174 -9 167 190v50q-50 -87 -159 -87q-191 11 -198 253q10 246 198 261q109 -1 159 -93v82h48z" />
    <glyph glyph-name="caron" unicode="&#x2c7;" 
d="M415 781l85 -100l81 100h55l-96 -144h-80l-96 144h51z" />
    <glyph glyph-name="uni02C9" unicode="&#x2c9;" 
d="M644 741v-52h-296v52h296z" />
    <glyph glyph-name="Alpha" unicode="&#x391;" 
d="M257 -15h-52l267 710h51l271 -710h-52l-87 233h-313zM497 641l-140 -381h282z" />
    <glyph glyph-name="Beta" unicode="&#x392;" 
d="M494 336h-182v-309h203q173 -3 170 153q-9 151 -191 156zM495 653h-183v-275h182q161 1 163 146q-4 127 -162 129zM525 -15h-261v710h244q189 -7 199 -171q0 -124 -125 -167q151 -39 153 -176q-6 -192 -210 -196z" />
    <glyph glyph-name="Gamma" unicode="&#x393;" 
d="M698 695v-42h-347v-668h-48v710h395z" />
    <glyph glyph-name="uni0394" unicode="&#x394;" 
d="M794 -15h-589l270 710h51zM500 641l-224 -614h449z" />
    <glyph glyph-name="Epsilon" unicode="&#x395;" 
d="M318 27h412v-42h-460v710h450v-42h-402v-278h368v-42h-368v-306z" />
    <glyph glyph-name="Zeta" unicode="&#x396;" 
d="M737 695v-30l-423 -638h435v-42h-499v30l423 638h-386v42h450z" />
    <glyph glyph-name="Eta" unicode="&#x397;" 
d="M697 695h48v-710h-48v349h-394v-349h-48v710h48v-319h394v319z" />
    <glyph glyph-name="Theta" unicode="&#x398;" 
d="M502 663q-236 -23 -252 -328q14 -297 252 -319q242 14 253 319q-16 305 -253 328zM502 -25q-288 18 -302 360q15 350 302 370q284 -23 303 -370q-11 -346 -303 -360zM327 334v42h347v-42h-347z" />
    <glyph glyph-name="Iota" unicode="&#x399;" 
d="M524 -15h-48v710h48v-710z" />
    <glyph glyph-name="Kappa" unicode="&#x39a;" 
d="M296 -15h-48v710h48v-287l360 287h71l-400 -316l426 -394h-68l-389 364v-364z" />
    <glyph glyph-name="Lambda" unicode="&#x39b;" 
d="M257 -15h-52l267 710h51l271 -710h-52l-244 655z" />
    <glyph glyph-name="Mu" unicode="&#x39c;" 
d="M722 695h80v-710h-48v671l-232 -669h-44l-232 669v-671h-48v710h80l222 -644z" />
    <glyph glyph-name="Nu" unicode="&#x39d;" 
d="M668 -15l-368 672v-672h-48v710h80l368 -672v672h48v-710h-80z" />
    <glyph glyph-name="Xi" unicode="&#x39e;" 
d="M270 652v43h461v-43h-461zM265 -15v43h470v-43h-470zM285 332v43h431v-43h-431z" />
    <glyph glyph-name="Omicron" unicode="&#x39f;" 
d="M502 663q-236 -23 -252 -328q14 -297 252 -319q242 14 253 319q-16 305 -253 328zM502 -25q-288 18 -302 360q15 350 302 370q284 -23 303 -370q-11 -346 -303 -360z" />
    <glyph glyph-name="Pi" unicode="&#x3a0;" 
d="M187 653v42h627v-42h-84v-668h-48v668h-364v-668h-48v668h-83z" />
    <glyph glyph-name="Rho" unicode="&#x3a1;" 
d="M530 310h-222v-325h-48v710h270q203 -6 210 -193q-4 -188 -210 -192zM512 653h-204v-301h204q180 -1 178 151q-4 146 -178 150z" />
    <glyph glyph-name="Sigma" unicode="&#x3a3;" 
d="M335 27h390v-42h-450v39l297 325l-297 306v40h440v-42h-378l292 -303z" />
    <glyph glyph-name="Tau" unicode="&#x3a4;" 
d="M760 653h-236v-668h-48v668h-236v42h520v-42z" />
    <glyph glyph-name="Upsilon" unicode="&#x3a5;" 
d="M786 695l-262 -402v-308h-48v309l-262 401h56l230 -364l230 364h56z" />
    <glyph glyph-name="Phi" unicode="&#x3a6;" 
d="M475 695h50v-57q291 -24 303 -297q-2 -280 -303 -301v-55h-50v55q-295 18 -303 300q12 267 303 298v57zM475 84v511q-244 -23 -253 -257q3 -234 253 -254zM525 595v-511q255 12 253 256q-5 234 -253 255z" />
    <glyph glyph-name="Chi" unicode="&#x3a7;" 
d="M530 352l255 -367h-60l-225 338l-229 -338h-59l259 367l-235 343h56l209 -315l204 315h56z" />
    <glyph glyph-name="Psi" unicode="&#x3a8;" 
d="M169 695h47q12 -317 260 -330v330h46v-328q242 19 263 328h46q-19 -347 -309 -373v-337h-46v338q-295 24 -307 372z" />
    <glyph glyph-name="uni03A9" unicode="&#x3a9;" 
d="M219 -16v41h174q-201 124 -201 372q26 290 307 309q292 -11 308 -322q-1 -248 -201 -359h170v-41h-244v43q227 108 226 356q-9 274 -259 283q-245 -25 -260 -269q-3 -254 224 -371v-42h-244z" />
    <glyph glyph-name="alpha" unicode="&#x3b1;" 
d="M760 -15h-51q-18 81 -55 196q-82 -212 -218 -208q-182 12 -195 271q13 258 195 270q132 4 216 -209q29 91 53 199h49q-23 -93 -78 -260q61 -178 84 -259zM436 16q119 -1 192 229q-79 229 -192 225q-137 -10 -147 -226q10 -218 147 -228z" />
    <glyph glyph-name="beta" unicode="&#x3b2;" 
d="M706 186q-15 -203 -242 -212q-65 -1 -122 22v-209h-47v700q2 247 189 249q160 -8 173 -170q-5 -122 -123 -174q164 -59 172 -206zM659 186q-15 165 -215 180h-34v42q191 10 201 158q-10 120 -127 127q-142 0 -142 -206v-444q69 -26 122 -26q188 6 195 169z" />
    <glyph glyph-name="gamma" unicode="&#x3b3;" 
d="M338 504q136 -255 175 -468q124 203 156 468h49q-39 -298 -188 -520v-200h-48v115q4 247 -201 605h57z" />
    <glyph glyph-name="delta" unicode="&#x3b4;" 
d="M719 224q-12 -240 -217 -250q-201 15 -220 250q5 199 189 255q-95 70 -93 150q11 101 159 107q68 0 136 -15h2l-7 -50q-75 20 -130 20q-110 -2 -112 -62q-5 -72 121 -152q177 -114 172 -253zM671 224q5 116 -152 216q-182 -36 -188 -216q17 -189 171 -203q159 9 169 203z
" />
    <glyph glyph-name="epsilon" unicode="&#x3b5;" 
d="M514 18q79 2 158 37l19 -44q-84 -37 -177 -38q-196 9 -205 154q2 88 97 130q-75 36 -77 115q7 134 182 142q96 -2 167 -39l-20 -45q-69 38 -147 39q-128 -5 -133 -97q4 -93 145 -96h79v-45h-82q-156 -3 -163 -104q7 -102 157 -109z" />
    <glyph glyph-name="zeta" unicode="&#x3b6;" 
d="M621 -161l-45 6q48 68 51 106q0 33 -50 33q-252 2 -254 232q-4 137 164 337q20 26 58 71q34 42 53 66h-239v46h303v-41l-135 -163q-159 -188 -156 -316q-3 -189 210 -185q90 -4 94 -77q-1 -50 -54 -115z" />
    <glyph glyph-name="eta" unicode="&#x3b7;" 
d="M315 -16v352q0 73 -8 168h43l9 -77q61 90 176 88q156 -4 159 -220v-514h-47v514q2 178 -128 175q-139 -18 -157 -166v-320h-47z" />
    <glyph glyph-name="theta" unicode="&#x3b8;" 
d="M500 736q207 -4 209 -378q-1 -381 -209 -384q-205 3 -208 384q4 370 208 378zM500 20q154 3 159 320h-316q5 -318 157 -320zM500 690q-149 -3 -157 -305h315q-7 303 -158 305z" />
    <glyph glyph-name="iota" unicode="&#x3b9;" 
d="M575 18v-44q-123 3 -123 117v413h48v-413q0 -70 75 -73z" />
    <glyph glyph-name="kappa" unicode="&#x3ba;" 
d="M689 -16h-65l-244 243v-243h-46v520h46v-207l172 170q38 39 89 37h23v-41h-21q-35 2 -60 -26l-179 -174z" />
    <glyph glyph-name="lambda" unicode="&#x3bb;" 
d="M456 687l261 -702h-48q-145 396 -167 455q-27 -75 -83 -228q-57 -153 -84 -227h-51l194 513l-64 173v-1q-9 24 -31 22h-17v43h19q51 0 71 -48z" />
    <glyph glyph-name="uni03BC" unicode="&#x3bc;" 
d="M681 155q1 -43 11 -170h-36l-15 79q-56 -92 -171 -89q-73 1 -114 55v-246h-48v720h48v-322q0 -160 121 -162q143 14 157 162v322h47v-349z" />
    <glyph glyph-name="nu" unicode="&#x3bd;" 
d="M656 504h47q-10 -227 -185 -519h-37l-183 519h48l158 -458q140 245 152 458z" />
    <glyph glyph-name="xi" unicode="&#x3be;" 
d="M596 29q89 -11 92 -78q-1 -47 -58 -102l-51 5q60 63 61 93q0 30 -61 38q-271 35 -268 221q4 148 153 204q-111 38 -111 138q5 92 104 142h-122v45h322v-46q-244 -23 -253 -141q2 -111 209 -122v-44h-47q-197 -15 -206 -176q1 -155 236 -177z" />
    <glyph glyph-name="omicron" unicode="&#x3bf;" 
d="M500 477q-156 -12 -164 -231q8 -220 164 -234q160 6 164 234q-5 224 -164 231zM500 -25q-207 9 -214 271q11 255 214 269q206 -11 214 -269q-5 -264 -214 -271z" />
    <glyph glyph-name="pi" unicode="&#x3c0;" 
d="M744 460h-90v-363q-3 -66 90 -66v-47q-136 3 -136 113v363h-194l-55 -476h-45l53 476h-110v44h487v-44z" />
    <glyph glyph-name="rho" unicode="&#x3c1;" 
d="M704 250q-13 -266 -221 -275q-67 1 -121 27q18 -97 56 -212h-49q-70 231 -73 428q3 293 206 296q187 -13 202 -264zM658 250q-13 208 -156 220q-158 -3 -161 -252q0 -98 11 -161q53 -33 131 -36q165 7 175 229z" />
    <glyph glyph-name="sigma" unicode="&#x3c3;" 
d="M499 -26q-199 9 -206 271q11 255 206 269q21 0 59 -6q3 -1 4 -1q24 -4 33 -4h153v-42h-122q80 -71 80 -216q-5 -264 -207 -271zM499 473q-150 -13 -158 -228q7 -218 158 -231q155 5 158 231q-6 217 -158 228z" />
    <glyph glyph-name="tau" unicode="&#x3c4;" 
d="M678 463h-154v-364q-1 -70 71 -69v-45q-121 -1 -120 114v364h-153v41h356v-41z" />
    <glyph glyph-name="upsilon" unicode="&#x3c5;" 
d="M311 186v318h45v-318q2 -167 139 -169q148 1 149 214q-6 166 -97 273h57q78 -113 85 -273q-2 -255 -194 -257q-182 2 -184 212z" />
    <glyph glyph-name="phi" unicode="&#x3c6;" 
d="M477 -205v180q-215 33 -230 270q15 234 230 268v207h48v-207q213 -35 229 -268q-15 -236 -229 -270v-180h-48zM297 245q10 -201 180 -227v451q-167 -27 -180 -224zM704 245q-24 189 -179 224v-451q169 26 179 227z" />
    <glyph glyph-name="chi" unicode="&#x3c7;" 
d="M700 -161h38v-47l-40 -1q-48 0 -71 51l-135 279l-175 -321h-57l210 370l-135 273q-10 22 -32 21h-35v45h41q46 1 70 -48l116 -241q31 58 95 177q39 72 58 107h56l-185 -335l151 -309q7 -23 30 -21z" />
    <glyph glyph-name="psi" unicode="&#x3c8;" 
d="M769 235q1 -252 -244 -261v-190h-48v190q-245 9 -244 261v269h48v-269q-2 -207 196 -214v582h48v-582q198 7 197 214v269h47v-269z" />
    <glyph glyph-name="omega" unicode="&#x3c9;" 
d="M800 242q-8 -261 -177 -268q-89 2 -122 90q-35 -89 -124 -90q-170 7 -177 268q5 144 89 262h59q-98 -108 -101 -262q7 -215 130 -222q97 6 100 174v198h46v-198q3 -168 100 -174q123 7 129 222q-3 153 -100 262h59q84 -118 89 -262z" />
    <glyph glyph-name="uni0401" unicode="&#x401;" 
d="M318 27h412v-42h-460v710h450v-42h-402v-278h368v-42h-368v-306zM452 829v-77h-64v77h64zM612 829v-77h-64v77h64z" />
    <glyph glyph-name="uni0410" unicode="&#x410;" 
d="M257 -15h-52l267 710h51l271 -710h-52l-87 233h-313zM497 641l-140 -381h282z" />
    <glyph glyph-name="uni0411" unicode="&#x411;" 
d="M684 695v-41h-370v-279h215q198 -6 204 -194q-8 -188 -204 -196h-263v710h418zM314 26h196q169 3 173 154q1 155 -173 154h-196v-308z" />
    <glyph glyph-name="uni0412" unicode="&#x412;" 
d="M494 336h-182v-309h203q173 -3 170 153q-9 151 -191 156zM495 653h-183v-275h182q161 1 163 146q-4 127 -162 129zM525 -15h-261v710h244q189 -7 199 -171q0 -124 -125 -167q151 -39 153 -176q-6 -192 -210 -196z" />
    <glyph glyph-name="uni0413" unicode="&#x413;" 
d="M698 695v-42h-347v-668h-48v710h395z" />
    <glyph glyph-name="uni0414" unicode="&#x414;" 
d="M790 -26h-579v-146h-41l-8 187h72q151 153 146 434v247h367v-681h92l-8 -187h-41v146zM429 446q1 -276 -131 -431h401v635h-270v-204z" />
    <glyph glyph-name="uni0415" unicode="&#x415;" 
d="M318 27h412v-42h-460v710h450v-42h-402v-278h368v-42h-368v-306z" />
    <glyph glyph-name="uni0416" unicode="&#x416;" 
d="M524 -15h-47v362q-71 -72 -213 -221q-91 -94 -136 -141h-64l384 394l-358 316h67l320 -287v287h47v-287l320 287h67l-358 -316l384 -394h-64l-349 362v-362z" />
    <glyph glyph-name="uni0417" unicode="&#x417;" 
d="M226 148l48 8q32 -145 223 -141q227 1 228 170q-6 148 -242 151h-47v41h47q212 4 218 148q-4 137 -200 140q-179 0 -211 -129l-49 7q41 163 260 163q244 -4 249 -182q0 -122 -139 -166q161 -45 163 -173q-3 -208 -278 -211q-231 -2 -270 174z" />
    <glyph glyph-name="uni0418" unicode="&#x418;" 
d="M300 23l368 672h80v-710h-48v672l-368 -672h-80v710h48v-672z" />
    <glyph glyph-name="uni0419" unicode="&#x419;" 
d="M300 23l368 672h80v-710h-48v672l-368 -672h-80v710h48v-672zM341 839h46q10 -90 113 -87q95 -1 111 86h48q-24 -127 -159 -130q-148 0 -159 131z" />
    <glyph glyph-name="uni041A" unicode="&#x41a;" 
d="M291 -15h-48v710h48v-421l383 421h62l-265 -288l290 -422h-58l-263 388l-149 -162v-226z" />
    <glyph glyph-name="uni041B" unicode="&#x41b;" 
d="M266 -26l-28 32q174 175 173 447v242h352v-710h-47v665h-257v-200q-3 -300 -193 -476z" />
    <glyph glyph-name="uni041C" unicode="&#x41c;" 
d="M722 695h80v-710h-48v671l-232 -669h-44l-232 669v-671h-48v710h80l222 -644z" />
    <glyph glyph-name="uni041D" unicode="&#x41d;" 
d="M697 695h48v-710h-48v349h-394v-349h-48v710h48v-319h394v319z" />
    <glyph glyph-name="uni041E" unicode="&#x41e;" 
d="M502 663q-236 -23 -252 -328q14 -297 252 -319q242 14 253 319q-16 305 -253 328zM502 -25q-288 18 -302 360q15 350 302 370q284 -23 303 -370q-11 -346 -303 -360z" />
    <glyph glyph-name="uni041F" unicode="&#x41f;" 
d="M255 695h490v-710h-48v669h-394v-669h-48v710z" />
    <glyph glyph-name="uni0420" unicode="&#x420;" 
d="M530 310h-222v-325h-48v710h270q203 -6 210 -193q-4 -188 -210 -192zM512 653h-204v-301h204q180 -1 178 151q-4 146 -178 150z" />
    <glyph glyph-name="uni0421" unicode="&#x421;" 
d="M729 187l49 -11q-53 -203 -263 -201q-281 17 -294 358q15 349 287 372q190 1 251 -171l-47 -16q-55 144 -209 145q-218 -24 -232 -330q10 -300 244 -316q173 0 214 170z" />
    <glyph glyph-name="uni0422" unicode="&#x422;" 
d="M760 653h-236v-668h-48v668h-236v42h520v-42z" />
    <glyph glyph-name="uni0423" unicode="&#x423;" 
d="M675 695h50l-214 -570l-1 1q-56 -161 -129 -152q-34 1 -74 19l13 38q33 -15 59 -16q51 0 92 122l15 45l-210 513h51l182 -456z" />
    <glyph glyph-name="uni0424" unicode="&#x424;" 
d="M476 695h48v-103q351 -10 344 -251q18 -247 -344 -254v-103h-48v102q-356 0 -344 254q-5 234 344 251v104zM476 128v421q-296 -17 -295 -211q-11 -206 295 -210zM524 549v-420q308 5 295 211q9 200 -295 209z" />
    <glyph glyph-name="uni0425" unicode="&#x425;" 
d="M530 352l255 -367h-60l-225 338l-229 -338h-59l259 367l-235 343h56l209 -315l204 315h56z" />
    <glyph glyph-name="uni0426" unicode="&#x426;" 
d="M221 -16v711h47v-670h385v670h47v-670h99l-8 -186h-40v145h-530z" />
    <glyph glyph-name="uni0427" unicode="&#x427;" 
d="M274 480v215h47v-215q0 -166 178 -163q86 2 181 46v332h47v-710h-47v331q-85 -40 -182 -42q-220 -6 -224 206z" />
    <glyph glyph-name="uni0428" unicode="&#x428;" 
d="M110 -15v710h47v-669h319v669h47v-669h320v669h47v-710h-780z" />
    <glyph glyph-name="uni0429" unicode="&#x429;" 
d="M70 -16v711h47v-670h320v671h47v-671h321v670h47v-670h99l-8 -186h-40v145h-833z" />
    <glyph glyph-name="uni042A" unicode="&#x42a;" 
d="M203 653v42h232v-320h158q198 -6 204 -194q-8 -188 -204 -196h-204v668h-186zM435 26h140q169 3 173 154q1 155 -173 154h-140v-308z" />
    <glyph glyph-name="uni042B" unicode="&#x42b;" 
d="M250 375h158q198 -6 204 -194q-8 -188 -204 -196h-204v710h46v-320zM250 26h140q170 3 174 154q1 155 -174 154h-140v-308zM798 -15h-47v710h47v-710z" />
    <glyph glyph-name="uni042C" unicode="&#x42c;" 
d="M343 375h158q198 -6 204 -194q-8 -188 -204 -196h-204v710h46v-320zM343 26h140q170 3 174 154q1 155 -174 154h-140v-308z" />
    <glyph glyph-name="uni042D" unicode="&#x42d;" 
d="M295 554l-44 9q75 134 226 133q283 -6 290 -362q-9 -351 -283 -359q-169 -3 -251 136q17 2 29 6l18 5q68 -105 204 -107q211 6 236 299h-338v42h338q-22 294 -243 299q-115 -1 -182 -101z" />
    <glyph glyph-name="uni042E" unicode="&#x42e;" 
d="M596 -26q-280 18 -294 360h-148v-350h-47v712h47v-321h149q34 316 293 331q279 -22 296 -371q-11 -347 -296 -361zM596 665q-230 -24 -246 -330q13 -298 246 -320q237 14 247 320q-16 307 -247 330z" />
    <glyph glyph-name="uni042F" unicode="&#x42f;" 
d="M284 -15h-64l267 325q-203 6 -207 192q7 187 210 193h270v-710h-48v325h-169zM712 653h-204q-174 -4 -178 -150q-2 -152 178 -151h204v301z" />
    <glyph glyph-name="uni0430" unicode="&#x430;" 
d="M637 211v84q-44 -38 -151 -52q-151 -18 -146 -124q1 -100 118 -101q170 8 179 193zM352 359l-49 10q37 147 201 146q180 -1 181 -173v-239q0 -70 25 -118h-48q-25 43 -25 96v8q-58 -111 -189 -114q-154 3 -158 144q4 136 168 160q131 16 179 56v8q2 132 -132 130
q-122 2 -153 -114z" />
    <glyph glyph-name="uni0431" unicode="&#x431;" 
d="M277 237q2 400 239 454q74 15 143 51l17 -41q-60 -32 -155 -54q-148 -33 -182 -233q59 90 168 90q211 -11 216 -272q-10 -248 -224 -258q-214 8 -222 263zM326 232q11 -207 173 -214q162 6 176 214q-4 218 -170 228q-167 -11 -179 -228z" />
    <glyph glyph-name="uni0432" unicode="&#x432;" 
d="M313 504h164q200 5 195 -134q0 -89 -80 -114q96 -26 96 -127q4 -148 -196 -144h-179v519zM359 233v-204h133q152 -3 148 102q1 102 -158 102h-123zM359 460v-184h120q147 -1 146 90q7 97 -148 94h-118z" />
    <glyph glyph-name="uni0433" unicode="&#x433;" 
d="M339 504h324v-45h-278v-474h-46v519z" />
    <glyph glyph-name="uni0434" unicode="&#x434;" 
d="M247 31h53q95 125 93 440v33h311v-473h49l-4 -166h-38l-9 120h-406q-1 -9 -3 -35q-2 -43 -5 -85h-38zM358 31h298v428h-215q-1 -281 -83 -428z" />
    <glyph glyph-name="uni0435" unicode="&#x435;" 
d="M709 239h-370q6 -212 167 -222q117 0 154 90l50 -8q-48 -125 -204 -124q-210 11 -217 266q8 262 211 274q202 -9 209 -249v-27zM340 281h322q-8 183 -161 192q-140 -7 -161 -192z" />
    <glyph glyph-name="uni0436" unicode="&#x436;" 
d="M169 504h66l242 -222v222h46v-222l242 222h66l-276 -250l273 -270h-63l-242 240v-240h-46v241l-242 -241h-63l273 270z" />
    <glyph glyph-name="uni0437" unicode="&#x437;" 
d="M351 375l-47 17q64 125 202 122q180 -6 188 -142q-1 -88 -77 -115q95 -31 97 -131q-2 -150 -213 -152q-157 -6 -214 126l43 22q38 -106 171 -103q159 3 163 110q-1 103 -152 104h-53v45h52q136 -2 134 92q-10 94 -139 99q-101 2 -155 -94z" />
    <glyph glyph-name="uni0438" unicode="&#x438;" 
d="M299 504h45v-441l314 441h43v-520h-44v443l-316 -443h-42v520z" />
    <glyph glyph-name="uni0439" unicode="&#x439;" 
d="M341 696h46q9 -89 113 -86q95 -1 111 86h48q-24 -127 -159 -130q-148 0 -159 130zM299 504h45v-441l314 441h43v-520h-44v443l-316 -443h-42v520z" />
    <glyph glyph-name="uni043A" unicode="&#x43a;" 
d="M369 -15h-47v519h47v-248l249 248h62l-229 -224l247 -295h-59l-217 266l-53 -53v-213z" />
    <glyph glyph-name="uni043B" unicode="&#x43b;" 
d="M324 -22l-46 20q62 81 85 185q24 99 23 288v33h316v-520h-48v475h-220q5 -350 -110 -481z" />
    <glyph glyph-name="uni043C" unicode="&#x43c;" 
d="M238 504h57l201 -458l210 458h57v-520h-46v439l-201 -439h-41l-191 437v-437h-46v520z" />
    <glyph glyph-name="uni043D" unicode="&#x43d;" 
d="M301 504h45v-228h310v228h45v-519h-45v248h-310v-248h-45v519z" />
    <glyph glyph-name="uni043E" unicode="&#x43e;" 
d="M500 477q-156 -12 -164 -231q8 -220 164 -234q160 6 164 234q-5 224 -164 231zM500 -25q-207 9 -214 271q11 255 214 269q206 -11 214 -269q-5 -264 -214 -271z" />
    <glyph glyph-name="uni043F" unicode="&#x43f;" 
d="M301 504h400v-519h-45v476h-310v-476h-45v519z" />
    <glyph glyph-name="uni0440" unicode="&#x440;" 
d="M349 294v-79q7 -187 150 -197q148 -1 148 224q-5 224 -148 232q-137 -13 -150 -180zM349 -193h-48v699h48v-92q63 101 152 102q190 -11 196 -273q-3 -263 -196 -267q-99 0 -152 98v-267z" />
    <glyph glyph-name="uni0441" unicode="&#x441;" 
d="M691 375l-48 -12q-29 109 -135 110q-151 -11 -158 -228q4 -221 158 -228q122 -2 142 125l49 -9q-31 -161 -191 -158q-203 9 -208 269q10 255 208 271q147 -2 183 -140z" />
    <glyph glyph-name="uni0442" unicode="&#x442;" 
d="M282 504h437v-44h-195v-476h-47v476h-195v44z" />
    <glyph glyph-name="uni0443" unicode="&#x443;" 
d="M657 504h52l-205 -549q-32 -85 -58 -117q-25 -31 -64 -30q-40 0 -76 21l23 33q27 -12 51 -12q45 -8 86 115l14 41l-190 498h52l158 -442z" />
    <glyph glyph-name="uni0444" unicode="&#x444;" 
d="M134 239q12 260 194 275q83 0 149 -90v263h47v-263q64 89 149 90q182 -14 194 -275q-12 -252 -197 -265q-82 2 -146 72v-234h-47v234q-63 -70 -146 -72q-185 14 -197 265zM667 469q-75 2 -143 -103v-260q60 -88 143 -86q143 9 152 219q-7 223 -152 230zM334 20
q84 0 143 86v260q-70 106 -143 103q-143 -7 -150 -230q9 -211 150 -219z" />
    <glyph glyph-name="uni0445" unicode="&#x445;" 
d="M641 504h52l-164 -256l183 -263h-56l-153 240l-159 -240h-56l188 263l-169 256h52l144 -232z" />
    <glyph glyph-name="uni0446" unicode="&#x446;" 
d="M280 504h46v-473h302v473h46v-473h47l-7 -142h-38l-4 96h-392v519z" />
    <glyph glyph-name="uni0447" unicode="&#x447;" 
d="M317 504h48v-191q2 -116 125 -117q82 0 146 40v268h47v-519h-47v201q-68 -35 -151 -35q-165 1 -168 159v194z" />
    <glyph glyph-name="uni0448" unicode="&#x448;" 
d="M208 504h46v-476h223v476h46v-476h224v476h46v-519h-585v519z" />
    <glyph glyph-name="uni0449" unicode="&#x449;" 
d="M191 504h46v-476h224v476h46v-476h223v476h46v-476h34l-5 -139h-37l-5 96h-572v519z" />
    <glyph glyph-name="uni044A" unicode="&#x44a;" 
d="M250 504h208v-202h80q214 1 212 -160q4 -160 -214 -158h-125v476h-161v44zM458 259v-232h72q174 -2 172 115q1 118 -172 117h-72z" />
    <glyph glyph-name="uni044B" unicode="&#x44b;" 
d="M708 504h45v-519h-45v519zM247 504h46v-201h90q214 1 212 -160q4 -160 -214 -158h-134v519zM293 259v-231h82q174 -2 172 115q1 117 -172 116h-82z" />
    <glyph glyph-name="uni044C" unicode="&#x44c;" 
d="M326 504h46v-201h90q214 1 212 -160q4 -160 -214 -158h-134v519zM372 259v-231h82q174 -2 172 115q1 117 -172 116h-82z" />
    <glyph glyph-name="uni044D" unicode="&#x44d;" 
d="M356 395l-47 11q58 109 175 108q214 -4 219 -272q-8 -262 -213 -268q-132 -2 -193 108l47 15q48 -78 146 -79q147 3 165 203h-247v44h247q-26 199 -171 204q-88 1 -128 -74z" />
    <glyph glyph-name="uni044E" unicode="&#x44e;" 
d="M592 -26q-194 9 -207 259h-138v-248h-45v519h45v-227h139q28 227 206 237q198 -11 206 -269q-5 -264 -206 -271zM592 473q-151 -13 -159 -228q7 -217 159 -230q155 5 158 230q-6 217 -158 228z" />
    <glyph glyph-name="uni044F" unicode="&#x44f;" 
d="M680 -15h-46v220h-113l-163 -220h-59l168 222q-145 16 -144 149q-2 150 194 148h163v-519zM634 249v212h-111q-155 4 -152 -105q-3 -110 152 -107h111z" />
    <glyph glyph-name="uni0451" unicode="&#x451;" 
d="M709 239h-370q6 -212 167 -222q117 0 154 90l50 -8q-48 -125 -204 -124q-210 11 -217 266q8 262 211 274q202 -9 209 -249v-27zM340 281h322q-8 183 -161 192q-140 -7 -161 -192zM452 689v-77h-64v77h64zM612 689v-77h-64v77h64z" />
    <glyph glyph-name="emdash" unicode="&#x2014;" 
d="M1000 335h-1000v30h1000v-30z" />
    <glyph glyph-name="uni2016" unicode="&#x2016;" 
d="M435 -109h-44v919h44v-919zM609 -109h-44v919h44v-919z" />
    <glyph glyph-name="quoteleft" unicode="&#x2018;" 
d="M701 552v76q-2 120 77 182l20 -21q-66 -54 -62 -147v-2h42v-88h-77z" />
    <glyph glyph-name="quoteright" unicode="&#x2019;" 
d="M295 810v-76q2 -120 -77 -182l-20 21q66 54 62 147v2h-42v88h77z" />
    <glyph glyph-name="quotedblleft" unicode="&#x201c;" 
d="M785 552v76q-2 120 77 182l20 -21q-66 -54 -62 -147v-2h42v-88h-77zM632 552v76q-2 120 77 182l20 -21q-66 -54 -62 -147v-2h42v-88h-77z" />
    <glyph glyph-name="quotedblright" unicode="&#x201d;" 
d="M223 810v-76q2 -120 -77 -182l-20 21q66 54 62 147v2h-42v88h77zM377 810v-76q2 -120 -77 -182l-20 21q66 54 62 147v2h-42v88h77z" />
    <glyph glyph-name="uni22EF" unicode="&#x22ef;" 
d="M206 305h-80v90h80v-90zM540 305h-80v90h80v-90zM873 305h-80v90h80v-90z" />
    <glyph glyph-name="uni22EF" unicode="&#x2026;" 
d="M206 305h-80v90h80v-90zM540 305h-80v90h80v-90zM873 305h-80v90h80v-90z" />
    <glyph glyph-name="perthousand" unicode="&#x2030;" 
d="M177 379q94 5 96 150q-2 145 -95 148q-96 -3 -98 -151q5 -138 97 -147zM178 713q127 -6 132 -188q-3 -178 -137 -182q-123 9 -129 182q3 183 134 188zM185 -15h-43l349 730h43zM508 19q95 5 97 151q-2 145 -96 148q-95 -3 -97 -152q5 -137 96 -147zM509 353
q129 -6 133 -188q-3 -176 -137 -181q-124 10 -130 181q4 182 134 188zM822 19q95 5 97 151q-2 145 -96 148q-95 -3 -97 -152q5 -137 96 -147zM823 353q129 -6 133 -188q-3 -176 -137 -181q-124 10 -130 181q4 182 134 188z" />
    <glyph glyph-name="minute" unicode="&#x2032;" 
d="M323 723l-114 -275h-34l82 275h66z" />
    <glyph glyph-name="second" unicode="&#x2033;" 
d="M245 723l-114 -275h-34l82 275h66zM402 723l-114 -275h-34l82 275h66z" />
    <glyph glyph-name="uni203B" unicode="&#x203b;" 
d="M159 48l317 316l-301 301q-15 17 -4 31q14 11 31 -4l301 -301l313 313q13 11 24 -6q8 -16 -5 -29l-305 -305l309 -309q10 -11 0 -26q-12 -14 -23 -5l-313 313l-312 -313q-32 -10 -32 24zM241 438q68 -6 74 -74q-6 -68 -74 -74q-68 6 -74 74q6 68 74 74zM503 169
q68 -6 74 -74q-6 -68 -74 -74q-68 6 -74 74q6 68 74 74zM761 438q68 -6 74 -74q-6 -68 -74 -74q-68 6 -74 74q6 68 74 74zM503 708q68 -6 74 -74q-6 -68 -74 -74q-68 6 -74 74q6 68 74 74z" />
    <glyph glyph-name="uniE76C" unicode="&#xe76c;" horiz-adv-x="688" 
d="M448 262v-42h-282q53 -197 232 -203q173 0 214 170l49 -11q-53 -203 -263 -201q-224 8 -283 245h-85v42h78q-4 33 -4 71q0 45 6 87h-80v42h88q65 234 273 243q190 1 251 -171l-47 -16q-55 144 -209 145q-158 -9 -216 -201h278v-42h-287q-7 -41 -7 -87q0 -38 5 -71h289z
" />
    <glyph glyph-name="uniE76C" unicode="&#x20ac;" horiz-adv-x="688" 
d="M448 262v-42h-282q53 -197 232 -203q173 0 214 170l49 -11q-53 -203 -263 -201q-224 8 -283 245h-85v42h78q-4 33 -4 71q0 45 6 87h-80v42h88q65 234 273 243q190 1 251 -171l-47 -16q-55 144 -209 145q-158 -9 -216 -201h278v-42h-287q-7 -41 -7 -87q0 -38 5 -71h289z
" />
    <glyph glyph-name="uni2103" unicode="&#x2103;" 
d="M839 188l49 -11q-53 -203 -263 -201q-281 17 -294 358q15 349 287 372q190 1 251 -171l-47 -16q-55 144 -209 145q-218 -24 -232 -330q10 -300 244 -316q173 0 214 170zM147 602q4 -62 66 -65q65 2 67 65q-3 65 -67 68q-63 -3 -66 -68zM111 602q8 96 102 104
q95 -7 103 -104q-7 -94 -103 -101q-94 8 -102 101z" />
    <glyph glyph-name="uni2116" unicode="&#x2116;" 
d="M447 103v592h60v-710h-67l-289 619v-619h-60v710h78zM545 284q13 208 181 217q169 -9 182 -217q-13 -208 -182 -217q-168 9 -181 217zM603 284q9 -163 124 -167q116 4 124 167q-8 163 -124 167q-115 -4 -124 -167zM860 29v-44h-251v44h251z" />
    <glyph glyph-name="uni2160" unicode="&#x2160;" 
d="M524 -15h-48v710h48v-710z" />
    <glyph glyph-name="uni2161" unicode="&#x2161;" 
d="M429 -15h-48v710h48v-710zM619 -15h-48v710h48v-710z" />
    <glyph glyph-name="uni2162" unicode="&#x2162;" 
d="M524 -15h-48v710h48v-710zM655 -15h-48v710h48v-710zM393 -15h-48v710h48v-710z" />
    <glyph glyph-name="uni2163" unicode="&#x2163;" 
d="M308 -15h-48v710h48v-710zM687 695h52l-150 -710h-52l-152 710h51l127 -629z" />
    <glyph glyph-name="uni2164" unicode="&#x2164;" 
d="M735 695h54l-265 -710h-50l-264 710h54l235 -665z" />
    <glyph glyph-name="uni2165" unicode="&#x2165;" 
d="M313 695l124 -629l127 629h51l-152 -710h-52l-150 710h52zM692 -15v710h48v-710h-48z" />
    <glyph glyph-name="uni2166" unicode="&#x2166;" 
d="M672 -15h-48v710h48v-710zM808 -15h-48v710h48v-710zM494 695h52l-150 -710h-52l-152 710h51l127 -629z" />
    <glyph glyph-name="uni2167" unicode="&#x2167;" 
d="M622 -15h-48v710h48v-710zM745 -15h-48v710h48v-710zM867 -15h-48v710h48v-710zM434 695h52l-150 -710h-52l-152 710h51l127 -629z" />
    <glyph glyph-name="uni2168" unicode="&#x2168;" 
d="M388 695h56l132 -293l143 293h56l-171 -354l161 -356h-60l-131 294l-142 -294h-59l173 355zM272 -15h-48v710h48v-710z" />
    <glyph glyph-name="uni2169" unicode="&#x2169;" 
d="M531 352l255 -367h-60l-225 338l-229 -338h-59l259 367l-235 343h56l209 -315l204 315h56z" />
    <glyph glyph-name="uni216A" unicode="&#x216a;" 
d="M612 695l-159 -355l174 -355h-59l-142 294l-131 -294h-60l161 356l-171 354h56l142 -293l133 293h56zM728 -15v710h48v-710h-48z" />
    <glyph glyph-name="uni216B" unicode="&#x216b;" 
d="M555 695l-159 -355l174 -355h-59l-142 294l-131 -294h-60l161 356l-171 354h56l142 -293l133 293h56zM831 -15h-48v710h48v-710zM691 -15h-48v710h48v-710z" />
    <glyph glyph-name="uni2170" unicode="&#x2170;" 
d="M523 -15h-46v519h46v-519zM523 623h-46v72h46v-72z" />
    <glyph glyph-name="uni2171" unicode="&#x2171;" 
d="M431 -15h-46v519h46v-519zM431 623h-46v72h46v-72zM615 -15h-46v519h46v-519zM615 623h-46v72h46v-72z" />
    <glyph glyph-name="uni2172" unicode="&#x2172;" 
d="M523 -15h-46v519h46v-519zM523 623h-46v72h46v-72zM378 -15h-46v519h46v-519zM378 623h-46v72h46v-72zM668 -15h-46v519h46v-519zM668 623h-46v72h46v-72z" />
    <glyph glyph-name="uni2173" unicode="&#x2173;" 
d="M294 -15h-46v519h46v-519zM294 623h-46v72h46v-72zM694 504h52l-147 -520h-51l-161 520h52l134 -460z" />
    <glyph glyph-name="uni2174" unicode="&#x2174;" 
d="M658 504h52l-185 -519h-50l-185 519h52l158 -474z" />
    <glyph glyph-name="uni2175" unicode="&#x2175;" 
d="M561 505h52l-147 -520h-51l-161 520h52l134 -460zM751 -15h-46v519h46v-519zM751 623h-46v72h46v-72z" />
    <glyph glyph-name="uni2176" unicode="&#x2176;" 
d="M491 505h52l-147 -520h-51l-161 520h52l134 -460zM674 -15h-46v519h46v-519zM674 623h-46v72h46v-72zM819 -15h-46v519h46v-519zM819 623h-46v72h46v-72z" />
    <glyph glyph-name="uni2177" unicode="&#x2177;" 
d="M448 505h52l-147 -520h-51l-161 520h52l134 -460zM613 -15h-46v519h46v-519zM613 623h-46v72h46v-72zM736 -15h-46v519h46v-519zM736 623h-46v72h46v-72zM859 -15h-46v519h46v-519zM859 623h-46v72h46v-72z" />
    <glyph glyph-name="uni2178" unicode="&#x2178;" 
d="M294 -15h-46v519h46v-519zM294 623h-46v72h46v-72zM706 504h52l-164 -256l183 -263h-56l-153 240l-159 -240h-56l188 263l-169 256h52l144 -232z" />
    <glyph glyph-name="uni2179" unicode="&#x2179;" 
d="M641 504h52l-164 -256l183 -263h-56l-153 240l-159 -240h-56l188 263l-169 256h52l144 -232z" />
    <glyph glyph-name="arrowleft" unicode="&#x2190;" 
d="M1000 368v-32h-820q79 -89 76 -178q-103 138 -256 196q154 57 256 192q-3 -105 -76 -178h820z" />
    <glyph glyph-name="arrowup" unicode="&#x2191;" 
d="M516 -150h-32v819q-92 -79 -178 -75q136 100 194 256q56 -152 194 -256q-106 3 -178 75v-819z" />
    <glyph glyph-name="arrowright" unicode="&#x2192;" 
d="M0 368h820q-72 72 -76 178q102 -135 256 -192q-153 -58 -256 -196q-5 81 76 178h-820v32z" />
    <glyph glyph-name="arrowdown" unicode="&#x2193;" 
d="M516 850v-820q68 73 178 77q-137 -104 -194 -257q-59 157 -194 257q80 5 178 -77v820h32z" />
    <glyph glyph-name="element" unicode="&#x2208;" 
d="M807 92v-55h-359q-252 5 -256 304q4 298 256 303h359v-56h-365q-182 -12 -185 -218h532v-54h-532q0 -222 181 -224h369z" />
    <glyph glyph-name="product" unicode="&#x220f;" 
d="M792 628v-626q-4 -87 97 -81v-23h-306v23q100 -6 96 81v693h-358v-693q-4 -87 97 -81v-23h-307v23q101 -6 97 81v626q-1 98 -95 99v23h773v-23q-93 -1 -94 -99z" />
    <glyph glyph-name="summation" unicode="&#x2211;" 
d="M762 743l6 -159h-20q-1 5 -4 13q-15 107 -149 101h-263l273 -358l-294 -339h371q57 -1 82 22q26 19 53 91h23q-32 -121 -43 -224q-8 1 -24 4q-35 7 -53 7h-503q-10 0 -29 -2q-19 -1 -29 -1l349 398l-347 454q13 -1 38 -3q45 -4 66 -4h497z" />
    <glyph glyph-name="radical" unicode="&#x221a;" 
d="M485 -9l498 859h17v-40l-532 -924h-21l-321 612l-113 -63l-13 32l185 103z" />
    <glyph glyph-name="proportional" unicode="&#x221d;" 
d="M185 322q9 178 162 185q108 -3 160 -139q65 136 195 132q97 -3 108 -29q-1 -15 -15 -16q-9 0 -27 1q-19 2 -28 2q-130 10 -192 -148q-5 -10 -8 -15q66 -107 190 -102q25 0 59 7q2 1 3 1q24 1 23 -13q-25 -43 -111 -49q-127 -2 -177 131q-63 -142 -177 -137
q-157 6 -165 189zM215 313q5 -115 117 -120q91 -5 153 135l9 18q-49 101 -146 101q-126 -7 -133 -134z" />
    <glyph glyph-name="infinity" unicode="&#x221e;" 
d="M499 372q81 77 129 94q76 33 139 -7q61 -43 63 -127q-11 -134 -147 -132q-87 8 -170 93q-10 10 -14 13q-4 -3 -14 -13q-79 -85 -170 -93q-136 -2 -147 134q2 80 65 124q63 39 137 8q48 -17 129 -94zM466 339q-82 71 -119 81q-118 34 -129 -86q1 -41 36 -68q37 -25 80 -16
q54 6 122 79zM532 339l10 -10q68 -73 122 -79q103 -10 116 84q-9 122 -129 86q-37 -10 -119 -81z" />
    <glyph glyph-name="angle" unicode="&#x2220;" 
d="M159 2l475 628l33 -26l-423 -560h596v-42h-681z" />
    <glyph glyph-name="uni2225" unicode="&#x2225;" 
d="M423 -136h-38l492 976h38zM123 -136h-38l492 976h38z" />
    <glyph glyph-name="logicaland" unicode="&#x2227;" 
d="M781 -31h-51l-218 727l-242 -719h-51l261 782h63z" />
    <glyph glyph-name="logicalor" unicode="&#x2228;" 
d="M269 751l230 -731l235 731h47l-250 -793h-63l-250 793h51z" />
    <glyph glyph-name="intersection" unicode="&#x2229;" 
d="M748 -1v362q-6 223 -248 230q-242 -7 -248 -230v-362h-58v361q9 279 306 289q297 -10 306 -289v-361h-58z" />
    <glyph glyph-name="union" unicode="&#x222a;" 
d="M748 267v362h58v-355q-7 -287 -306 -294q-299 7 -306 294v355h58v-362q5 -223 248 -229q243 6 248 229z" />
    <glyph glyph-name="integral" unicode="&#x222b;" 
d="M477 181l12 330q10 220 103 225q28 -1 30 -26q-1 -19 -21 -20q-11 0 -23 14q-6 8 -10 8q-37 9 -43 -198l-12 -336q-10 -344 -105 -328q-28 2 -31 30q1 19 21 20q11 0 23 -14q6 -8 10 -8q37 -17 46 303z" />
    <glyph glyph-name="uni222E" unicode="&#x222e;" 
d="M521 391l-7 -185q77 11 82 93q-4 76 -75 92zM478 208l7 184q-75 -14 -79 -93q3 -75 72 -91zM525 514l-2 -99q92 -19 97 -116q-6 -103 -107 -117v-4q-5 -136 -21 -220q-22 -106 -84 -108q-28 2 -31 30q1 19 21 20q11 0 23 -14q6 -8 10 -8q39 -2 44 229l2 76
q-90 21 -95 116q5 100 103 117l6 95q12 227 100 227q28 -2 31 -28q-1 -19 -21 -20q-11 0 -23 14q-6 8 -10 8q-41 4 -43 -198z" />
    <glyph glyph-name="therefore" unicode="&#x2234;" 
d="M500 482q-52 6 -58 58q6 52 58 58q52 -6 58 -58q-6 -52 -58 -58zM722 102q-52 6 -58 58q6 52 58 58q52 -6 58 -58q-6 -52 -58 -58zM278 102q-52 6 -58 58q6 52 58 58q52 -6 58 -58q-6 -52 -58 -58z" />
    <glyph glyph-name="uni2235" unicode="&#x2235;" 
d="M278 482q-52 6 -58 58q6 52 58 58q52 -6 58 -58q-6 -52 -58 -58zM500 102q-52 6 -58 58q6 52 58 58q52 -6 58 -58q-6 -52 -58 -58zM722 482q-52 6 -58 58q6 52 58 58q52 -6 58 -58q-6 -52 -58 -58z" />
    <glyph glyph-name="uni2236" unicode="&#x2236;" 
d="M539 596v-90h-78v90h78zM539 195v-90h-78v90h78z" />
    <glyph glyph-name="uni2237" unicode="&#x2237;" 
d="M669 547q45 -5 50 -50q-5 -45 -50 -50q-45 5 -50 50q5 45 50 50zM669 193q45 -5 50 -50q-5 -45 -50 -50q-45 5 -50 50q5 45 50 50zM331 547q45 -5 50 -50q-5 -45 -50 -50q-45 5 -50 50q5 45 50 50zM331 193q45 -5 50 -50q-5 -45 -50 -50q-45 5 -50 50q5 45 50 50z" />
    <glyph glyph-name="uni223D" unicode="&#x223d;" 
d="M883 193h-42q-9 207 -157 213q-69 0 -168 -101q-74 -98 -196 -113q-193 -2 -204 256h42q5 -210 156 -214q108 12 175 103q70 97 195 111q188 -5 199 -255z" />
    <glyph glyph-name="approxequal" unicode="&#x2248;" 
d="M830 462v-54q-87 -70 -167 -67q-63 0 -173 42q-98 38 -149 38q-77 2 -171 -75v54q87 70 167 67q63 0 173 -42q98 -38 149 -38q77 -2 171 75zM830 311v-54q-87 -70 -167 -67q-63 0 -173 42q-98 38 -149 38q-77 2 -171 -75v54q87 70 167 67q63 0 173 -42q98 -38 149 -38
q77 -2 171 75z" />
    <glyph glyph-name="uni224C" unicode="&#x224c;" 
d="M891 47h-799v42h799v-42zM891 189h-799v42h799v-42zM883 339h-42q-9 207 -157 213q-69 0 -168 -101q-74 -98 -196 -113q-193 -2 -204 256h42q5 -210 156 -214q108 12 175 103q70 97 195 111q188 -5 199 -255z" />
    <glyph glyph-name="notequal" unicode="&#x2260;" 
d="M396 224h-229v46h265l79 104h-344v46h379l177 232h51l-177 -232h236v-46h-271l-79 -104h350v-46h-386l-174 -236h-51z" />
    <glyph glyph-name="equivalence" unicode="&#x2261;" 
d="M830 434h-660v46h660v-46zM830 160h-660v46h660v-46zM830 297h-660v46h660v-46z" />
    <glyph glyph-name="lessequal" unicode="&#x2264;" 
d="M839 229v-60l-678 187v61l678 189v-60l-594 -158v-2zM839 46v-59l-678 191v60z" />
    <glyph glyph-name="greaterequal" unicode="&#x2265;" 
d="M839 238v-60l-678 -191v59zM839 417v-61l-678 -187v60l594 157v2l-594 158v60z" />
    <glyph glyph-name="uni226E" unicode="&#x226e;" 
d="M443 237l87 205l-302 -119zM832 81v-46l-366 147l-83 -194h-46l89 210l-258 104v42l386 154l65 154h46l-56 -132l223 89v-47l-247 -98l-103 -243z" />
    <glyph glyph-name="uni226F" unicode="&#x226f;" 
d="M382 -12h-46l60 140l-228 -91v47l251 99l102 241l-353 141v46l370 -148l80 189h46l-87 -205l255 -103v-42l-381 -152zM560 408l-86 -203l298 118z" />
    <glyph glyph-name="uni2299" unicode="&#x2299;" 
d="M500 298q-52 6 -58 58q6 52 58 58q52 -6 58 -58q-6 -52 -58 -58zM500 34q293 27 320 322q-27 295 -320 322q-293 -27 -320 -322q27 -295 320 -322zM500 720q332 -32 364 -364q-32 -332 -364 -364q-332 32 -364 364q32 332 364 364z" />
    <glyph glyph-name="perpendicular" unicode="&#x22a5;" 
d="M202 44h276v586h44v-586h276v-42h-596v42z" />
    <glyph glyph-name="uni2312" unicode="&#x2312;" 
d="M916 227l-4 -8q-14 0 -55 44q-71 126 -347 173q-11 1 -24 0q-276 -47 -344 -173q-40 -44 -54 -44l-4 8q143 282 414 281q281 4 418 -281z" />
    <glyph glyph-name="uni2460" unicode="&#x2460;" 
d="M70 351q24 -405 429 -430q411 21 431 430q-24 407 -431 430q-400 -29 -429 -430zM36 351q36 426 463 464q435 -30 465 -464q-27 -435 -465 -464q-432 33 -463 464zM547 14h-45v580q-57 -55 -171 -82v39q167 40 182 139h34v-676z" />
    <glyph glyph-name="uni2461" unicode="&#x2461;" 
d="M693 65v-40h-387v28q56 141 194 261q154 125 143 211q-5 132 -134 137q-103 -1 -146 -127l-45 12q50 154 195 155q169 -9 177 -177q12 -108 -155 -240q-127 -104 -177 -220h335zM70 351q24 -405 429 -430q411 21 431 430q-24 407 -431 430q-400 -29 -429 -430zM36 351
q36 426 463 464q435 -30 465 -464q-27 -435 -465 -464q-432 33 -463 464z" />
    <glyph glyph-name="uni2462" unicode="&#x2462;" 
d="M298 177l45 8q30 -134 148 -131q149 3 151 156q-5 137 -164 141h-46v39h46q134 6 140 135q-4 125 -124 129q-106 -1 -136 -118l-46 6q37 151 182 152q166 -6 171 -170q-3 -108 -104 -154q127 -42 127 -160q-4 -190 -198 -195q-160 -2 -192 162zM70 351q24 -405 429 -430
q411 21 431 430q-24 407 -431 430q-400 -29 -429 -430zM36 351q36 426 463 464q435 -30 465 -464q-27 -435 -465 -464q-432 33 -463 464z" />
    <glyph glyph-name="uni2463" unicode="&#x2463;" 
d="M311 232h240v383zM677 193h-82v-166h-44v166h-283v28l295 474h32v-463h82v-39zM70 351q24 -405 429 -430q411 21 431 430q-24 407 -431 430q-400 -29 -429 -430zM36 351q36 426 463 464q435 -30 465 -464q-27 -435 -465 -464q-432 33 -463 464z" />
    <glyph glyph-name="uni2464" unicode="&#x2464;" 
d="M296 151l47 14q38 -124 154 -124q151 6 155 197q-6 176 -153 185q-92 0 -149 -88l-28 4l35 356h312v-41h-282l-27 -256q61 67 147 66q184 -13 194 -226q-7 -228 -205 -237q-153 1 -200 150zM70 351q24 -405 429 -430q411 21 431 430q-24 407 -431 430q-400 -29 -429 -430
zM36 351q36 426 463 464q435 -30 465 -464q-27 -435 -465 -464q-432 33 -463 464z" />
    <glyph glyph-name="uni2465" unicode="&#x2465;" 
d="M345 260q8 -204 157 -215q141 7 147 193q-8 170 -144 180q-143 -13 -160 -158zM686 571l-45 -14q-38 106 -128 107q-155 -11 -170 -303q70 98 163 98q180 -13 191 -221q-9 -222 -195 -233q-206 1 -207 326q5 362 218 373q129 -1 173 -133zM70 351q24 -405 429 -430
q411 21 431 430q-24 407 -431 430q-400 -29 -429 -430zM36 351q36 426 463 464q435 -30 465 -464q-27 -435 -465 -464q-432 33 -463 464z" />
    <glyph glyph-name="uni2466" unicode="&#x2466;" 
d="M691 664v-29q-217 -373 -241 -650h-49q18 249 241 639h-343v40h392zM70 351q24 -405 429 -430q411 21 431 430q-24 407 -431 430q-400 -29 -429 -430zM36 351q36 426 463 464q435 -30 465 -464q-27 -435 -465 -464q-432 33 -463 464z" />
    <glyph glyph-name="uni2467" unicode="&#x2467;" 
d="M514 350q-146 -7 -154 -157q7 -141 154 -148q150 3 154 148q-7 150 -154 157zM514 660q-123 -6 -129 -137q7 -129 129 -136q126 3 129 136q-6 130 -129 137zM338 523q10 165 176 174q165 -11 176 -174q1 -100 -94 -155q120 -45 119 -175q-8 -178 -201 -186
q-194 7 -201 186q3 127 120 175q-93 50 -95 155zM70 351q24 -405 429 -430q411 21 431 430q-24 407 -431 430q-400 -29 -429 -430zM36 351q36 426 463 464q435 -30 465 -464q-27 -435 -465 -464q-432 33 -463 464z" />
    <glyph glyph-name="uni2468" unicode="&#x2468;" 
d="M650 442q-8 202 -157 213q-137 -9 -145 -184q4 -177 139 -184q150 10 163 155zM311 115l46 12q38 -84 134 -83q154 -1 159 293q-56 -93 -168 -91q-173 11 -182 219q10 218 190 230q209 2 208 -323q2 -373 -208 -368q-137 0 -179 111zM70 351q24 -405 429 -430
q411 21 431 430q-24 407 -431 430q-400 -29 -429 -430zM36 351q36 426 463 464q435 -30 465 -464q-27 -435 -465 -464q-432 33 -463 464z" />
    <glyph glyph-name="uni2469" unicode="&#x2469;" 
d="M349 23h-44v560q-54 -52 -165 -79v36q161 41 176 135h33v-652zM617 52q146 -5 144 293q0 293 -144 292q-141 -1 -141 -292q-1 -295 141 -293zM617 675q187 -5 189 -330q0 -330 -189 -330q-187 -3 -186 330q4 323 186 330zM70 351q24 -405 429 -430q411 21 431 430
q-24 407 -431 430q-400 -29 -429 -430zM36 351q36 426 463 464q435 -30 465 -464q-27 -435 -465 -464q-432 33 -463 464z" />
    <glyph glyph-name="uni2474" unicode="&#x2474;" 
d="M223 -111h-32q-139 223 -138 460q1 235 137 461h32q-131 -228 -127 -461q-4 -236 128 -460zM778 810h32q136 -226 137 -461q1 -237 -138 -460h-32q132 224 128 460q4 233 -127 461zM526 -5h-48v618q-58 -57 -182 -88v42q178 43 194 148h36v-720z" />
    <glyph glyph-name="uni2475" unicode="&#x2475;" 
d="M720 37v-42h-412v30q60 151 207 278q164 134 152 224q-5 141 -143 146q-109 -1 -155 -135l-48 13q52 164 208 164q180 -9 188 -188q12 -116 -166 -255q-133 -110 -188 -235h357zM223 -111h-32q-139 223 -138 460q1 235 137 461h32q-131 -228 -127 -461q-4 -236 128 -460z
M778 810h32q136 -226 137 -461q1 -237 -138 -460h-32q132 224 128 460q4 233 -127 461z" />
    <glyph glyph-name="uni2476" unicode="&#x2476;" 
d="M279 159l49 9q31 -145 158 -141q160 3 163 168q-6 146 -177 151h-48v42h48q146 6 152 146q-5 134 -134 139q-114 -2 -146 -128l-50 7q39 161 196 163q179 -6 184 -182q-3 -117 -112 -166q136 -46 137 -172q-5 -205 -214 -210q-172 -1 -206 174zM223 -111h-32
q-139 223 -138 460q1 235 137 461h32q-131 -228 -127 -461q-4 -236 128 -460zM778 810h32q136 -226 137 -461q1 -237 -138 -460h-32q132 224 128 460q4 233 -127 461z" />
    <glyph glyph-name="uni2477" unicode="&#x2477;" 
d="M319 216h258v413zM713 174h-88v-179h-48v179h-305v30l318 511h35v-499h88v-42zM223 -111h-32q-139 223 -138 460q1 235 137 461h32q-131 -228 -127 -461q-4 -236 128 -460zM778 810h32q136 -226 137 -461q1 -237 -138 -460h-32q132 224 128 460q4 233 -127 461z" />
    <glyph glyph-name="uni2478" unicode="&#x2478;" 
d="M289 141l48 14q41 -129 160 -128q158 6 162 204q-7 183 -159 192q-96 1 -154 -92l-30 4l37 370h323v-42h-293l-27 -266q62 70 152 69q190 -14 201 -235q-7 -237 -213 -246q-159 1 -207 156zM223 -111h-32q-139 223 -138 460q1 235 137 461h32q-131 -228 -127 -461
q-4 -236 128 -460zM778 810h32q136 -226 137 -461q1 -237 -138 -460h-32q132 224 128 460q4 233 -127 461z" />
    <glyph glyph-name="uni2479" unicode="&#x2479;" 
d="M339 251q8 -212 164 -224q148 7 154 201q-8 178 -151 189q-150 -14 -167 -166zM695 576l-47 -14q-39 110 -133 111q-162 -11 -178 -316q73 101 170 102q188 -14 200 -231q-9 -232 -204 -243q-216 1 -216 341q5 378 228 389q135 -1 180 -139zM223 -111h-32
q-139 223 -138 460q1 235 137 461h32q-131 -228 -127 -461q-4 -236 128 -460zM778 810h32q136 -226 137 -461q1 -237 -138 -460h-32q132 224 128 460q4 233 -127 461z" />
    <glyph glyph-name="uni247A" unicode="&#x247a;" 
d="M717 705v-30q-227 -392 -252 -680h-52q21 262 252 668h-358v42h410zM223 -111h-32q-139 223 -138 460q1 235 137 461h32q-131 -228 -127 -461q-4 -236 128 -460zM778 810h32q136 -226 137 -461q1 -237 -138 -460h-32q132 224 128 460q4 233 -127 461z" />
    <glyph glyph-name="uni247B" unicode="&#x247b;" 
d="M505 347q-155 -7 -163 -165q7 -150 163 -157q159 3 163 157q-7 158 -163 165zM505 675q-131 -7 -137 -144q7 -137 137 -144q133 3 136 144q-6 137 -136 144zM318 531q11 174 187 184q175 -11 186 -184q1 -107 -100 -164q128 -49 127 -185q-8 -189 -213 -197
q-206 7 -213 197q4 133 127 185q-99 52 -101 164zM223 -111h-32q-139 223 -138 460q1 235 137 461h32q-131 -228 -127 -461q-4 -236 128 -460zM778 810h32q136 -226 137 -461q1 -237 -138 -460h-32q132 224 128 460q4 233 -127 461z" />
    <glyph glyph-name="uni247C" unicode="&#x247c;" 
d="M666 448q-9 213 -166 225q-145 -10 -154 -195q5 -187 148 -195q158 10 172 165zM308 102l48 13q41 -90 142 -88q163 0 168 310q-59 -98 -177 -96q-184 12 -193 231q11 230 201 243q220 1 219 -341q3 -395 -219 -389q-145 0 -189 117zM223 -111h-32q-139 223 -138 460
q1 235 137 461h32q-131 -228 -127 -461q-4 -236 128 -460zM778 810h32q136 -226 137 -461q1 -237 -138 -460h-32q132 224 128 460q4 233 -127 461z" />
    <glyph glyph-name="uni247D" unicode="&#x247d;" 
d="M354 -5h-46v618q-53 -57 -172 -88v42q167 42 184 148h34v-720zM637 27q152 -5 150 323q1 325 -150 323q-149 0 -149 -323q-1 -326 149 -323zM637 715q194 -6 197 -365q0 -364 -197 -365q-198 -2 -197 365q4 357 197 365zM223 -111h-32q-139 223 -138 460q1 235 137 461
h32q-131 -228 -127 -461q-4 -236 128 -460zM778 810h32q136 -226 137 -461q1 -237 -138 -460h-32q132 224 128 460q4 233 -127 461z" />
    <glyph glyph-name="uni247E" unicode="&#x247e;" 
d="M396 -5h-48v618q-58 -57 -182 -88v42q178 43 194 148h36v-720zM716 -5h-48v618q-58 -57 -182 -88v42q178 43 194 148h36v-720zM223 -111h-32q-139 223 -138 460q1 235 137 461h32q-131 -228 -127 -461q-4 -236 128 -460zM778 810h32q136 -226 137 -461q1 -237 -138 -460
h-32q132 224 128 460q4 233 -127 461z" />
    <glyph glyph-name="uni247F" unicode="&#x247f;" 
d="M351 -5h-46v618q-57 -58 -175 -88v42q171 43 186 148h35v-720zM807 37v-42h-396v30q57 150 199 278q157 134 146 224q-5 140 -137 146q-106 -1 -149 -135l-46 13q50 164 199 164q173 -9 181 -188q12 -116 -159 -255q-127 -109 -181 -235h343zM223 -111h-32
q-139 223 -138 460q1 235 137 461h32q-131 -228 -127 -461q-4 -236 128 -460zM778 810h32q136 -226 137 -461q1 -237 -138 -460h-32q132 224 128 460q4 233 -127 461z" />
    <glyph glyph-name="uni2480" unicode="&#x2480;" 
d="M359 -5h-48v618q-58 -57 -182 -88v42q178 43 194 148h36v-720zM412 159l49 9q31 -145 158 -141q160 3 163 168q-6 146 -177 151h-48v42h48q146 6 152 146q-5 134 -134 139q-114 -2 -146 -128l-50 7q39 161 196 163q179 -6 184 -182q-3 -117 -112 -166q136 -46 137 -172
q-5 -205 -214 -210q-172 -1 -206 174zM223 -111h-32q-139 223 -138 460q1 235 137 461h32q-131 -228 -127 -461q-4 -236 128 -460zM778 810h32q136 -226 137 -461q1 -237 -138 -460h-32q132 224 128 460q4 233 -127 461z" />
    <glyph glyph-name="uni2481" unicode="&#x2481;" 
d="M356 -5h-48v618q-58 -57 -182 -88v42q178 43 194 148h36v-720zM448 216h258v413zM842 174h-88v-179h-48v179h-305v30l318 511h35v-499h88v-42zM223 -111h-32q-139 223 -138 460q1 235 137 461h32q-131 -228 -127 -461q-4 -236 128 -460zM778 810h32q136 -226 137 -461
q1 -237 -138 -460h-32q132 224 128 460q4 233 -127 461z" />
    <glyph glyph-name="uni2482" unicode="&#x2482;" 
d="M354 -5h-47v618q-55 -57 -175 -88v42q172 43 187 148h35v-720zM406 141l46 14q39 -129 155 -128q152 6 156 204q-6 183 -154 192q-92 1 -148 -92l-29 4l36 370h311v-42h-282l-26 -266q59 70 146 69q183 -14 194 -235q-7 -237 -205 -246q-153 1 -200 156zM223 -111h-32
q-139 223 -138 460q1 235 137 461h32q-131 -228 -127 -461q-4 -236 128 -460zM778 810h32q136 -226 137 -461q1 -237 -138 -460h-32q132 224 128 460q4 233 -127 461z" />
    <glyph glyph-name="uni2483" unicode="&#x2483;" 
d="M355 -5h-48v618q-58 -58 -181 -88v42q176 43 193 148h36v-720zM470 251q8 -212 163 -224q147 7 153 201q-8 178 -150 189q-149 -14 -166 -166zM824 576l-47 -14q-39 110 -132 111q-161 -11 -177 -316q71 101 169 102q187 -14 199 -231q-9 -232 -203 -243q-215 0 -215 341
q5 378 227 389q133 -1 179 -139zM223 -111h-32q-139 223 -138 460q1 235 137 461h32q-131 -228 -127 -461q-4 -236 128 -460zM778 810h32q136 -226 137 -461q1 -237 -138 -460h-32q132 224 128 460q4 233 -127 461z" />
    <glyph glyph-name="uni2484" unicode="&#x2484;" 
d="M356 -5h-48v618q-58 -57 -182 -88v42q178 43 194 148h36v-720zM808 705v-30q-227 -392 -252 -680h-52q21 262 252 668h-358v42h410zM223 -111h-32q-139 223 -138 460q1 235 137 461h32q-131 -228 -127 -461q-4 -236 128 -460zM778 810h32q136 -226 137 -461
q1 -237 -138 -460h-32q132 224 128 460q4 233 -127 461z" />
    <glyph glyph-name="uni2485" unicode="&#x2485;" 
d="M356 -5h-48v618q-58 -57 -182 -88v42q178 43 194 148h36v-720zM620 347q-155 -7 -163 -165q7 -150 163 -157q159 3 163 157q-7 158 -163 165zM620 675q-131 -7 -137 -144q7 -137 137 -144q133 3 136 144q-6 137 -136 144zM433 531q11 174 187 184q175 -11 186 -184
q1 -107 -100 -164q128 -49 127 -185q-8 -189 -213 -197q-206 7 -213 197q4 133 127 185q-99 52 -101 164zM223 -111h-32q-139 223 -138 460q1 235 137 461h32q-131 -228 -127 -461q-4 -236 128 -460zM778 810h32q136 -226 137 -461q1 -237 -138 -460h-32q132 224 128 460
q4 233 -127 461z" />
    <glyph glyph-name="uni2486" unicode="&#x2486;" 
d="M359 -5h-47v618q-56 -58 -176 -88v42q171 42 188 148h35v-720zM777 448q-9 213 -161 225q-140 -10 -149 -195q5 -187 143 -195q154 10 167 165zM430 102l47 13q39 -90 137 -88q158 0 163 310q-57 -98 -172 -96q-177 12 -186 231q10 230 194 243q213 2 212 -341
q3 -395 -212 -389q-141 0 -183 117zM223 -111h-32q-139 223 -138 460q1 235 137 461h32q-131 -228 -127 -461q-4 -236 128 -460zM778 810h32q136 -226 137 -461q1 -237 -138 -460h-32q132 224 128 460q4 233 -127 461z" />
    <glyph glyph-name="uni2487" unicode="&#x2487;" 
d="M514 37v-42h-341v30q50 153 171 278q136 134 126 224q-4 140 -117 146q-90 -1 -130 -135l-38 13q41 164 171 164q148 -9 155 -188q10 -115 -137 -255q-108 -108 -157 -235h297zM698 27q133 -5 131 323q0 324 -131 323q-129 -1 -129 -323q-1 -326 129 -323zM698 715
q170 -6 172 -365q0 -364 -172 -365t-171 365q3 357 171 365zM223 -111h-32q-139 223 -138 460q1 235 137 461h32q-131 -228 -127 -461q-4 -236 128 -460zM778 810h32q136 -226 137 -461q1 -237 -138 -460h-32q132 224 128 460q4 233 -127 461z" />
    <glyph glyph-name="uni2488" unicode="&#x2488;" 
d="M395 -15h-48v618q-58 -57 -182 -88v42q178 43 194 148h36v-720zM834 73v-88h-78v88h78z" />
    <glyph glyph-name="uni2489" unicode="&#x2489;" 
d="M544 27v-42h-412v30q60 151 207 278q164 134 152 224q-5 141 -143 146q-109 -1 -155 -135l-48 13q52 164 208 164q180 -9 188 -188q12 -116 -166 -255q-133 -110 -188 -235h357zM868 73v-88h-78v88h78z" />
    <glyph glyph-name="uni248A" unicode="&#x248a;" 
d="M137 149l49 9q31 -145 158 -141q160 3 163 168q-6 146 -177 151h-48v42h48q146 6 152 146q-5 134 -134 139q-114 -2 -146 -128l-50 7q39 161 196 163q179 -6 184 -182q-3 -117 -112 -166q136 -46 137 -172q-5 -205 -214 -210q-172 -1 -206 174zM862 73v-88h-78v88h78z
" />
    <glyph glyph-name="uni248B" unicode="&#x248b;" 
d="M171 206h258v413zM565 164h-88v-179h-48v179h-305v30l318 511h35v-499h88v-42zM876 73v-88h-78v88h78z" />
    <glyph glyph-name="uni248C" unicode="&#x248c;" 
d="M127 131l48 14q41 -129 160 -128q158 6 162 204q-7 183 -159 192q-96 1 -154 -92l-30 4l37 370h323v-42h-293l-27 -266q62 70 152 69q190 -14 201 -235q-7 -237 -213 -246q-159 1 -207 156zM872 73v-88h-78v88h78z" />
    <glyph glyph-name="uni248D" unicode="&#x248d;" 
d="M194 241q8 -212 164 -224q148 7 154 201q-8 178 -151 189q-150 -14 -167 -166zM550 566l-47 -14q-39 110 -133 111q-162 -11 -178 -316q73 101 170 102q188 -14 200 -231q-9 -232 -204 -243q-216 1 -216 341q5 378 228 389q135 -1 180 -139zM857 73v-88h-78v88h78z" />
    <glyph glyph-name="uni248E" unicode="&#x248e;" 
d="M587 695v-30q-227 -392 -252 -680h-52q21 262 252 668h-358v42h410zM822 73v-88h-78v88h78z" />
    <glyph glyph-name="uni248F" unicode="&#x248f;" 
d="M349 337q-155 -7 -163 -165q7 -150 163 -157q159 3 163 157q-7 158 -163 165zM349 665q-131 -7 -137 -144q7 -137 137 -144q133 3 136 144q-6 137 -136 144zM162 521q11 174 187 184q175 -11 186 -184q1 -107 -100 -164q128 -49 127 -185q-8 -189 -213 -197
q-206 7 -213 197q4 133 127 185q-99 52 -101 164zM863 73v-88h-78v88h78z" />
    <glyph glyph-name="uni2490" unicode="&#x2490;" 
d="M521 438q-9 213 -166 225q-145 -10 -154 -195q5 -187 148 -195q158 10 172 165zM163 92l48 13q41 -90 142 -88q163 0 168 310q-59 -98 -177 -96q-184 12 -193 231q11 230 201 243q220 1 219 -341q3 -395 -219 -389q-145 0 -189 117zM849 73v-88h-78v88h78z" />
    <glyph glyph-name="uni2491" unicode="&#x2491;" 
d="M270 -15h-48v618q-58 -57 -182 -88v42q178 43 194 148h36v-720zM959 73v-88h-78v88h78zM559 17q160 -5 158 323q1 325 -158 323q-157 -1 -157 -323q-1 -326 157 -323zM559 705q205 -6 208 -365q0 -364 -208 -365q-208 -3 -207 365q4 357 207 365z" />
    <glyph glyph-name="uni2492" unicode="&#x2492;" 
d="M270 -15h-48v618q-58 -57 -182 -88v42q178 43 194 148h36v-720zM959 73v-88h-78v88h78zM610 -15h-48v618q-58 -57 -182 -88v42q178 43 194 148h36v-720z" />
    <glyph glyph-name="uni2493" unicode="&#x2493;" 
d="M260 -15h-48v618q-58 -57 -182 -88v42q178 43 194 148h36v-720zM969 73v-88h-78v88h78zM770 27v-42h-412v30q60 151 207 278q164 134 152 224q-5 141 -143 146q-109 -1 -155 -135l-48 13q52 164 208 164q180 -9 188 -188q12 -116 -166 -255q-133 -110 -188 -235h357z" />
    <glyph glyph-name="uni2494" unicode="&#x2494;" 
d="M270 -15h-48v618q-58 -57 -182 -88v42q178 43 194 148h36v-720zM959 73v-88h-78v88h78zM359 149l49 9q31 -145 158 -141q160 3 163 168q-6 146 -177 151h-48v42h48q146 6 152 146q-5 134 -134 139q-114 -2 -146 -128l-50 7q39 161 196 163q179 -6 184 -182
q-3 -117 -112 -166q136 -46 137 -172q-5 -205 -214 -210q-172 -1 -206 174z" />
    <glyph glyph-name="uni2495" unicode="&#x2495;" 
d="M270 -15h-48v618q-58 -57 -182 -88v42q178 43 194 148h36v-720zM959 73v-88h-78v88h78zM399 206h258v413zM793 164h-88v-179h-48v179h-305v30l318 511h35v-499h88v-42z" />
    <glyph glyph-name="uni2496" unicode="&#x2496;" 
d="M270 -15h-48v618q-58 -57 -182 -88v42q178 43 194 148h36v-720zM959 73v-88h-78v88h78zM379 131l48 14q41 -129 160 -128q158 6 162 204q-7 183 -159 192q-96 1 -154 -92l-30 4l37 370h323v-42h-293l-27 -266q62 70 152 69q190 -14 201 -235q-7 -237 -213 -246
q-159 1 -207 156z" />
    <glyph glyph-name="uni2497" unicode="&#x2497;" 
d="M270 -15h-48v618q-58 -57 -182 -88v42q178 43 194 148h36v-720zM959 73v-88h-78v88h78zM423 241q8 -212 164 -224q148 7 154 201q-8 178 -151 189q-150 -14 -167 -166zM779 566l-47 -14q-39 110 -133 111q-162 -11 -178 -316q73 101 170 102q188 -14 200 -231
q-9 -232 -204 -243q-216 1 -216 341q5 378 228 389q135 -1 180 -139z" />
    <glyph glyph-name="uni2498" unicode="&#x2498;" 
d="M290 -15h-48v618q-58 -57 -182 -88v42q178 43 194 148h36v-720zM939 73v-88h-78v88h78zM819 695v-30q-227 -392 -252 -680h-52q21 262 252 668h-358v42h410z" />
    <glyph glyph-name="uni2499" unicode="&#x2499;" 
d="M270 -15h-48v618q-58 -57 -182 -88v42q178 43 194 148h36v-720zM959 73v-88h-78v88h78zM578 337q-155 -7 -163 -165q7 -150 163 -157q159 3 163 157q-7 158 -163 165zM578 665q-131 -7 -137 -144q7 -137 137 -144q133 3 136 144q-6 137 -136 144zM391 521q11 174 187 184
q175 -11 186 -184q1 -107 -100 -164q128 -49 127 -185q-8 -189 -213 -197q-206 7 -213 197q4 133 127 185q-99 52 -101 164z" />
    <glyph glyph-name="uni249A" unicode="&#x249a;" 
d="M270 -15h-48v618q-58 -57 -182 -88v42q178 43 194 148h36v-720zM959 73v-88h-78v88h78zM724 438q-9 213 -166 225q-145 -10 -154 -195q5 -187 148 -195q158 10 172 165zM366 92l48 13q41 -90 142 -88q163 0 168 310q-59 -98 -177 -96q-184 12 -193 231q11 230 201 243
q220 1 219 -341q3 -395 -219 -389q-145 0 -189 117z" />
    <glyph glyph-name="uni249B" unicode="&#x249b;" 
d="M434 27v-42h-412v30q60 151 207 278q164 134 152 224q-5 141 -143 146q-109 -1 -155 -135l-48 13q52 164 208 164q180 -9 188 -188q12 -116 -166 -255q-133 -110 -188 -235h357zM978 73v-88h-78v88h78zM659 17q160 -5 158 323q1 325 -158 323q-157 -1 -157 -323
q-1 -326 157 -323zM659 705q205 -6 208 -365q0 -364 -208 -365q-208 -3 -207 365q4 357 207 365z" />
    <glyph glyph-name="SF100000" unicode="&#x2500;" 
d="M0 375h1000v-51h-1000v51z" />
    <glyph glyph-name="uni2501" unicode="&#x2501;" 
d="M0 406h1000v-113h-1000v113z" />
    <glyph glyph-name="SF110000" unicode="&#x2502;" 
d="M474 850h51v-1000h-51v1000z" />
    <glyph glyph-name="uni2503" unicode="&#x2503;" 
d="M438 850h113v-1000h-113v1000z" />
    <glyph glyph-name="uni2504" unicode="&#x2504;" 
d="M54 375h220v-51h-220v51zM390 375h220v-51h-220v51zM726 375h220v-51h-220v51z" />
    <glyph glyph-name="uni2505" unicode="&#x2505;" 
d="M54 406h220v-113h-220v113zM390 406h220v-113h-220v113zM726 406h220v-113h-220v113z" />
    <glyph glyph-name="uni2506" unicode="&#x2506;" 
d="M469 796h51v-220h-51v220zM520 460v-220h-51v220h51zM520 124v-220h-51v220h51z" />
    <glyph glyph-name="uni2507" unicode="&#x2507;" 
d="M551 796v-220h-113v220h113zM551 460v-220h-113v220h113zM551 124v-220h-113v220h113z" />
    <glyph glyph-name="uni2508" unicode="&#x2508;" 
d="M47 375h156v-51h-156v51zM297 375h156v-51h-156v51zM547 375h156v-51h-156v51zM797 375h156v-51h-156v51z" />
    <glyph glyph-name="uni2509" unicode="&#x2509;" 
d="M47 406h156v-113h-156v113zM297 406h156v-113h-156v113zM547 406h156v-113h-156v113zM797 406h156v-113h-156v113z" />
    <glyph glyph-name="uni250A" unicode="&#x250a;" 
d="M520 803v-156h-51v156h51zM520 553v-156h-51v156h51zM520 303v-156h-51v156h51zM520 53v-156h-51v156h51z" />
    <glyph glyph-name="uni250B" unicode="&#x250b;" 
d="M551 803v-156h-113v156h113zM551 553v-156h-113v156h113zM551 303v-156h-113v156h113zM551 53v-156h-113v156h113z" />
    <glyph glyph-name="SF010000" unicode="&#x250c;" 
d="M1000 375v-51h-475v-474h-51v525h526z" />
    <glyph glyph-name="uni250D" unicode="&#x250d;" 
d="M1000 406v-113h-475v-443h-51v556h526z" />
    <glyph glyph-name="uni250E" unicode="&#x250e;" 
d="M1000 375v-51h-444v-474h-113v525h557z" />
    <glyph glyph-name="uni250F" unicode="&#x250f;" 
d="M1000 406v-113h-444v-443h-113v556h557z" />
    <glyph glyph-name="SF030000" unicode="&#x2510;" 
d="M0 324v51h525v-525h-51v474h-474z" />
    <glyph glyph-name="uni2511" unicode="&#x2511;" 
d="M0 406h525v-556h-51v443h-474v113z" />
    <glyph glyph-name="uni2512" unicode="&#x2512;" 
d="M0 375h556v-525h-113v474h-443v51z" />
    <glyph glyph-name="uni2513" unicode="&#x2513;" 
d="M0 406h556v-556h-113v443h-443v113z" />
    <glyph glyph-name="SF020000" unicode="&#x2514;" 
d="M525 850v-475h475v-51h-526v526h51z" />
    <glyph glyph-name="uni2515" unicode="&#x2515;" 
d="M525 850v-444h475v-113h-526v557h51z" />
    <glyph glyph-name="uni2516" unicode="&#x2516;" 
d="M556 850v-475h444v-51h-557v526h113z" />
    <glyph glyph-name="uni2517" unicode="&#x2517;" 
d="M556 850v-444h444v-113h-557v557h113z" />
    <glyph glyph-name="SF040000" unicode="&#x2518;" 
d="M0 375h474v475h51v-526h-525v51z" />
    <glyph glyph-name="uni2519" unicode="&#x2519;" 
d="M0 406h474v444h51v-557h-525v113z" />
    <glyph glyph-name="uni251A" unicode="&#x251a;" 
d="M0 375h443v475h113v-526h-556v51z" />
    <glyph glyph-name="uni251B" unicode="&#x251b;" 
d="M0 406h443v444h113v-557h-556v113z" />
    <glyph glyph-name="SF080000" unicode="&#x251c;" 
d="M525 850v-475h475v-51h-475v-474h-51v1000h51z" />
    <glyph glyph-name="uni251D" unicode="&#x251d;" 
d="M525 850v-444h475v-113h-475v-443h-51v1000h51z" />
    <glyph glyph-name="uni251E" unicode="&#x251e;" 
d="M556 850v-475h444v-51h-475v-474h-51v506h-31v494h113z" />
    <glyph glyph-name="uni251F" unicode="&#x251f;" 
d="M525 850v-475h475v-51h-444v-474h-113v494h31v506h51z" />
    <glyph glyph-name="uni2520" unicode="&#x2520;" 
d="M556 850v-475h444v-51h-444v-474h-113v1000h113z" />
    <glyph glyph-name="uni2521" unicode="&#x2521;" 
d="M556 850v-444h444v-113h-475v-443h-51v443h-31v557h113z" />
    <glyph glyph-name="uni2522" unicode="&#x2522;" 
d="M525 850v-444h475v-113h-444v-443h-113v556h31v444h51z" />
    <glyph glyph-name="uni2523" unicode="&#x2523;" 
d="M556 850v-444h444v-113h-444v-443h-113v1000h113z" />
    <glyph glyph-name="SF090000" unicode="&#x2524;" 
d="M525 850v-1000h-51v474h-474v51h474v475h51z" />
    <glyph glyph-name="uni2525" unicode="&#x2525;" 
d="M525 850v-1000h-51v443h-474v113h474v444h51z" />
    <glyph glyph-name="uni2526" unicode="&#x2526;" 
d="M556 850v-494h-31v-506h-51v474h-474v51h443v475h113z" />
    <glyph glyph-name="uni2527" unicode="&#x2527;" 
d="M525 850v-506h31v-494h-113v474h-443v51h474v475h51z" />
    <glyph glyph-name="uni2528" unicode="&#x2528;" 
d="M556 850v-1000h-113v474h-443v51h443v475h113z" />
    <glyph glyph-name="uni2529" unicode="&#x2529;" 
d="M556 850v-557h-31v-443h-51v443h-474v113h443v444h113z" />
    <glyph glyph-name="uni252A" unicode="&#x252a;" 
d="M525 850v-444h31v-556h-113v443h-443v113h474v444h51z" />
    <glyph glyph-name="uni252B" unicode="&#x252b;" 
d="M556 850v-1000h-113v443h-443v113h443v444h113z" />
    <glyph glyph-name="SF060000" unicode="&#x252c;" 
d="M0 375h1000v-51h-475v-474h-51v474h-474v51z" />
    <glyph glyph-name="uni252D" unicode="&#x252d;" 
d="M0 406h525v-31h475v-51h-475v-476h-51v445h-474v113z" />
    <glyph glyph-name="uni252E" unicode="&#x252e;" 
d="M0 375h474v31h526v-113h-475v-443h-51v474h-474v51z" />
    <glyph glyph-name="uni252F" unicode="&#x252f;" 
d="M0 406h1000v-113h-475v-443h-51v443h-474v113z" />
    <glyph glyph-name="uni2530" unicode="&#x2530;" 
d="M0 375h1000v-51h-444v-474h-113v474h-443v51z" />
    <glyph glyph-name="uni2531" unicode="&#x2531;" 
d="M0 406h556v-31h444v-51h-444v-474h-113v443h-443v113z" />
    <glyph glyph-name="uni2532" unicode="&#x2532;" 
d="M0 375h443v31h557v-113h-444v-443h-113v474h-443v51z" />
    <glyph glyph-name="uni2533" unicode="&#x2533;" 
d="M0 406h1000v-113h-444v-443h-113v443h-443v113z" />
    <glyph glyph-name="SF070000" unicode="&#x2534;" 
d="M0 375h474v475h51v-475h475v-51h-1000v51z" />
    <glyph glyph-name="uni2535" unicode="&#x2535;" 
d="M525 850v-475h475v-51h-475v-31h-525v113h474v444h51z" />
    <glyph glyph-name="uni2536" unicode="&#x2536;" 
d="M525 850v-444h475v-113h-526v31h-474v51h474v475h51z" />
    <glyph glyph-name="uni2537" unicode="&#x2537;" 
d="M525 850v-444h475v-113h-1000v113h474v444h51z" />
    <glyph glyph-name="uni2538" unicode="&#x2538;" 
d="M556 850v-475h444v-51h-1000v51h443v475h113z" />
    <glyph glyph-name="uni2539" unicode="&#x2539;" 
d="M556 850v-475h444v-51h-444v-31h-556v113h443v444h113z" />
    <glyph glyph-name="uni253A" unicode="&#x253a;" 
d="M556 850v-444h444v-113h-557v31h-443v51h443v475h113z" />
    <glyph glyph-name="uni253B" unicode="&#x253b;" 
d="M556 850v-444h444v-113h-1000v113h443v444h113z" />
    <glyph glyph-name="SF050000" unicode="&#x253c;" 
d="M525 850v-475h475v-51h-475v-474h-51v474h-474v51h474v475h51z" />
    <glyph glyph-name="uni253D" unicode="&#x253d;" 
d="M525 850v-475h475v-51h-475v-474h-51v443h-474v113h474v444h51z" />
    <glyph glyph-name="uni253E" unicode="&#x253e;" 
d="M525 850v-444h475v-113h-475v-443h-51v474h-474v51h474v475h51z" />
    <glyph glyph-name="uni253F" unicode="&#x253f;" 
d="M525 850v-444h475v-113h-475v-443h-51v443h-474v113h474v444h51z" />
    <glyph glyph-name="uni2540" unicode="&#x2540;" 
d="M556 850v-475h444v-51h-475v-474h-51v474h-474v51h443v475h113z" />
    <glyph glyph-name="uni2541" unicode="&#x2541;" 
d="M525 850v-475h475v-51h-444v-474h-113v474h-443v51h474v475h51z" />
    <glyph glyph-name="uni2542" unicode="&#x2542;" 
d="M556 850v-475h444v-51h-444v-474h-113v474h-443v51h443v475h113z" />
    <glyph glyph-name="uni2543" unicode="&#x2543;" 
d="M556 850v-475h444v-51h-475v-474h-51v443h-474v113h443v444h113z" />
    <glyph glyph-name="uni2544" unicode="&#x2544;" 
d="M556 850v-444h444v-113h-475v-443h-51v474h-474v51h443v475h113z" />
    <glyph glyph-name="uni2545" unicode="&#x2545;" 
d="M525 850v-475h475v-51h-444v-474h-113v443h-443v113h474v444h51z" />
    <glyph glyph-name="uni2546" unicode="&#x2546;" 
d="M525 850v-444h475v-113h-444v-443h-113v474h-443v51h474v475h51z" />
    <glyph glyph-name="uni2547" unicode="&#x2547;" 
d="M556 850v-444h444v-113h-475v-443h-51v443h-474v113h443v444h113z" />
    <glyph glyph-name="uni2548" unicode="&#x2548;" 
d="M525 850v-444h475v-113h-444v-443h-113v443h-443v113h474v444h51z" />
    <glyph glyph-name="uni2549" unicode="&#x2549;" 
d="M556 850v-475h444v-51h-444v-474h-113v443h-443v113h443v444h113z" />
    <glyph glyph-name="uni254A" unicode="&#x254a;" 
d="M556 850v-444h444v-113h-444v-443h-113v474h-443v51h443v475h113z" />
    <glyph glyph-name="uni254B" unicode="&#x254b;" 
d="M556 850v-444h444v-113h-444v-443h-113v443h-443v113h443v444h113z" />
    <glyph glyph-name="filledbox" unicode="&#x25a0;" 
d="M900 -64h-800v800h800v-800z" />
    <glyph glyph-name="H22073" unicode="&#x25a1;" 
d="M900 -64h-800v800h800v-800zM144 692v-712h712v712h-712z" />
    <glyph glyph-name="triagup" unicode="&#x25b2;" 
d="M865 0h-730l365 736z" />
    <glyph glyph-name="uni25B3" unicode="&#x25b3;" 
d="M500 639l-295 -597h590zM865 0h-730l365 736z" />
    <glyph glyph-name="uni25C6" unicode="&#x25c6;" 
d="M500 -7l-375 375l375 375l375 -375z" />
    <glyph glyph-name="uni25C7" unicode="&#x25c7;" 
d="M500 51l317 317l-317 317l-317 -317zM500 -7l-375 375l375 375l375 -375z" />
    <glyph glyph-name="circle" unicode="&#x25cb;" 
d="M500 34q293 27 320 322q-27 295 -320 322q-293 -27 -320 -322q27 -295 320 -322zM500 720q332 -32 364 -364q-32 -332 -364 -364q-332 32 -364 364q32 332 364 364z" />
    <glyph glyph-name="uni25CE" unicode="&#x25ce;" 
d="M501 720q331 -32 363 -363q-32 -333 -363 -365q-334 32 -366 365q32 331 366 363zM501 694q-311 -29 -341 -337q29 -310 341 -339q308 30 338 339q-30 307 -338 337zM501 608q230 -22 252 -250q-22 -229 -252 -251q-232 22 -254 251q22 228 254 250zM501 581
q-209 -19 -228 -223q19 -205 228 -224q206 19 225 224q-19 204 -225 223z" />
    <glyph glyph-name="H18533" unicode="&#x25cf;" 
d="M500 720q332 -32 364 -364q-32 -332 -364 -364q-332 32 -364 364q32 332 364 364z" />
    <glyph glyph-name="uni2605" unicode="&#x2605;" 
d="M500 698l92 -271h280l-226 -174l81 -270l-227 160l-227 -160l81 270l-226 174h280z" />
    <glyph glyph-name="uni2606" unicode="&#x2606;" 
d="M323 47l176 133l178 -129l2 2l-69 211l181 133v2h-223l-68 213h-2l-69 -213h-219v-2l175 -133l-64 -215zM499 698l93 -271h280l-226 -174l81 -270l-228 166l-227 -166l80 270l-224 174h279z" />
    <glyph glyph-name="female" unicode="&#x2640;" 
d="M323 504q14 -162 177 -177q163 15 177 177q-14 162 -177 177q-163 -15 -177 -177zM330 76v44h148v165q-184 32 -199 219q19 202 221 221q202 -19 221 -221q-15 -187 -199 -219v-165h148v-44h-148v-121h-44v121h-148z" />
    <glyph glyph-name="male" unicode="&#x2642;" 
d="M323 178q14 -162 177 -177q163 15 177 177q-14 162 -177 177q-163 -15 -177 -177zM328 536l-12 17q6 5 19 14q120 88 156 157h20q39 -75 174 -164l-11 -23q-88 37 -152 98v-237q184 -33 199 -220q-19 -202 -221 -221q-202 19 -221 221q15 186 199 220v236
q-65 -56 -150 -98z" />
    <glyph glyph-name="uni3000" unicode="&#x3000;" 
 />
    <glyph glyph-name="uni3001" unicode="&#x3001;" 
d="M157 105l40 33l146 -171l-44 -37z" />
    <glyph glyph-name="uni3002" unicode="&#x3002;" 
d="M183 31q4 -62 66 -65q65 2 67 65q-3 65 -67 68q-63 -3 -66 -68zM147 31q8 96 102 104q95 -7 103 -104q-7 -94 -103 -101q-94 8 -102 101z" />
    <glyph glyph-name="uni3003" unicode="&#x3003;" 
d="M269 148l198 420h51l-207 -420h-42zM483 148l199 420h50l-207 -420h-42z" />
    <glyph glyph-name="uni3005" unicode="&#x3005;" 
d="M167 202l-35 27q158 202 253 493l46 -14q-50 -145 -83 -212h462v-40l-246 -347l138 -91l-25 -36l-335 221l27 34l157 -102l227 315h-427q-75 -140 -159 -248z" />
    <glyph glyph-name="uni3008" unicode="&#x3008;" 
d="M744 740l-226 -389l226 -391v-70l-271 460l271 460v-70z" />
    <glyph glyph-name="uni3009" unicode="&#x3009;" 
d="M256 740v70l271 -460l-271 -460v70l226 391z" />
    <glyph glyph-name="uni300A" unicode="&#x300a;" 
d="M671 740l-226 -389l226 -391v-70l-271 460l271 460v-70zM813 740l-226 -389l226 -391v-70l-271 460l271 460v-70z" />
    <glyph glyph-name="uni300B" unicode="&#x300b;" 
d="M329 740v70l271 -460l-271 -460v70l226 391zM187 740v70l271 -460l-271 -460v70l226 391z" />
    <glyph glyph-name="uni300C" unicode="&#x300c;" 
d="M525 -110h-50v920h210v-40h-160v-880z" />
    <glyph glyph-name="uni300D" unicode="&#x300d;" 
d="M476 810h49v-920h-210v39h161v881z" />
    <glyph glyph-name="uni300E" unicode="&#x300e;" 
d="M444 810h291v-105h-179v-815h-112v920zM464 790v-880h72v815h179v65h-251z" />
    <glyph glyph-name="uni300F" unicode="&#x300f;" 
d="M556 -110h-291v105h179v815h112v-920zM536 -90v880h-72v-815h-179v-65h251z" />
    <glyph glyph-name="uni3010" unicode="&#x3010;" 
d="M680 -110h-224v920h223q-131 -174 -134 -457q-1 -296 135 -463z" />
    <glyph glyph-name="uni3011" unicode="&#x3011;" 
d="M317 810h223v-920h-224q136 169 135 462q-4 283 -134 458z" />
    <glyph glyph-name="uni3013" unicode="&#x3013;" 
d="M214 626h571v-156h-571v156zM214 302h571v-156h-571v156z" />
    <glyph glyph-name="uni3014" unicode="&#x3014;" 
d="M684 -110l-209 72v780l208 68v-40l-160 -64v-712l161 -65v-39z" />
    <glyph glyph-name="uni3015" unicode="&#x3015;" 
d="M315 -110v39l161 65v712l-160 64v40l208 -68v-780z" />
    <glyph glyph-name="uni3016" unicode="&#x3016;" 
d="M447 -110v920h241q-126 -231 -137 -449q6 -273 156 -471h-260zM467 790v-880h200q-131 184 -136 451q-1 180 121 429h-185z" />
    <glyph glyph-name="uni3017" unicode="&#x3017;" 
d="M552 -110h-260q150 198 156 471q-11 218 -137 449h241v-920zM532 790h-185q122 -249 121 -429q-5 -267 -136 -451h200v880z" />
    <glyph glyph-name="uni3041" unicode="&#x3041;" 
d="M212 450v38h178q0 23 1 74q1 14 1 22l41 -1l-4 -95h341v-38h-342l-2 -134q84 25 173 19q9 29 15 55l39 -8l-15 -51q168 -37 170 -195q-1 -188 -271 -218l-20 39q249 15 251 182q-3 130 -142 160q-133 -318 -333 -351q-104 2 -106 107q11 161 201 248q-1 9 -1 36v37v74
h-175zM225 55q1 -67 64 -68q64 0 126 63q-20 105 -25 216q-159 -82 -165 -211zM428 281q2 -113 20 -200q93 100 140 223q-84 6 -160 -23z" />
    <glyph glyph-name="uni3042" unicode="&#x3042;" 
d="M881 208v-1q-2 -228 -334 -270l-21 42q310 21 312 231q-4 166 -183 203q-161 -385 -418 -439q-121 3 -125 131q11 196 252 308q-4 85 -1 189h-221v41h222l3 120h45l-5 -119h427v-41h-428q-3 -85 -3 -175q101 35 222 26q5 16 14 51q3 11 5 17l43 -9q-1 -3 -2 -9
q-7 -25 -17 -56q208 -43 213 -240zM613 416q-92 15 -208 -28q4 -144 27 -258q121 125 181 286zM396 97q-22 118 -29 277q-208 -101 -214 -272q4 -83 80 -87q80 1 163 82z" />
    <glyph glyph-name="uni3043" unicode="&#x3043;" 
d="M212 297q0 81 6 217h45q-10 -112 -10 -201q-2 -184 33 -258q28 -64 69 -67q53 -6 107 171l36 -30q-65 -191 -143 -184q-64 2 -105 96q-39 88 -38 256zM613 429l33 23q136 -132 174 -389l-44 -13q-25 241 -163 379z" />
    <glyph glyph-name="uni3044" unicode="&#x3044;" 
d="M144 404q0 133 7 285h46q-5 -59 -7 -123q-1 -31 -2 -66v-82q-1 -196 42 -301q36 -80 89 -85q72 2 135 211l38 -34q-77 -225 -173 -224q-79 2 -129 118q-46 111 -46 301zM646 586l36 24q164 -169 214 -479l-48 -13q-34 301 -202 468z" />
    <glyph glyph-name="uni3045" unicode="&#x3045;" 
d="M323 526l8 39q207 -5 369 -36l-8 -39q-159 32 -369 36zM221 304l-8 40q221 43 317 40q212 -4 217 -173q-7 -244 -391 -284l-20 39q365 28 369 244q-3 134 -168 136q-108 2 -316 -42z" />
    <glyph glyph-name="uni3046" unicode="&#x3046;" 
d="M283 698l9 42q250 -6 457 -46l-12 -41q-219 43 -454 45zM156 422l-10 43q259 51 396 49q256 -6 264 -208q-5 -304 -484 -356l-22 42q458 37 460 313q-7 164 -207 169q-146 2 -397 -52z" />
    <glyph glyph-name="uni3047" unicode="&#x3047;" 
d="M207 -75l-32 36q198 189 410 387l-349 -19l-2 39l400 19l22 -33q-109 -87 -225 -201q32 12 58 12q70 -2 91 -83l10 -52q6 -40 31 -51q23 -13 98 -12q60 0 119 7v-41q-55 -4 -123 -4q-88 0 -121 19q-35 18 -44 72l-8 45q-13 73 -64 69q-65 14 -271 -209zM349 524l13 38
q183 -14 347 -50l-13 -38q-144 36 -347 50z" />
    <glyph glyph-name="uni3048" unicode="&#x3048;" 
d="M315 696l15 41q254 -23 427 -64l-13 -40q-199 46 -429 63zM134 -51l-37 38q330 315 518 489l-442 -24l-3 43l495 24l25 -39q-71 -57 -191 -168q-72 -66 -111 -100q55 28 98 29q77 -5 104 -81q10 -29 23 -103q6 -41 38 -52q29 -12 123 -12q74 0 145 8v-44q-56 -5 -151 -5
q-113 0 -151 21q-41 20 -50 83q-13 83 -25 106q-21 48 -71 45q-64 0 -140 -62q-59 -51 -197 -196z" />
    <glyph glyph-name="uni3049" unicode="&#x3049;" 
d="M189 55q10 87 180 166v190h-176v39h176v127h39v-127h182v-39h-182v-175q107 39 196 39q184 -5 189 -158q2 -173 -251 -182l-12 39q226 0 223 146q-4 117 -149 120q-89 0 -196 -43v-205q0 -56 -51 -55q-149 13 -168 118zM227 55q18 -67 123 -78q21 -3 19 25v179
q-136 -68 -142 -126zM639 498l26 28q114 -75 186 -153l-29 -31q-98 108 -183 156z" />
    <glyph glyph-name="uni304A" unicode="&#x304a;" 
d="M115 107q11 105 225 204v244h-220v41h220v160h42v-160h227v-41h-227v-228q135 52 254 51q217 -9 227 -189q4 -220 -310 -229l-14 42q283 -2 281 187q-7 148 -186 152q-118 1 -252 -53v-261q0 -66 -68 -66q-181 26 -199 146zM156 106q24 -82 151 -102q37 -4 33 36v230
q-176 -88 -184 -164zM678 661l28 29q125 -74 225 -182l-29 -36q-96 114 -224 189z" />
    <glyph glyph-name="uni304B" unicode="&#x304b;" 
d="M155 -42l-41 20q130 270 195 537q-104 -5 -211 -14q0 7 -1 20t-1 20q142 10 222 14q21 86 43 207l45 -8q-21 -106 -45 -197q16 0 50 1q41 2 65 2q159 4 156 -168q0 -202 -29 -316q-26 -118 -117 -111q-78 0 -134 5l-9 44q61 -8 136 -8q38 -1 54 17q18 18 32 73
q25 94 25 292q3 139 -110 134q-45 0 -128 -4q-67 -272 -197 -560zM917 316l-40 -25q-77 216 -197 361q6 3 18 10t18 10q119 -144 201 -356z" />
    <glyph glyph-name="uni304C" unicode="&#x304c;" 
d="M150 -47l-41 20q130 270 195 537q-104 -5 -211 -14q0 7 -1 20t-1 20q142 10 222 14q21 86 43 207l45 -8q-21 -106 -45 -197q16 0 50 1q41 2 65 2q159 4 156 -168q0 -202 -29 -316q-26 -118 -117 -111q-78 0 -134 5l-9 44q61 -8 136 -8q38 -1 54 17q18 18 32 73
q25 94 25 292q3 139 -110 134q-45 0 -128 -4q-67 -272 -197 -560zM855 663l-28 -20q-50 71 -100 118l29 21q48 -44 99 -119zM934 717l-28 -20q-30 49 -97 116l27 20q64 -66 98 -116zM912 311l-40 -25q-71 211 -197 361l36 20q130 -161 201 -356z" />
    <glyph glyph-name="uni304D" unicode="&#x304d;" 
d="M149 633l331 12q-12 29 -33 90q-5 15 -8 23l42 5q19 -60 41 -116l303 12l2 -39l-291 -11q31 -74 64 -138q42 1 126 5q85 4 126 6l2 -40l-235 -9q80 -139 177 -225l-24 -31q-142 85 -316 85q-214 -7 -232 -129q12 -132 254 -138q130 0 268 22l-4 -44q-126 -19 -254 -19
q-300 6 -308 177q14 155 274 168q143 -4 251 -52q-75 88 -127 185l-405 -16l-1 38l386 15q-37 75 -63 139l-345 -13z" />
    <glyph glyph-name="uni304E" unicode="&#x304e;" 
d="M783 747l28 21q61 -63 97 -121l-27 -20q-48 71 -98 120zM865 799l27 19q54 -53 96 -117l-27 -20q-29 49 -96 118zM139 628l331 12q-12 29 -33 90q-5 15 -8 23l42 5q19 -60 41 -116l299 12l2 -39l-287 -11q31 -74 64 -138q42 1 126 5q85 4 126 6l2 -40l-235 -9
q80 -139 177 -225l-24 -31q-142 85 -316 85q-214 -7 -232 -129q12 -132 254 -138q130 0 268 22l-4 -44q-126 -19 -254 -19q-300 6 -308 177q14 155 274 168q126 -1 251 -52q-75 88 -127 185l-405 -16l-1 38l386 15q-37 75 -63 139l-345 -13z" />
    <glyph glyph-name="uni304F" unicode="&#x304f;" 
d="M201 355q1 30 46 63q257 175 445 339l35 -33q-163 -139 -458 -340q-17 -12 -17 -24q-1 -13 17 -24q299 -188 503 -365l-35 -35q-229 197 -492 362q-44 27 -44 57z" />
    <glyph glyph-name="uni3050" unicode="&#x3050;" 
d="M196 355q1 30 46 63q257 175 445 339l35 -33q-163 -139 -458 -340q-17 -12 -17 -24q-1 -13 17 -24q299 -188 503 -365l-35 -35q-229 197 -492 362q-44 27 -44 57zM689 577l29 21q48 -44 99 -119l-27 -20q-53 73 -101 118zM771 629l27 19q54 -52 98 -115l-27 -20
q-34 54 -98 116z" />
    <glyph glyph-name="uni3051" unicode="&#x3051;" 
d="M159 278q0 232 38 455l45 -5q-39 -215 -39 -450q0 -153 15 -301l-45 -5q-14 162 -14 306zM392 543h303q0 68 -2 199h46v-16q2 -114 2 -183h177v-39h-177v-174q20 -331 -271 -400l-26 40q154 38 202 114q52 71 50 258v162h-304v39z" />
    <glyph glyph-name="uni3052" unicode="&#x3052;" 
d="M154 273q0 232 38 455l45 -5q-39 -215 -39 -450q0 -153 15 -301l-45 -5q-14 162 -14 306zM786 762l29 16q41 -50 85 -127l-29 -16q-49 84 -85 127zM871 805l27 15q47 -55 83 -123l-28 -17q-33 67 -82 125zM387 538h303q0 68 -2 199h46q0 -27 1 -80q0 -79 1 -119h177v-39
h-177v-174q20 -331 -271 -400l-26 40q154 38 202 114q52 71 50 258v162h-304v39z" />
    <glyph glyph-name="uni3053" unicode="&#x3053;" 
d="M155 178q-2 72 60 159l39 -17q-57 -75 -55 -140q7 -137 279 -139q197 0 358 34l4 -45q-166 -33 -359 -31q-323 1 -326 179zM223 669h564v-43h-564v43z" />
    <glyph glyph-name="uni3054" unicode="&#x3054;" 
d="M150 173q-2 72 60 159l41 -17q-58 -77 -57 -140q7 -137 279 -139q197 0 358 34l4 -45q-166 -33 -359 -31q-323 1 -326 179zM218 664h564v-43h-564v43zM777 751l29 21q48 -44 99 -119l-27 -20q-53 73 -101 118zM859 803l27 19q54 -52 98 -115l-27 -20q-34 54 -98 116z" />
    <glyph glyph-name="uni3055" unicode="&#x3055;" 
d="M131 599l377 13q-26 64 -53 142l44 8q25 -80 53 -148l318 11l2 -41l-302 -11q95 -205 227 -314l-27 -35q-148 93 -332 90q-213 -8 -226 -149q11 -158 283 -163q115 0 247 13l-10 -44q-116 -10 -237 -10q-320 3 -327 202q13 175 270 190q134 2 267 -58q-108 117 -180 277
l-393 -14z" />
    <glyph glyph-name="uni3056" unicode="&#x3056;" 
d="M126 594l377 13q-26 64 -53 142l44 8q25 -80 53 -148l318 11l2 -41l-302 -11q95 -205 227 -314l-27 -35q-148 93 -332 90q-213 -8 -226 -149q11 -158 283 -163q115 0 247 13l-10 -44q-116 -10 -237 -10q-320 3 -327 202q13 175 270 190q136 2 265 -56q-106 114 -178 275
q-65 -2 -196 -7t-197 -7zM732 789l28 20q59 -60 95 -118l-27 -20q-37 59 -96 118zM822 824l27 20q53 -56 93 -116l-27 -20q-30 56 -93 116z" />
    <glyph glyph-name="uni3057" unicode="&#x3057;" 
d="M228 182l17 562h51l-21 -570q-3 -169 182 -172q254 0 394 301l32 -39q-156 -296 -429 -305q-232 1 -226 223z" />
    <glyph glyph-name="uni3058" unicode="&#x3058;" 
d="M228 182l17 562h51l-21 -570q-3 -169 182 -172q254 0 394 301l32 -39q-156 -296 -429 -305q-232 1 -226 223zM710 728l27 20q59 -58 100 -117l-30 -23q-35 57 -97 120zM628 675l27 20q59 -58 100 -117l-30 -23q-35 57 -97 120z" />
    <glyph glyph-name="uni3059" unicode="&#x3059;" 
d="M87 627h482v137h44l-1 -137h302v-41h-302l-1 -214q28 -72 28 -139q-2 -258 -379 -294l-20 42q197 9 289 90q79 72 66 198q-48 -105 -156 -111q-161 7 -170 153q12 149 181 159q69 0 121 -47l-1 163h-483v41zM312 312q7 -109 129 -115q121 12 132 132q-10 97 -122 103
q-129 -7 -139 -120z" />
    <glyph glyph-name="uni305A" unicode="&#x305a;" 
d="M307 307q7 -109 129 -115q121 13 132 133q-10 97 -122 102q-129 -7 -139 -120zM856 826l27 20q53 -56 93 -116l-27 -20q-35 57 -93 116zM82 622h482v137h44l-1 -137h302v-41h-302l-1 -214q28 -72 28 -139q-2 -258 -379 -294l-20 42q197 9 289 90q79 72 66 198
q-48 -105 -156 -111q-161 7 -170 153q12 149 181 159q69 0 121 -47l-1 163h-483v41zM768 789l27 20q53 -56 93 -116l-27 -20q-35 57 -93 116z" />
    <glyph glyph-name="uni305B" unicode="&#x305b;" 
d="M671 738h44v-207l208 4v-41l-208 -3v-143q5 -136 -112 -130h-59q-23 0 -52 1l-8 45q44 -2 117 -2q75 -7 70 85v143l-361 -6v-286q-3 -113 47 -144q46 -37 202 -36q136 0 272 21l3 -45q-131 -17 -275 -17q-176 -2 -232 44q-63 44 -61 174v288l-196 -4v40l196 4v203h44
v-202l361 7v207z" />
    <glyph glyph-name="uni305C" unicode="&#x305c;" 
d="M671 738h44v-207l208 4v-41l-208 -3v-143q5 -136 -112 -130h-59q-23 0 -52 1l-8 45q44 -2 117 -2q75 -7 70 85v143l-361 -6v-286q-3 -113 47 -144q46 -37 202 -36q136 0 272 21l3 -45q-131 -17 -275 -17q-176 -2 -232 44q-63 44 -61 174v288l-196 -4v40l196 4v203h44
v-202l361 7v207zM942 676q-33 67 -82 125l28 16q44 -50 82 -124zM860 631q-34 66 -85 127l28 16q44 -54 86 -127z" />
    <glyph glyph-name="uni305D" unicode="&#x305d;" 
d="M85 350l147 23q242 145 440 308l-443 -12v41l497 12l19 -31q-210 -167 -445 -308q281 42 597 63l3 -41q-187 -2 -332 -84q-142 -80 -143 -186q7 -140 289 -143q11 0 36 1h31v-42q-23 -1 -61 -1q-330 4 -337 184q10 168 296 265q-327 -41 -589 -89z" />
    <glyph glyph-name="uni305E" unicode="&#x305e;" 
d="M760 758l27 20q54 -58 96 -119l-27 -20q-46 68 -96 119zM846 803l26 19q61 -64 94 -116l-26 -19q-38 59 -94 116zM80 345l147 23q242 145 440 308l-443 -12v41l497 12l19 -31q-210 -167 -445 -308q281 42 597 63l3 -41q-187 -2 -332 -84q-142 -80 -143 -186
q7 -140 289 -143q11 0 36 1h31v-42q-23 -1 -61 -1q-330 4 -337 184q10 168 296 265q-327 -41 -589 -89z" />
    <glyph glyph-name="uni305F" unicode="&#x305f;" 
d="M162 -38l-47 20q127 268 199 591h-217v40h225q15 75 24 147q9 -1 25 -3q17 -2 25 -2q-10 -61 -27 -142h216v-40h-226q-76 -330 -197 -611zM714 -30q-254 1 -257 143q-1 56 36 116q7 -3 20 -8q14 -5 20 -8q-33 -51 -32 -96q-1 -105 211 -105q105 0 187 10v-44
q-75 -8 -185 -8zM522 411l-3 41q112 15 236 15q62 0 121 -5v-41q-58 5 -132 5q-125 0 -222 -15z" />
    <glyph glyph-name="uni3060" unicode="&#x3060;" 
d="M157 -38l-47 20q127 268 199 591h-217v40h225q15 75 24 147q9 -1 25 -3q17 -2 25 -2q-10 -61 -27 -142h216v-40h-226q-76 -330 -197 -611zM709 -30q-254 1 -257 143q-1 56 36 116q7 -3 20 -8q14 -5 20 -8q-33 -51 -32 -96q-1 -105 211 -105q105 0 187 10v-44
q-75 -8 -185 -8zM517 411l-3 41q112 15 236 15q62 0 121 -5v-41q-58 5 -132 5q-125 0 -222 -15zM867 614l-28 -21q-52 77 -99 122l29 23q65 -69 98 -124zM949 669l-29 -21q-33 57 -96 120l27 21q49 -51 98 -120z" />
    <glyph glyph-name="uni3061" unicode="&#x3061;" 
d="M116 607h280q21 74 37 152l44 -5q-18 -84 -38 -147h415v-41h-428q-61 -177 -151 -304q172 119 334 119q231 -11 242 -192q-7 -228 -410 -231q-84 0 -144 3l-13 46q80 -8 160 -8q355 2 361 189q-6 150 -201 155q-195 2 -400 -180l-28 31q124 127 207 372h-267v41z" />
    <glyph glyph-name="uni3062" unicode="&#x3062;" 
d="M716 767l28 20q46 -50 95 -118l-27 -20q-52 74 -96 118zM806 802l27 20q53 -56 93 -116l-27 -20q-28 53 -93 116zM111 602h280q21 74 37 152l44 -5q-18 -84 -38 -147h415v-41h-428q-61 -177 -151 -304q172 119 334 119q231 -11 242 -192q-7 -228 -410 -231q-84 0 -144 3
l-13 46q80 -8 160 -8q355 2 361 189q-6 150 -201 155q-195 2 -400 -180l-28 31q124 127 207 372h-267v41z" />
    <glyph glyph-name="uni3063" unicode="&#x3063;" 
d="M175 376l-8 43q268 58 398 55q233 -8 243 -210q-6 -165 -173 -248q-106 -44 -268 -57l-18 44q174 12 267 52q147 68 149 208q-4 168 -204 171q-122 3 -386 -58z" />
    <glyph glyph-name="uni3064" unicode="&#x3064;" 
d="M98 525l-10 46q324 71 499 68q276 -11 294 -254q2 -338 -546 -383l-18 48q521 27 517 334q-10 204 -248 212q-178 3 -488 -71z" />
    <glyph glyph-name="uni3065" unicode="&#x3065;" 
d="M748 728l28 21q61 -63 97 -121l-27 -20q-48 71 -98 120zM830 780l27 19q54 -53 96 -117l-27 -20q-29 49 -96 118zM93 520l-10 46q324 71 499 68q276 -11 294 -254q2 -338 -546 -383l-18 48q521 27 517 334q-10 204 -248 212q-178 3 -488 -71z" />
    <glyph glyph-name="uni3066" unicode="&#x3066;" 
d="M104 653l780 39v-45q-109 0 -192 -30q-279 -124 -298 -346q-4 -259 403 -265v-46q-448 11 -448 311q24 254 341 377l-584 -38q0 7 -1 21q-1 15 -1 22z" />
    <glyph glyph-name="uni3067" unicode="&#x3067;" 
d="M104 653l780 39v-45q-109 0 -192 -30q-279 -124 -298 -346q-4 -259 403 -265v-46q-448 11 -448 311q24 254 341 377l-584 -38q0 7 -1 21q-1 15 -1 22zM737 498l29 21q60 -61 98 -120l-27 -20q-47 69 -100 119zM824 552l27 19q54 -52 98 -117l-28 -20q-36 58 -97 118z" />
    <glyph glyph-name="uni3068" unicode="&#x3068;" 
d="M167 164q-4 156 251 269q-58 148 -130 306l39 15q71 -151 132 -304q119 54 347 119l12 -43q-292 -79 -452 -165q-149 -89 -153 -196q-12 -154 345 -146q134 0 278 15v-47q-137 -10 -283 -10q-398 -7 -386 187z" />
    <glyph glyph-name="uni3069" unicode="&#x3069;" 
d="M162 159q-4 156 251 269q-58 148 -130 306l39 15q71 -151 132 -304q119 54 347 119l12 -43q-292 -79 -452 -165q-149 -89 -153 -196q-12 -154 345 -146q134 0 278 15v-47q-137 -10 -283 -10q-398 -7 -386 187zM702 728l28 20q63 -66 97 -116l-27 -21q-37 55 -98 117z
M787 775l27 20q58 -61 95 -114l-27 -20q-32 54 -95 114z" />
    <glyph glyph-name="uni306A" unicode="&#x306a;" 
d="M522 -54q-170 6 -177 133q11 121 173 132q71 0 141 -23l-9 270h43l9 -284q112 -44 210 -126l-22 -40q-95 85 -187 124q10 -186 -181 -186zM522 -14q141 -2 139 129l-1 34q-73 25 -135 24q-133 -5 -140 -94q7 -89 137 -93zM147 102l-43 24q115 189 187 440h-196v41h207
q20 68 33 154l47 -5q-12 -63 -35 -149h179v-41h-190q-71 -244 -189 -464zM912 536l-24 -37q-132 69 -256 113l22 34q139 -49 258 -110z" />
    <glyph glyph-name="uni306B" unicode="&#x306b;" 
d="M139 242q0 249 54 499l47 -6q-58 -241 -58 -497q0 -131 20 -281l-46 -4q-17 143 -17 289zM370 165q-2 49 33 112l39 -16q-29 -48 -29 -90q-5 -122 243 -121q118 0 233 14l3 -45q-120 -12 -243 -12q-275 1 -279 158zM414 627h449v-43h-449v43z" />
    <glyph glyph-name="uni306C" unicode="&#x306c;" 
d="M95 160q6 181 145 309q-35 109 -59 207q10 3 33 8q7 1 11 2q24 -111 48 -191q122 94 267 102q12 64 18 145l46 -4q-8 -67 -22 -139q282 -13 297 -305q1 -95 -25 -165q45 -35 101 -91l-30 -37q-37 46 -85 90q-64 -124 -196 -127q-135 7 -144 119q12 116 155 126
q80 0 165 -55q19 54 18 144q-13 259 -264 267q-57 -259 -196 -450q-84 -116 -172 -114q-108 6 -111 159zM136 171q1 -128 76 -129q73 4 158 129q-72 127 -118 257q-107 -107 -116 -257zM286 459l-1 -3q45 -137 110 -246q95 163 138 353q-135 -12 -247 -104zM540 84
q5 -79 106 -83q108 2 162 113q-73 57 -153 58q-107 -6 -115 -88z" />
    <glyph glyph-name="uni306D" unicode="&#x306d;" 
d="M71 149q108 137 191 229q0 70 2 141h-177v38h180q1 70 5 205h44q-8 -162 -11 -339q216 229 352 223q191 -6 195 -325q0 -113 -13 -185q63 -51 107 -104l-30 -33q-28 39 -89 94q-53 -124 -193 -129q-148 7 -156 122q10 118 162 127q81 1 161 -52q4 24 6 57q1 30 1 92
q-5 291 -151 297q-123 8 -354 -245q-1 -71 -1 -60v-35v-47q0 -156 4 -283h-47v78q-1 52 -1 79q0 89 2 224q-65 -75 -158 -200zM517 89q7 -82 114 -86q123 4 163 120q-77 54 -154 53q-114 -6 -123 -87z" />
    <glyph glyph-name="uni306E" unicode="&#x306e;" 
d="M105 286q31 381 424 404q341 -17 359 -345q1 -307 -359 -378l-23 41q342 61 336 338q-16 286 -305 305q-28 -294 -123 -484q-66 -126 -162 -128q-143 10 -147 247zM149 288q4 -195 105 -205q69 0 121 103q93 180 120 463q-325 -40 -346 -361z" />
    <glyph glyph-name="uni306F" unicode="&#x306f;" 
d="M144 239q-1 242 46 504l45 -5q-46 -236 -46 -490q0 -142 14 -294l-45 -5q-14 153 -14 290zM364 90q10 122 181 131q68 0 140 -26l-5 339h-304v41h303l-3 171h45l2 -171h189v-41h-189l4 -356q97 -45 187 -128l-28 -37q-86 87 -159 124q1 -86 -39 -127q-49 -49 -152 -49
q-164 8 -172 129zM407 90q8 -85 128 -90q162 -4 151 154q-71 29 -139 28q-134 -4 -140 -92z" />
    <glyph glyph-name="uni3070" unicode="&#x3070;" 
d="M139 234q-1 242 46 504l45 -5q-46 -236 -46 -490q0 -142 14 -294l-45 -5q-14 153 -14 290zM359 85q10 122 181 131q68 0 140 -26l-5 339h-304v41h303l-3 171h45l2 -171h189v-41h-189l4 -356q97 -45 187 -128l-28 -37q-86 87 -159 124q1 -86 -39 -127q-49 -49 -152 -49
q-164 8 -172 129zM402 85q8 -85 128 -90q162 -4 151 154q-71 29 -139 28q-134 -4 -140 -92zM778 769l29 16q41 -50 85 -127l-29 -16q-49 84 -85 127zM863 812l27 15q47 -55 83 -123l-28 -17q-33 67 -82 125z" />
    <glyph glyph-name="uni3071" unicode="&#x3071;" 
d="M402 85q8 -85 128 -90q162 -4 151 154q-71 29 -139 28q-134 -4 -140 -92zM785 734q9 85 94 94q86 -9 95 -94q-8 -87 -95 -95q-85 9 -94 95zM813 734q6 -61 66 -67q61 6 67 67q-6 60 -67 66q-60 -6 -66 -66zM139 234q-1 242 46 504l45 -5q-46 -236 -46 -490
q0 -142 14 -294l-45 -5q-14 153 -14 290zM359 85q10 122 181 131q68 0 140 -26l-5 339h-304v41h303l-3 171h45l2 -171h189v-41h-189l4 -356q97 -45 187 -128l-28 -37q-86 87 -159 124q1 -86 -39 -127q-49 -49 -152 -49q-164 8 -172 129z" />
    <glyph glyph-name="uni3072" unicode="&#x3072;" 
d="M122 689h321l14 -37q-40 -17 -79 -45q-181 -148 -189 -361q5 -238 234 -244q258 15 269 313q0 233 -60 372l39 17q114 -195 266 -316l-28 -36q-126 114 -221 270q44 -159 47 -309q-13 -334 -311 -354q-273 5 -277 287q14 249 237 405h-262v38z" />
    <glyph glyph-name="uni3073" unicode="&#x3073;" 
d="M735 722l29 21q48 -44 99 -119l-27 -20q-53 73 -101 118zM817 774l27 19q54 -52 98 -115l-27 -20q-34 54 -98 116zM117 684h321l14 -37q-40 -17 -79 -45q-181 -148 -189 -361q5 -238 234 -244q258 15 269 313q0 233 -60 372l39 17q114 -195 266 -316l-28 -36
q-126 114 -221 270q44 -159 47 -309q-13 -334 -311 -354q-273 5 -277 287q14 249 237 405h-262v38z" />
    <glyph glyph-name="uni3074" unicode="&#x3074;" 
d="M765 701q9 85 94 94q86 -9 95 -94q-8 -87 -95 -95q-85 9 -94 95zM793 701q6 -61 66 -67q61 6 67 67q-6 60 -67 66q-60 -6 -66 -66zM117 684h321l14 -37q-40 -17 -79 -45q-181 -148 -189 -361q5 -238 234 -244q258 15 269 313q0 233 -60 372l39 17q114 -195 266 -316
l-28 -36q-126 114 -221 270q44 -159 47 -309q-13 -334 -311 -354q-273 5 -277 287q14 249 237 405h-262v38z" />
    <glyph glyph-name="uni3075" unicode="&#x3075;" 
d="M269 674l10 40q243 -23 470 -70l-11 -39q-238 54 -469 69zM765 383l39 13q76 -143 117 -340l-42 -15q-39 199 -114 342zM131 18l-42 18q72 177 93 326l45 -10q-32 -170 -96 -334zM481 -37q-101 -1 -199 56l2 49q95 -63 193 -63q140 2 142 109q2 80 -103 161
q-105 77 -101 148q-1 49 37 104l41 -11q-37 -47 -36 -91q-3 -54 80 -115q129 -95 125 -196q-7 -146 -181 -151z" />
    <glyph glyph-name="uni3076" unicode="&#x3076;" 
d="M264 669l10 40q243 -23 470 -70l-11 -39q-238 54 -469 69zM760 378l39 13q76 -143 117 -340l-42 -15q-39 199 -114 342zM126 13l-42 18q72 177 93 326l45 -10q-32 -170 -96 -334zM476 -42q-101 -1 -199 56l2 49q95 -63 193 -63q140 2 142 109q2 80 -103 161
q-105 77 -101 148q-1 49 37 104l41 -11q-37 -47 -36 -91q-3 -54 80 -115q129 -95 125 -196q-7 -146 -181 -151zM869 625l-28 -20q-43 65 -97 120l28 21q61 -63 97 -121zM949 679l-28 -20q-25 45 -95 118l27 20q51 -53 96 -118z" />
    <glyph glyph-name="uni3077" unicode="&#x3077;" 
d="M778 697q9 85 94 94q86 -9 95 -94q-8 -87 -95 -95q-85 9 -94 95zM806 697q6 -61 66 -67q61 6 67 67q-6 60 -67 66q-60 -6 -66 -66zM264 669l10 40q243 -23 470 -70l-11 -39q-238 54 -469 69zM760 378l39 13q76 -143 117 -340l-42 -15q-39 199 -114 342zM126 13l-42 18
q72 177 93 326l45 -10q-32 -170 -96 -334zM476 -42q-101 -1 -199 56l2 49q95 -63 193 -63q140 2 142 109q2 80 -103 161q-105 77 -101 148q-1 49 37 104l41 -11q-37 -47 -36 -91q-3 -54 80 -115q129 -95 125 -196q-7 -146 -181 -151z" />
    <glyph glyph-name="uni3078" unicode="&#x3078;" 
d="M103 223l-34 39q105 106 216 262q54 78 104 76q45 5 98 -65q221 -265 455 -440l-26 -42q-244 191 -466 460q-39 49 -62 44q-27 1 -58 -43q-124 -172 -227 -291z" />
    <glyph glyph-name="uni3079" unicode="&#x3079;" 
d="M649 603l29 23q65 -69 98 -124l-27 -21q-53 78 -100 122zM733 656l27 20q47 -47 98 -119l-28 -21q-35 57 -97 120zM103 218l-34 39q105 106 216 262q54 78 104 76q45 5 98 -65q221 -265 455 -440l-26 -42q-244 191 -466 460q-39 49 -62 44q-27 1 -58 -43
q-124 -172 -227 -291z" />
    <glyph glyph-name="uni307A" unicode="&#x307a;" 
d="M665 596q9 85 94 94q86 -9 95 -94q-8 -87 -95 -95q-85 9 -94 95zM693 596q6 -61 66 -67q61 6 67 67q-6 60 -67 66q-60 -6 -66 -66zM103 218l-34 39q105 106 216 262q54 78 104 76q45 5 98 -65q221 -265 455 -440l-26 -42q-244 191 -466 460q-39 49 -62 44q-27 1 -58 -43
q-124 -172 -227 -291z" />
    <glyph glyph-name="uni307B" unicode="&#x307b;" 
d="M143 259q-1 233 46 493l46 -4q-47 -229 -47 -476q0 -161 18 -317l-45 -4q-18 162 -18 308zM366 84q9 115 175 124q64 0 137 -26l-5 243h-280v39h279l-5 186h-266v39h482v-39h-174l4 -186h175v-39h-174l6 -259q104 -47 192 -117l-24 -37q-86 73 -167 112q3 -165 -178 -165
q-172 4 -177 125zM408 84q5 -83 134 -86q150 -5 137 144q-67 27 -140 27q-124 -4 -131 -85z" />
    <glyph glyph-name="uni307C" unicode="&#x307c;" 
d="M133 254q-1 233 46 493l46 -4q-47 -229 -47 -476q0 -161 18 -317l-45 -4q-18 162 -18 308zM356 79q9 115 175 124q64 0 137 -26l-5 243h-280v39h279l-5 186h-266v39h417v-39h-109l4 -186h175v-39h-174l6 -259q104 -47 192 -117l-24 -37q-86 73 -167 112q3 -165 -178 -165
q-172 4 -177 125zM398 79q5 -83 134 -86q150 -5 137 144q-67 27 -140 27q-124 -4 -131 -85zM789 770l27 20q54 -58 96 -119l-27 -20q-46 68 -96 119zM875 815l26 19q61 -64 94 -116l-26 -19q-38 59 -94 116z" />
    <glyph glyph-name="uni307D" unicode="&#x307d;" 
d="M796 720q9 85 94 94q86 -9 95 -94q-8 -87 -95 -95q-35 0 -60 22v-2h-131l4 -186h175v-39h-174l6 -259q104 -47 192 -117l-24 -37q-86 73 -167 112q3 -165 -178 -165q-172 4 -177 125q9 115 175 124q64 0 137 -26l-5 243h-280v39h279l-5 186h-266v39h412q-7 16 -7 36z
M398 79q5 -83 134 -86q150 -5 137 144q-67 27 -140 27q-124 -4 -131 -85zM133 254q-1 233 46 493l46 -4q-47 -229 -47 -476q0 -161 18 -317l-45 -4q-18 162 -18 308zM824 720q6 -61 66 -67q61 6 67 67q-6 60 -67 66q-60 -6 -66 -66z" />
    <glyph glyph-name="uni307E" unicode="&#x307e;" 
d="M152 81q12 130 209 141q78 0 141 -15l-5 199h-336v40h335l-5 156h-323v40h322l-3 119h45l3 -119h305v-40h-305l4 -156h307v-40h-306l4 -209q171 -47 335 -167l-27 -38q-158 121 -307 166q14 -212 -189 -210q-200 4 -204 133zM196 81q2 -92 159 -93q152 -3 149 149
q0 15 -1 31q-61 15 -139 15q-159 -6 -168 -102z" />
    <glyph glyph-name="uni307F" unicode="&#x307f;" 
d="M92 157q18 237 308 251q27 125 45 269h-269v39h318q-18 -172 -51 -310q136 -12 296 -87q14 84 14 187q0 40 -1 64h43q0 -10 1 -29v-27q0 -126 -16 -214q65 -33 157 -98l-19 -40q-76 56 -147 95q-53 -208 -268 -324l-35 32q220 107 263 312q-159 80 -296 92
q-83 -329 -235 -339q-102 7 -108 127zM135 162q2 -85 66 -89q116 10 189 297q-240 -16 -255 -208z" />
    <glyph glyph-name="uni3080" unicode="&#x3080;" 
d="M499 -48q-229 2 -235 123l3 45q-150 -12 -158 153q9 153 140 165q43 0 82 -32l-1 194h-222v39h222v58q-1 40 -1 59h47l-2 -117h207v-39h-207l-4 -253q10 -30 10 -65q-1 -106 -73 -147q-3 -26 -3 -46q-2 -49 33 -66q54 -30 167 -30q278 6 289 130q-1 81 -44 187l45 2
q39 -107 40 -199q-13 -154 -335 -161zM246 158q92 6 95 124q-2 115 -91 118q-93 -8 -101 -126q3 -112 97 -116zM930 496l-29 -33q-99 120 -223 187l27 30q133 -80 225 -184z" />
    <glyph glyph-name="uni3081" unicode="&#x3081;" 
d="M104 195q4 179 159 304q-28 85 -49 191l45 8q15 -88 38 -175q124 81 290 78q15 68 25 145l46 -6q-9 -71 -28 -143q249 -47 261 -306q-2 -252 -334 -335l-25 43q318 58 316 296q-14 224 -228 267q-60 -212 -174 -362q29 -42 63 -85l-33 -29q-32 40 -59 79
q-111 -130 -197 -130q-112 7 -116 160zM145 196q2 -113 75 -117q80 0 175 120q-72 117 -120 262q-122 -102 -130 -265zM308 486q39 -133 116 -252q102 144 155 331q-154 4 -271 -79z" />
    <glyph glyph-name="uni3082" unicode="&#x3082;" 
d="M109 380h222q1 18 6 61q7 68 12 127h-239v39h243l16 156l45 -2l-17 -154h285v-39h-289l-19 -188h303v-39h-307q-15 -141 -14 -181q-6 -173 206 -169q255 5 266 171q1 57 -42 133l43 3q42 -77 43 -139q-12 -203 -307 -209q-251 0 -251 196q-1 56 13 195h-218v39z" />
    <glyph glyph-name="uni3083" unicode="&#x3083;" 
d="M158 289l-14 37q107 40 165 59l-60 159l41 13l57 -160q132 47 213 64q-21 42 -76 103l36 19q36 -41 86 -116l44 2q170 -7 178 -152q-11 -153 -189 -163q-45 -1 -111 6l-10 43q35 -7 61 -9q22 -2 59 -2q140 8 150 126q-7 109 -138 115q-90 2 -292 -71q64 -178 139 -442
l-43 -10q-59 225 -134 440q-79 -29 -162 -61z" />
    <glyph glyph-name="uni3084" unicode="&#x3084;" 
d="M906 434q-10 -185 -232 -200q-66 0 -137 7l-11 46q69 -14 148 -13q176 13 189 161q-8 140 -179 147q-113 1 -366 -89q104 -304 173 -553l-46 -12q-68 263 -168 551q-130 -47 -203 -76l-15 41l205 73q-12 36 -42 114q-20 55 -31 85l44 13q44 -115 72 -199q183 63 274 80
q-37 64 -96 132l38 20q51 -54 107 -144l53 3q211 -9 223 -187z" />
    <glyph glyph-name="uni3085" unicode="&#x3085;" 
d="M200 212q-2 83 18 312l43 -1q-19 -140 -24 -316q86 226 310 261q-5 41 -16 105l43 2q8 -54 14 -105q219 -9 227 -208q-14 -217 -258 -221q-39 -78 -173 -136l-29 34q125 42 159 106q-103 19 -159 124l29 28q47 -106 147 -117q28 67 27 198q0 77 -7 152
q-258 -53 -302 -305q-1 -38 7 -71l-43 -8q-14 66 -13 166zM571 77q193 10 205 187q-7 161 -184 169q6 -78 6 -153q1 -130 -27 -203z" />
    <glyph glyph-name="uni3086" unicode="&#x3086;" 
d="M129 287q-1 130 23 402l46 -1q-33 -296 -31 -408q98 292 397 339q-9 79 -19 132l46 2q6 -39 14 -115q1 -11 2 -17q279 -9 284 -260q-21 -266 -321 -268q-52 -106 -212 -169l-33 36q150 49 198 137q-138 25 -199 152l30 29q54 -124 186 -144q21 49 29 110q8 56 8 162
q0 71 -9 173q-325 -66 -385 -379q0 -48 9 -93l-48 -9q-16 80 -15 189zM587 133q243 9 262 228q-3 212 -238 220q9 -104 9 -176q2 -187 -33 -272z" />
    <glyph glyph-name="uni3087" unicode="&#x3087;" 
d="M208 34q7 117 174 122q54 0 108 -12l-18 435h41l6 -164l248 15l2 -39l-248 -14l9 -245q128 -39 266 -143l-24 -35q-135 105 -240 139q14 -168 -157 -170q-166 1 -167 111zM248 36q0 -74 126 -74q69 0 97 34q28 30 20 109q-52 13 -109 13q-129 -3 -134 -82z" />
    <glyph glyph-name="uni3088" unicode="&#x3088;" 
d="M139 80q10 134 209 143q75 0 143 -18l-22 553h45l7 -205l310 19l2 -42l-310 -18l12 -319q168 -55 331 -177l-26 -38q-161 125 -304 174q15 -207 -192 -208q-201 3 -205 136zM182 80q6 -92 161 -95q78 0 116 38q41 42 35 142q-62 17 -146 17q-156 -5 -166 -102z" />
    <glyph glyph-name="uni3089" unicode="&#x3089;" 
d="M194 168l38 412l44 -5l-36 -348q178 182 365 182q229 -7 243 -201q-14 -246 -432 -254q-62 0 -113 3l-12 47q62 -9 126 -9q374 6 386 213q-13 157 -192 163q-206 -8 -379 -211zM329 708l16 39q192 -20 342 -74l-15 -40q-154 57 -343 75z" />
    <glyph glyph-name="uni308A" unicode="&#x308a;" 
d="M234 351q-1 145 38 410l48 -3q-42 -214 -48 -374q93 293 289 314q210 -14 218 -342q-1 -210 -143 -315q-109 -82 -305 -111l-22 43q193 23 301 105q124 100 123 278q-5 293 -175 301q-214 -46 -272 -389q0 -31 4 -71l-45 -6q-11 72 -11 160z" />
    <glyph glyph-name="uni308B" unicode="&#x308b;" 
d="M320 78q5 -89 169 -91q54 0 102 12q-50 152 -173 153q-91 -5 -98 -74zM138 174l-30 37q259 209 544 473q-71 -3 -215 -9t-215 -8v43l477 13l22 -33q-67 -59 -199 -171q-107 -92 -166 -143q122 61 224 60q262 -7 274 -215q-15 -259 -370 -272q-197 4 -204 126
q7 107 141 113q150 -3 212 -180q177 64 176 211q-13 175 -229 181q-103 1 -206 -51q-89 -43 -236 -175z" />
    <glyph glyph-name="uni308C" unicode="&#x308c;" 
d="M111 105l-30 35q90 120 187 236l3 143h-187v38h188q2 101 5 203h45q-10 -218 -11 -337q213 243 330 235q127 -3 130 -151q0 -65 -12 -206q-11 -120 -10 -164q-2 -85 56 -82q65 1 138 53l12 -45q-81 -50 -154 -50q-92 2 -94 108q-1 67 11 185q10 120 10 188q3 128 -91 124
q-97 14 -327 -253q-4 -217 0 -429h-46q0 136 1 209q0 86 2 173q-66 -84 -156 -213z" />
    <glyph glyph-name="uni308D" unicode="&#x308d;" 
d="M141 172l-30 37q246 204 547 470l-443 -10v41q80 1 247 4t246 4l19 -32q-193 -170 -386 -321q129 68 243 66q254 -7 266 -207q-15 -257 -384 -268q-92 0 -168 8l-14 46q85 -12 179 -13q326 9 342 225q-5 169 -225 172q-122 0 -238 -67q-82 -46 -201 -155z" />
    <glyph glyph-name="uni308E" unicode="&#x308e;" 
d="M191 60l-29 32q96 121 153 181l2 119h-152v36h152l3 153h41q-5 -136 -8 -271q144 133 265 131q192 -8 199 -225q1 -238 -303 -263l-20 39q285 12 282 223q-4 184 -161 189q-112 3 -263 -147q-1 -83 -1 -163q1 -78 3 -178h-41v174q0 69 1 127q-73 -84 -123 -157z" />
    <glyph glyph-name="uni308F" unicode="&#x308f;" 
d="M113 117l-32 34q126 159 191 226l3 154h-190v38h190l4 191h44q-6 -172 -10 -344q180 172 336 169q238 -12 244 -278q0 -289 -373 -325l-22 42q355 17 350 282q-5 231 -201 240q-147 4 -335 -188l2 -422h-44l1 383q-70 -83 -158 -202z" />
    <glyph glyph-name="uni3090" unicode="&#x3090;" 
d="M116 140q19 297 368 368q20 78 35 175q-48 -1 -146 -3t-147 -2l-1 40l346 6q-11 -72 -43 -211q18 1 39 1q298 -9 307 -287q-16 -267 -252 -281q-140 7 -149 117q9 106 134 115q103 -1 186 -102q38 64 38 151q-8 244 -265 250q-16 0 -48 -2q-62 -235 -151 -385
q-64 -106 -144 -107q-103 7 -107 157zM158 140q1 -111 68 -113q55 1 109 91q82 141 139 351q-301 -70 -316 -329zM513 63q6 -73 107 -78q88 -1 147 59q-73 98 -158 97q-91 -4 -96 -78z" />
    <glyph glyph-name="uni3091" unicode="&#x3091;" 
d="M342 312q2 -52 83 -59q69 31 70 80q-2 48 -64 49q-82 -6 -89 -70zM107 -67l-33 32q143 149 299 264q-66 24 -68 81q12 95 129 103q92 -2 96 -76q-2 -58 -61 -86q240 10 266 149q-1 119 -166 120q-92 0 -181 -34q-84 -32 -204 -120l-24 37l190 119q29 18 90 56
q132 82 198 125l-380 -16l-1 41q71 2 212 7q140 5 211 7l21 -41q-47 -29 -156 -93q-95 -57 -146 -88q96 34 175 33q200 -3 205 -154q-19 -173 -307 -183q-27 0 -54 3q-69 -43 -156 -117q62 30 105 29q99 -5 136 -120q71 134 178 135q143 -1 236 -185l-41 -26
q-83 176 -197 173q-134 -20 -156 -177h-42q-16 169 -126 167q-105 2 -248 -165z" />
    <glyph glyph-name="uni3092" unicode="&#x3092;" 
d="M137 246l-31 36q167 149 268 320l-243 -3l-1 40l266 3q35 64 59 123l43 -10q-15 -39 -55 -112l372 4l1 -40l-395 -5q-65 -99 -149 -193q115 77 191 76q116 -1 141 -132q76 28 236 75q22 7 33 10l10 -44q-176 -41 -274 -79q11 -74 14 -196l-44 -2q0 115 -8 184
q-249 -97 -243 -207q-10 -99 244 -96q130 0 258 17l1 -46q-123 -12 -255 -12q-305 -6 -290 138q-4 113 186 204q32 16 93 40q-17 112 -104 111q-119 4 -324 -204z" />
    <glyph glyph-name="uni3093" unicode="&#x3093;" 
d="M133 -31l-44 17q67 156 340 763l47 -16q-94 -195 -211 -448q98 113 188 113q120 -1 126 -148l5 -138q5 -106 95 -106q137 0 213 223l35 -33q-85 -227 -248 -234q-130 1 -137 138l-6 153q-6 106 -89 106q-75 -3 -166 -104q-65 -78 -148 -286z" />
    <glyph glyph-name="uni30A1" unicode="&#x30a1;" 
d="M197 488h609v-39q-72 -144 -192 -237l-31 26q112 80 177 211h-563v39zM252 -104l-33 32q142 64 196 164q55 96 51 280h43q13 -350 -257 -476z" />
    <glyph glyph-name="uni30A2" unicode="&#x30a2;" 
d="M124 681h757v-39q-83 -172 -238 -298l-32 28q135 100 220 268h-707v41zM191 -52l-31 31q318 136 300 558h47q17 -436 -316 -589z" />
    <glyph glyph-name="uni30A3" unicode="&#x30a3;" 
d="M201 219l-30 35q352 113 564 323l34 -30q-86 -85 -212 -165v-451h-44v426q-139 -80 -312 -138z" />
    <glyph glyph-name="uni30A4" unicode="&#x30a4;" 
d="M792 754l38 -31q-112 -114 -263 -205v-564h-48v535q-171 -99 -391 -173l-35 39q429 139 699 399z" />
    <glyph glyph-name="uni30A5" unicode="&#x30a5;" 
d="M232 449h240v122h42v-122h264v-37q-31 -378 -412 -485l-27 36q372 88 393 447h-455v-174h-45v213z" />
    <glyph glyph-name="uni30A6" unicode="&#x30a6;" 
d="M169 595h300v153h46v-153h329v-40q-38 -478 -509 -606l-27 37q459 116 486 568h-576v-218h-49v259z" />
    <glyph glyph-name="uni30A7" unicode="&#x30a7;" 
d="M173 46h304v383h-253v39h548v-39h-253v-383h310v-38h-656v38z" />
    <glyph glyph-name="uni30A8" unicode="&#x30a8;" 
d="M95 104h379v486h-315v41h678v-41h-317v-486h388v-41h-813v41z" />
    <glyph glyph-name="uni30A9" unicode="&#x30a9;" 
d="M193 11l-30 33q260 136 387 346h-354v38h385l-3 145h42l3 -145h196v-38h-196l7 -372q4 -85 -77 -82h-106l-14 42h118q41 -3 38 40l-5 352q-129 -210 -391 -359z" />
    <glyph glyph-name="uni30AA" unicode="&#x30aa;" 
d="M117 55l-33 35q324 174 487 439h-448v40h481l-3 181h45l3 -181h246v-40h-245l9 -469q-1 -101 -93 -99h-126l-15 45h139q53 -5 50 54l-8 446q-162 -267 -489 -451z" />
    <glyph glyph-name="uni30AB" unicode="&#x30ab;" 
d="M143 -47l-28 32q189 104 268 282q45 104 57 260h-313v39h315q2 32 2 72q1 19 1 44v70h46q0 -106 -4 -186h354q-7 -270 -25 -408q-28 -194 -150 -185h-116l-10 42h129q85 -7 105 145q21 136 24 367h-314q-11 -167 -62 -279q-82 -179 -279 -295z" />
    <glyph glyph-name="uni30AC" unicode="&#x30ac;" 
d="M780 713l28 21q61 -63 97 -121l-27 -20q-48 71 -98 120zM862 765l27 19q54 -53 96 -117l-27 -20q-29 49 -96 118zM138 -47l-28 32q189 104 268 282q45 104 57 260h-313v39h315q2 32 2 72q1 19 1 44v70h46q0 -106 -4 -186h354q-7 -270 -25 -408q-28 -194 -150 -185h-116
l-10 42h129q85 -7 105 145q21 136 24 367h-314q-11 -167 -62 -279q-82 -179 -279 -295z" />
    <glyph glyph-name="uni30AD" unicode="&#x30ad;" 
d="M115 271l367 42l-28 216l-321 -34l-4 41l319 33l-25 186l45 5l25 -186l315 33l4 -40l-313 -33l28 -215l359 41l5 -41l-358 -40l45 -337l-45 -5l-45 336l-368 -42z" />
    <glyph glyph-name="uni30AE" unicode="&#x30ae;" 
d="M110 271l367 42l-28 216l-321 -34l-4 41l319 33l-25 186l45 5l25 -186l315 33l4 -40l-313 -33l28 -215l359 41l5 -41l-358 -40l45 -337l-45 -5l-45 336l-368 -42zM774 732l28 21q61 -63 97 -121l-27 -20q-48 71 -98 120zM856 784l27 19q54 -53 96 -117l-27 -20
q-29 49 -96 118z" />
    <glyph glyph-name="uni30AF" unicode="&#x30af;" 
d="M164 323l-30 34q215 146 321 395l45 -13q-34 -75 -65 -124h397v-40q-140 -458 -609 -628l-23 36q448 149 586 592h-377q-91 -134 -245 -252z" />
    <glyph glyph-name="uni30B0" unicode="&#x30b0;" 
d="M789 744l28 21q61 -63 97 -121l-27 -20q-48 71 -98 120zM871 796l27 19q54 -53 96 -117l-27 -20q-29 49 -96 118zM159 318l-30 34q215 146 321 395l45 -13q-34 -75 -65 -124h397v-40q-140 -458 -609 -628l-23 36q448 149 586 592h-377q-91 -134 -245 -252z" />
    <glyph glyph-name="uni30B1" unicode="&#x30b1;" 
d="M128 318l-34 29q173 157 236 407l46 -11q-29 -99 -67 -174h597v-39h-256q-12 -428 -385 -587l-27 34q359 132 366 553h-314q-65 -120 -162 -212z" />
    <glyph glyph-name="uni30B2" unicode="&#x30b2;" 
d="M774 711l27 21q52 -56 96 -118l-27 -20q-49 71 -96 117zM864 748l27 19q57 -60 93 -114l-26 -21q-38 61 -94 116zM123 288l-34 29q173 157 236 407l46 -11q-29 -99 -67 -174h597v-39h-256q-12 -428 -385 -587l-27 34q359 132 366 553h-314q-65 -120 -162 -212z" />
    <glyph glyph-name="uni30B3" unicode="&#x30b3;" 
d="M154 101h611v488h-602v41h650v-637h-48v67h-611v41z" />
    <glyph glyph-name="uni30B4" unicode="&#x30b4;" 
d="M149 96h611v488h-602v41h650v-637h-48v67h-611v41zM776 742l28 21q61 -63 97 -121l-27 -20q-48 71 -98 120zM858 794l27 19q54 -53 96 -117l-27 -20q-29 49 -96 118z" />
    <glyph glyph-name="uni30B5" unicode="&#x30b5;" 
d="M89 536h199v207h47v-207h329v210h47v-210h200v-41h-200q4 -278 -88 -377q-86 -118 -311 -168l-21 39q209 41 296 155q81 88 77 351h-329v-256h-47v256h-199v41z" />
    <glyph glyph-name="uni30B6" unicode="&#x30b6;" 
d="M770 758l29 16q41 -50 85 -127l-29 -16q-49 84 -85 127zM855 801l27 15q47 -55 83 -123l-28 -17q-33 67 -82 125zM84 531h199v207h47v-207h329v210h47v-210h200v-41h-200q4 -278 -88 -377q-86 -118 -311 -168l-21 39q209 41 296 155q81 88 77 351h-329v-256h-47v256h-199
v41z" />
    <glyph glyph-name="uni30B7" unicode="&#x30b7;" 
d="M137 428l19 38q145 -42 243 -90l-18 -40q-96 49 -244 92zM212 663l20 39q116 -34 233 -92l-19 -40q-120 62 -234 93zM171 -28l-13 44q533 86 702 521l39 -39q-191 -430 -728 -526z" />
    <glyph glyph-name="uni30B8" unicode="&#x30b8;" 
d="M132 423l19 38q145 -42 243 -90l-18 -40q-96 49 -244 92zM207 658l20 39q116 -34 233 -92l-19 -40q-120 62 -234 93zM744 697l29 21q48 -44 99 -119l-27 -20q-53 73 -101 118zM826 749l27 19q54 -52 98 -115l-27 -20q-34 54 -98 116zM166 -33l-13 44q533 86 702 521
l39 -39q-191 -430 -728 -526z" />
    <glyph glyph-name="uni30B9" unicode="&#x30b9;" 
d="M894 4l-38 -36q-127 170 -311 306q-148 -172 -412 -315l-31 36q453 230 605 634h-525v42h577v-42q-71 -179 -187 -323q171 -120 322 -302z" />
    <glyph glyph-name="uni30BA" unicode="&#x30ba;" 
d="M757 748l28 21l6 -6q66 -67 94 -113l-30 -22q-48 71 -98 120zM839 800l27 19q63 -62 98 -115l-29 -22q-29 49 -96 118zM889 -1l-38 -36q-127 170 -311 306q-148 -172 -412 -315l-31 36q453 230 605 634h-525v42h577v-42q-71 -179 -187 -323q171 -120 322 -302z" />
    <glyph glyph-name="uni30BB" unicode="&#x30bb;" 
d="M86 447l230 44v256h47v-247l484 91l15 -21q-66 -179 -224 -325l-32 30q130 116 196 266l-439 -83v-273q-2 -97 38 -120q20 -14 58 -20q36 -5 114 -5q150 -1 264 12v-45q-154 -12 -265 -11q-158 -1 -205 37q-53 36 -51 152v264l-223 -42z" />
    <glyph glyph-name="uni30BC" unicode="&#x30bc;" 
d="M785 743l28 21q64 -66 98 -121l-28 -20q-48 71 -98 120zM867 795l27 19q62 -60 98 -116l-29 -21q-29 49 -96 118zM71 447l230 44v256h47v-247l484 91l15 -21q-66 -179 -224 -325l-32 30q130 116 196 266l-439 -83v-273q-2 -97 38 -120q20 -14 58 -20q36 -5 114 -5
q150 -1 264 12v-45q-154 -12 -265 -11q-158 -1 -205 37q-53 36 -51 152v264l-223 -42z" />
    <glyph glyph-name="uni30BD" unicode="&#x30bd;" 
d="M151 633l42 22q93 -125 158 -271l-45 -23q-59 144 -155 272zM278 -83l-31 38q475 162 547 713l46 -10q-90 -553 -562 -741z" />
    <glyph glyph-name="uni30BE" unicode="&#x30be;" 
d="M146 628l42 22q93 -125 158 -271l-45 -23q-59 144 -155 272zM272 -89l-32 35q456 157 543 687l47 -10q-90 -518 -558 -712zM782 741l28 21q61 -63 97 -121l-27 -20q-48 71 -98 120zM864 793l27 19q54 -53 96 -117l-27 -20q-29 49 -96 118z" />
    <glyph glyph-name="uni30BF" unicode="&#x30bf;" 
d="M134 328l-29 29q226 142 332 368l48 -10q-27 -52 -67 -115h424v-39q-161 -442 -660 -647l-31 35q243 81 422 257q-117 107 -234 174l30 30q95 -52 235 -172q127 142 191 323h-405q-101 -137 -256 -233z" />
    <glyph glyph-name="uni30C0" unicode="&#x30c0;" 
d="M790 731l28 21q61 -63 97 -121l-27 -20q-48 71 -98 120zM872 783l27 19q54 -53 96 -117l-27 -20q-29 49 -96 118zM130 323l-29 29q226 142 332 368l48 -10q-27 -52 -67 -115h424v-39q-161 -442 -660 -647l-31 35q243 81 422 257q-117 107 -234 174l30 30q95 -52 235 -172
q127 142 191 323h-405q-101 -137 -256 -233z" />
    <glyph glyph-name="uni30C1" unicode="&#x30c1;" 
d="M99 389h406v218q-130 -22 -313 -40q-3 10 -8 34q-1 6 -2 9q381 29 603 108l16 -41q-103 -32 -249 -61v-227h346v-41h-347q4 -331 -322 -435l-30 35q309 90 305 400h-405v41z" />
    <glyph glyph-name="uni30C2" unicode="&#x30c2;" 
d="M783 584l28 20q47 -45 95 -119l-27 -19q-41 60 -96 118zM864 635l26 19q57 -61 93 -117l-25 -18q-33 51 -94 116zM94 389h406v218q-130 -22 -313 -40l-10 43q381 29 603 108l16 -41q-103 -32 -249 -61v-227h346v-41h-347q4 -331 -322 -435l-30 35q309 90 305 400h-405v41
z" />
    <glyph glyph-name="uni30C3" unicode="&#x30c3;" 
d="M197 487l41 14q47 -81 87 -205l-42 -13q-34 116 -86 204zM326 -78l-26 32q392 128 451 564l42 -11q-62 -430 -467 -585zM410 528l39 16q58 -112 86 -203l-39 -15q-33 107 -86 202z" />
    <glyph glyph-name="uni30C4" unicode="&#x30c4;" 
d="M126 644l44 15q53 -89 107 -248l-45 -16q-44 142 -106 249zM285 -54l-31 34q489 167 562 700l46 -11q-76 -530 -577 -723zM392 697l43 16q59 -108 105 -247l-44 -17q-43 141 -104 248z" />
    <glyph glyph-name="uni30C5" unicode="&#x30c5;" 
d="M121 639l44 15q53 -89 107 -248l-45 -16q-44 142 -106 249zM280 -59l-30 34q476 164 556 670l46 -11q-83 -501 -572 -693zM387 692l43 16q59 -108 105 -247l-44 -17q-43 141 -104 248zM790 766l28 21q61 -63 97 -121l-27 -20q-48 71 -98 120zM872 818l27 19
q54 -53 96 -117l-27 -20q-29 49 -96 118z" />
    <glyph glyph-name="uni30C6" unicode="&#x30c6;" 
d="M104 467h790v-41h-348q4 -370 -324 -481l-30 35q311 89 306 446h-394v41zM200 695h603v-41h-603v41z" />
    <glyph glyph-name="uni30C7" unicode="&#x30c7;" 
d="M99 421v41h790v-41h-348q4 -370 -324 -481l-30 35q316 94 306 446h-394zM195 649v41h588v-41h-588zM779 767l28 21q61 -63 97 -121l-27 -20q-48 71 -98 120zM861 819l27 19q54 -53 96 -117l-27 -20q-29 49 -96 118z" />
    <glyph glyph-name="uni30C8" unicode="&#x30c8;" 
d="M329 755h48v-273q244 -66 476 -200l-22 -44q-202 127 -454 201v-495h-48v811z" />
    <glyph glyph-name="uni30C9" unicode="&#x30c9;" 
d="M329 755h48v-273q244 -66 476 -200l-22 -44q-202 127 -454 201v-495h-48v811zM661 693l29 23q65 -69 98 -124q-5 -4 -13 -11q-9 -7 -14 -10q-53 78 -100 122zM745 746l27 20q47 -47 98 -119l-28 -21q-35 57 -97 120z" />
    <glyph glyph-name="uni30CA" unicode="&#x30ca;" 
d="M105 509h400v236h46v-236h344v-41h-344q15 -397 -343 -526l-31 35q188 63 257 170q72 104 71 321h-400v41z" />
    <glyph glyph-name="uni30CB" unicode="&#x30cb;" 
d="M100 119h798v-44h-798v44zM189 621h611v-43h-611v43z" />
    <glyph glyph-name="uni30CC" unicode="&#x30cc;" 
d="M145 -14l-31 32q253 100 431 283q-120 96 -266 178l28 29q161 -96 266 -177q125 141 191 331h-556v40h602v-39q-72 -208 -204 -358q93 -75 184 -171l-31 -35q-92 97 -181 173q-169 -177 -433 -286z" />
    <glyph glyph-name="uni30CD" unicode="&#x30cd;" 
d="M101 140l-25 35q414 120 661 407h-568v40h301v139h46v-139h277v-38q-123 -148 -274 -248v-404h-46v376q-154 -95 -372 -168zM629 304l22 34q157 -73 276 -163l-24 -38q-128 100 -274 167z" />
    <glyph glyph-name="uni30CE" unicode="&#x30ce;" 
d="M186 -36l-35 37q458 174 582 702l46 -13q-130 -522 -593 -726z" />
    <glyph glyph-name="uni30CF" unicode="&#x30cf;" 
d="M131 12l-42 22q197 234 236 618l48 -10q-44 -379 -242 -630zM610 651l42 18q146 -284 244 -626l-45 -18q-101 359 -241 626z" />
    <glyph glyph-name="uni30D0" unicode="&#x30d0;" 
d="M718 708l29 19q56 -66 92 -126l-29 -18q-3 5 -10 15q-46 71 -82 110zM803 755l27 18q50 -56 91 -121l-29 -19q-33 61 -89 122zM124 7l-42 22q197 234 236 618l48 -10q-44 -379 -242 -630zM603 646l42 18q146 -284 244 -626l-45 -18q-101 359 -241 626z" />
    <glyph glyph-name="uni30D1" unicode="&#x30d1;" 
d="M739 668q9 85 94 94q86 -9 95 -94q-8 -87 -95 -95q-85 9 -94 95zM767 668q6 -61 66 -67q61 6 67 67q-6 60 -67 66q-60 -6 -66 -66zM124 7l-42 22q197 234 236 618l48 -10q-44 -379 -242 -630zM603 646l42 18q146 -284 244 -626l-45 -18q-101 359 -241 626z" />
    <glyph glyph-name="uni30D2" unicode="&#x30d2;" 
d="M230 725h47v-339q297 94 496 231l29 -39q-215 -138 -525 -233v-171q-4 -95 40 -113q36 -25 209 -23q160 -1 314 22l1 -45q-174 -20 -318 -19q-199 -2 -243 31q-53 28 -50 152v546z" />
    <glyph glyph-name="uni30D3" unicode="&#x30d3;" 
d="M225 725h47v-339q297 94 496 231l29 -39q-215 -138 -525 -233v-171q-4 -95 40 -113q36 -25 209 -23q160 -1 314 22l1 -45q-174 -20 -318 -19q-199 -2 -243 31q-53 28 -50 152v546zM770 726l28 21q61 -63 97 -121l-27 -20q-48 71 -98 120zM852 778l27 19q54 -53 96 -117
l-27 -20q-29 49 -96 118z" />
    <glyph glyph-name="uni30D4" unicode="&#x30d4;" 
d="M225 725h47v-339q297 94 496 231l29 -39q-215 -138 -525 -233v-171q-4 -95 40 -113q36 -25 209 -23q160 -1 314 22l1 -45q-174 -20 -318 -19q-199 -2 -243 31q-53 28 -50 152v546zM794 710q9 85 94 94q86 -9 95 -94q-8 -87 -95 -95q-85 9 -94 95zM822 710q6 -61 66 -67
q61 6 67 67q-6 60 -67 66q-60 -6 -66 -66z" />
    <glyph glyph-name="uni30D5" unicode="&#x30d5;" 
d="M257 -39l-27 37q484 129 548 620h-631v42h682q-50 -545 -572 -699z" />
    <glyph glyph-name="uni30D6" unicode="&#x30d6;" 
d="M142 655h682q-50 -545 -572 -699q-4 6 -13 18q-10 13 -14 19q484 129 548 620h-631v42zM789 767l28 21q61 -63 97 -121l-27 -20q-48 71 -98 120zM871 819l27 19q54 -53 96 -117l-27 -20q-29 49 -96 118z" />
    <glyph glyph-name="uni30D7" unicode="&#x30d7;" 
d="M780 722q9 85 94 94q86 -9 95 -94q-8 -87 -95 -95q-29 0 -52 16q-54 -534 -570 -687q-4 6 -13 18q-10 13 -14 19q484 129 548 620h-631v42h666q-27 28 -28 67zM808 722q6 -61 66 -67q61 6 67 67q-6 60 -67 66q-60 -6 -66 -66z" />
    <glyph glyph-name="uni30D8" unicode="&#x30d8;" 
d="M82 246l228 300q53 76 85 71q37 6 98 -66l431 -461l-30 -41l-445 485q-36 39 -50 37q-20 2 -49 -39q-35 -47 -100 -135q-86 -118 -138 -186z" />
    <glyph glyph-name="uni30D9" unicode="&#x30d9;" 
d="M82 241l229 300q53 77 84 71q37 6 98 -66l431 -461l-30 -41l-445 485q-36 39 -50 37q-20 2 -49 -39q-35 -47 -100 -135q-86 -118 -138 -186zM659 624l29 23q6 -7 19 -20q55 -58 82 -102l-30 -23q-53 78 -100 122zM743 677l27 20q55 -54 99 -117l-29 -23q-35 57 -97 120z
" />
    <glyph glyph-name="uni30DA" unicode="&#x30da;" 
d="M683 615q9 85 94 94q86 -9 95 -94q-8 -87 -95 -95q-85 9 -94 95zM711 615q6 -61 66 -67q61 6 67 67q-6 60 -67 66q-60 -6 -66 -66zM82 241l229 300q53 77 84 71q37 6 98 -66l431 -461l-30 -41l-445 485q-36 39 -50 37q-20 2 -49 -39q-35 -47 -100 -135
q-86 -118 -138 -186z" />
    <glyph glyph-name="uni30DB" unicode="&#x30db;" 
d="M109 586h371v170h45v-170h364v-41h-364v-481q5 -104 -93 -99h-109l-13 45h120q54 -5 50 54v481h-371v41zM687 377l41 18q104 -150 170 -301l-41 -27q-73 171 -170 310zM139 56l-42 22q107 125 152 313l47 -13q-55 -193 -157 -322z" />
    <glyph glyph-name="uni30DC" unicode="&#x30dc;" 
d="M738 751l27 21q65 -68 96 -117l-27 -21q-49 71 -96 117zM828 788l27 19q49 -45 96 -114l-29 -21q-38 61 -94 116zM104 581h371v170h45v-170h364v-41h-364v-481q5 -104 -93 -99h-109l-13 45h120q54 -5 50 54v481h-371v41zM682 372l41 18q104 -150 170 -301l-41 -27
q-73 171 -170 310zM134 51l-42 22q107 125 152 313l47 -13q-55 -193 -157 -322z" />
    <glyph glyph-name="uni30DD" unicode="&#x30dd;" 
d="M762 731q9 85 94 94q86 -9 95 -94q-8 -87 -95 -95q-85 9 -94 95zM790 731q6 -61 66 -67q61 6 67 67q-6 60 -67 66q-60 -6 -66 -66zM104 581h371v170h45v-170h364v-41h-364v-481q5 -104 -93 -99h-109l-13 45h120q54 -5 50 54v481h-371v41zM682 372l41 18
q104 -150 170 -301l-41 -27q-73 171 -170 310zM134 51l-42 22q107 125 152 313l47 -13q-55 -193 -157 -322z" />
    <glyph glyph-name="uni30DE" unicode="&#x30de;" 
d="M110 638h765v-47q-129 -225 -353 -414q79 -79 151 -168l-36 -33q-179 221 -394 382l32 31q125 -95 215 -182q212 173 333 387h-713v44z" />
    <glyph glyph-name="uni30DF" unicode="&#x30df;" 
d="M140 106l15 46q414 -42 681 -145l-16 -48q-301 117 -680 147zM235 393l13 43q249 -25 468 -91l-15 -44q-229 71 -466 92zM241 661l15 45q272 -23 539 -88l-13 -47q-261 70 -541 90z" />
    <glyph glyph-name="uni30E0" unicode="&#x30e0;" 
d="M96 57l100 6q166 347 256 667l48 -13q-103 -340 -252 -650q264 20 530 63q-74 145 -149 258l40 20q133 -204 230 -433l-42 -19q-20 49 -60 133q-309 -50 -693 -79z" />
    <glyph glyph-name="uni30E1" unicode="&#x30e1;" 
d="M138 -39l-37 37q262 118 433 331q-111 94 -255 181q5 6 15 16t15 16q135 -83 251 -178q117 162 172 354l24 -8q16 -6 24 -8q-67 -210 -185 -366q122 -105 207 -201l-32 -37q-84 99 -201 203q-165 -207 -431 -340z" />
    <glyph glyph-name="uni30E2" unicode="&#x30e2;" 
d="M97 406h314v225h-248v41h668v-41h-374v-225h446v-41h-446v-201q-3 -91 30 -108q26 -24 156 -22q91 0 209 10v-43q-111 -8 -203 -8q-158 -2 -196 31q-45 28 -42 143v198h-314v41z" />
    <glyph glyph-name="uni30E3" unicode="&#x30e3;" 
d="M171 385l198 27l-34 153l41 8l35 -155l393 53l13 -23q-67 -138 -217 -254l-30 26q121 89 188 207l-338 -47l100 -452l-43 -11l-100 457l-201 -28z" />
    <glyph glyph-name="uni30E4" unicode="&#x30e4;" 
d="M92 515l248 34l-43 194l45 8l43 -196l490 67l13 -29q-92 -177 -263 -309l-33 28q142 100 236 264l-433 -61q21 -94 63 -283t62 -283l-46 -11l-125 570l-251 -35z" />
    <glyph glyph-name="uni30E5" unicode="&#x30e5;" 
d="M176 42h419l49 390h-389v38h436l-54 -428h188v-38h-649v38z" />
    <glyph glyph-name="uni30E6" unicode="&#x30e6;" 
d="M98 99h523l64 494h-488v41h539l-69 -535h236v-41h-805v41z" />
    <glyph glyph-name="uni30E7" unicode="&#x30e7;" 
d="M218 26h489v204h-455v38h455v195h-478v38h521v-561h-43v48h-489v38z" />
    <glyph glyph-name="uni30E8" unicode="&#x30e8;" 
d="M151 66h612v263h-570v40h570v251h-598v40h644v-694h-46v60h-612v40z" />
    <glyph glyph-name="uni30E9" unicode="&#x30e9;" 
d="M130 479h718v-43q-86 -382 -530 -496l-30 41q430 102 512 457h-670v41zM226 703h557v-41h-557v41z" />
    <glyph glyph-name="uni30EA" unicode="&#x30ea;" 
d="M249 725h48v-432h-48v432zM327 -59l-32 44q232 43 321 159q93 112 91 359v227h48v-227q22 -479 -428 -562z" />
    <glyph glyph-name="uni30EB" unicode="&#x30eb;" 
d="M320 688v-121q13 -406 -203 -602l-43 26q117 109 159 233q42 117 41 345v119h46zM890 395l34 -39q-145 -265 -395 -373l-16 15v723h46v-676q212 108 331 350z" />
    <glyph glyph-name="uni30EC" unicode="&#x30ec;" 
d="M235 721h48v-704q373 110 571 381l28 -43q-222 -279 -631 -392l-16 14v744z" />
    <glyph glyph-name="uni30ED" unicode="&#x30ed;" 
d="M178 656h650v-670h-47v72h-556v-72h-47v670zM225 615v-516h556v516h-556z" />
    <glyph glyph-name="uni30EE" unicode="&#x30ee;" 
d="M233 512h546q-4 -450 -393 -589l-31 34q370 118 380 517h-460v-222h-42v260z" />
    <glyph glyph-name="uni30EF" unicode="&#x30ef;" 
d="M170 674h675q-11 -546 -486 -728l-34 37q457 147 472 650h-581v-277h-46v318z" />
    <glyph glyph-name="uni30F0" unicode="&#x30f0;" 
d="M106 236h184v320h-137v40h494v163h46v-163h167v-40h-167v-320h204v-41h-204v-254h-46v254h-541v41zM335 556v-320h312v320h-312z" />
    <glyph glyph-name="uni30F1" unicode="&#x30f1;" 
d="M97 88h367v402h46v-402h395v-41h-808v41zM172 647h686v-43q-72 -138 -215 -263l-35 24q130 109 202 241h-638v41z" />
    <glyph glyph-name="uni30F2" unicode="&#x30f2;" 
d="M162 722h680q-39 -565 -541 -751l-31 39q360 123 466 418h-562v41h576q29 92 41 211h-629v42z" />
    <glyph glyph-name="uni30F3" unicode="&#x30f3;" 
d="M141 624l27 34q138 -73 247 -162l-30 -38q-105 92 -244 166zM175 -24l-16 41q517 105 686 553l34 -33q-172 -439 -704 -561z" />
    <glyph glyph-name="uni30F4" unicode="&#x30f4;" 
d="M780 737l28 21q69 -70 100 -121l-30 -20q-48 71 -98 120zM862 789l27 19q54 -53 96 -117l-27 -20q-29 49 -96 118zM164 595h300v153h46v-153h329v-40q-38 -478 -509 -606l-27 37q459 116 486 568h-576v-218h-49v259z" />
    <glyph glyph-name="uni30F5" unicode="&#x30f5;" 
d="M215 -70l-32 29q167 89 221 225q35 84 45 205h-250v37h252q2 59 2 148h43q0 -73 -3 -148h283q-6 -265 -20 -330q-13 -88 -40 -119q-27 -32 -86 -31h-95l-9 39h107q67 -2 84 113q16 100 19 291h-245q-8 -132 -50 -221q-55 -137 -226 -238z" />
    <glyph glyph-name="uni30F6" unicode="&#x30f6;" 
d="M313 -78l-27 30q289 104 294 439h-246q-45 -78 -133 -170l-34 26q144 130 196 330l39 -11q-24 -83 -51 -138h476v-37h-205q-7 -346 -309 -469z" />
    <glyph glyph-name="uni3105" unicode="&#x3105;" 
d="M171 466l-13 36l177 229l37 -26l-151 -195h620q-1 -354 -45 -496q-31 -92 -134 -93h-165l-10 43h170q76 0 94 61q40 143 43 441h-623z" />
    <glyph glyph-name="uni3106" unicode="&#x3106;" 
d="M181 -93l-23 44q236 72 398 196q-118 86 -257 175l29 33q83 -53 265 -179q114 116 179 298h-495l-16 33q41 63 120 204q13 24 20 36l46 -16q-69 -129 -124 -212h500v-46q-61 -195 -192 -324q131 -94 210 -156l-31 -37q-89 75 -212 164q-152 -132 -417 -213z" />
    <glyph glyph-name="uni3107" unicode="&#x3107;" 
d="M174 691h651v-704h-46v659h-558v-659h-47v704z" />
    <glyph glyph-name="uni3108" unicode="&#x3108;" 
d="M188 666h639v-46h-591v-593h595v-46h-643v685z" />
    <glyph glyph-name="uni3109" unicode="&#x3109;" 
d="M162 -82l-26 35q232 176 346 514h-292l-10 37l173 228l39 -26l-147 -194h619q-1 -343 -43 -497q-27 -96 -125 -94h-168l-7 46h169q66 -2 88 60q36 115 40 440h-289q-113 -364 -367 -549z" />
    <glyph glyph-name="uni310A" unicode="&#x310a;" 
d="M99 525h347q33 95 58 198l46 -11q-21 -83 -56 -187h405v-45h-425q-110 -250 -280 -477l576 71q-22 38 -72 117l38 20q73 -107 148 -257l-41 -19q-22 50 -51 99l-643 -81q-4 9 -11 28q-3 10 -5 14q171 210 293 485h-327v45z" />
    <glyph glyph-name="uni310B" unicode="&#x310b;" 
d="M149 746h507v-40l-122 -239h314q-2 -233 -37 -399q-26 -123 -168 -121h-184l-10 47h195q100 -2 120 84q32 124 34 344h-308l-9 37l119 241h-451v46z" />
    <glyph glyph-name="uni310C" unicode="&#x310c;" 
d="M165 -76l-30 34q270 174 368 508h-320l-10 40q104 121 173 225l37 -24l-147 -196h280q27 111 37 210l47 -6q-20 -135 -36 -204h298q-7 -317 -38 -487q-27 -103 -143 -103h-78q-59 1 -79 1l-10 45h163q86 -2 101 73q27 132 34 426h-261q-97 -359 -386 -542z" />
    <glyph glyph-name="uni310D" unicode="&#x310d;" 
d="M416 -39l-46 -19q-104 231 -194 386q108 197 185 394q8 -3 22 -8q14 -6 22 -8q-86 -215 -177 -376q85 -148 188 -369zM823 -39l-46 -19q-104 231 -194 386q108 197 185 394q8 -3 22 -8q14 -6 22 -8q-86 -215 -177 -376q85 -148 188 -369z" />
    <glyph glyph-name="uni310E" unicode="&#x310e;" 
d="M101 701h798v-44h-470q-45 -109 -118 -254h484q-16 -217 -45 -339q-31 -114 -170 -115h-161l-7 45h168q110 -3 127 86q27 107 39 281h-471q-2 7 -10 20q-5 8 -7 13q77 141 124 263h-281v44z" />
    <glyph glyph-name="uni310F" unicode="&#x310f;" 
d="M140 -63l-38 25q77 138 109 306q31 155 30 410v31h655v-45h-610q2 -465 -146 -727z" />
    <glyph glyph-name="uni3110" unicode="&#x3110;" 
d="M206 707h45v-499q210 28 497 94v437h45v-817h-45v334q-221 -54 -542 -101v552z" />
    <glyph glyph-name="uni3111" unicode="&#x3111;" 
d="M718 -46l-36 -28q-187 215 -401 399q176 173 363 406l35 -25q-150 -190 -335 -379q212 -191 374 -373z" />
    <glyph glyph-name="uni3112" unicode="&#x3112;" 
d="M99 708h801v-45h-378v-732h-46v732h-377v45z" />
    <glyph glyph-name="uni3113" unicode="&#x3113;" 
d="M95 8h381v272h-340v376h46v-331h294v407h47v-407h294v331h46v-376h-340v-272h381v-45h-809v45z" />
    <glyph glyph-name="uni3114" unicode="&#x3114;" 
d="M209 463l-19 39q225 93 417 246q6 -6 17 -16t16 -16q-189 -151 -431 -253zM146 85l-22 40q397 172 720 471l33 -31q-174 -161 -313 -253v-392h-46v362q-176 -110 -372 -197z" />
    <glyph glyph-name="uni3115" unicode="&#x3115;" 
d="M167 -51l-38 28q128 156 148 446h547v266h-600v45h646v-357h-552q-22 -257 -151 -428z" />
    <glyph glyph-name="uni3116" unicode="&#x3116;" 
d="M200 717h600v-762h-600v762zM246 672v-671h508v671h-508zM370 432l31 30q110 -83 224 -192l-31 -35q-107 109 -224 197z" />
    <glyph glyph-name="uni3117" unicode="&#x3117;" 
d="M113 722h773q0 -305 -33 -416q-25 -83 -123 -84h-118l-7 44h122q67 0 82 57q26 102 30 354h-381v-755h-45v755h-300v45z" />
    <glyph glyph-name="uni3118" unicode="&#x3118;" 
d="M98 579h308q3 6 8 18q28 62 44 94q12 27 30 63l44 -12l-77 -163h446v-45h-467l-107 -216h452v-47q-57 -240 -279 -352l-25 38q203 103 251 315h-442l-11 38l111 224h-286v45z" />
    <glyph glyph-name="uni3119" unicode="&#x3119;" 
d="M117 -22l-16 40q218 306 377 691l41 -15q-163 -398 -355 -664l618 83q-54 98 -81 142l39 19q80 -130 161 -296l-41 -19l-57 113z" />
    <glyph glyph-name="uni311A" unicode="&#x311a;" 
d="M478 342l-340 348l34 30l329 -337l330 339l35 -31l-342 -349v-418h-46v418z" />
    <glyph glyph-name="uni311B" unicode="&#x311b;" 
d="M98 703h803v-45h-351v-274l-23 -21q-311 -10 -316 -187q9 -181 291 -194q241 -3 310 239q5 -2 12 -6q19 -9 29 -12q-83 -268 -350 -266q-328 19 -340 238q3 216 340 232v251h-405v45z" />
    <glyph glyph-name="uni311C" unicode="&#x311c;" 
d="M98 615h404v162h48v-162h351v-45h-351v-212q-4 -4 -15 -13q-6 -5 -9 -7q-297 -12 -301 -181q8 -163 277 -175q234 -3 291 202l44 -15q-70 -229 -334 -233q-316 16 -326 221q2 206 325 225v188h-404v45z" />
    <glyph glyph-name="uni311D" unicode="&#x311d;" 
d="M94 519h179v233h47v-233h338v233h46v-233h201v-45h-201v-250h-46v250h-338v-449q1 -26 28 -27h496v-45h-517q-51 3 -54 56v465h-179v45z" />
    <glyph glyph-name="uni311E" unicode="&#x311e;" 
d="M102 736h806v-46h-305q-14 -152 -44 -280h289v-42q-28 -231 -106 -426l-42 13q72 162 100 411h-255q-86 -267 -386 -424l-24 37q269 147 360 387h-285q-12 21 -17 33q29 97 86 291h-177v46zM245 410h265q32 115 47 280h-232q-17 -62 -80 -280z" />
    <glyph glyph-name="uni311F" unicode="&#x311f;" 
d="M120 588l-10 45q206 44 425 102q108 -439 355 -745l-40 -27q-230 286 -348 713q-248 -62 -382 -88z" />
    <glyph glyph-name="uni3120" unicode="&#x3120;" 
d="M164 345l-17 39q170 175 296 343l38 -27q-145 -186 -266 -304l371 35q101 119 154 196l37 -26q-247 -340 -566 -604l581 79q-30 69 -65 130l46 18q49 -93 121 -262l-44 -18l-40 91l-661 -89q-3 6 -8 20q-5 13 -8 20q149 108 415 398z" />
    <glyph glyph-name="uni3121" unicode="&#x3121;" 
d="M133 -26l-19 42q219 64 409 235q-155 100 -344 184l21 37q195 -81 355 -189q118 134 217 384h-600v45h650v-41q-92 -249 -228 -413q138 -103 292 -254q-3 -3 -11 -10q-16 -14 -23 -21q-172 164 -290 251q-187 -180 -429 -250z" />
    <glyph glyph-name="uni3122" unicode="&#x3122;" 
d="M115 723h633v-44l-98 -317h244v-37q-62 -258 -243 -402l-29 36q176 149 222 360h-636l-16 32l100 327h-177v45zM242 362h359l99 316h-360z" />
    <glyph glyph-name="uni3123" unicode="&#x3123;" 
d="M152 394l-15 31q77 143 150 317l44 -12q-78 -195 -134 -290h666v-46q-49 -248 -160 -450l-43 20q111 201 152 430h-660z" />
    <glyph glyph-name="uni3124" unicode="&#x3124;" 
d="M119 535h347q21 92 23 196l46 -3q-8 -110 -22 -193h379v-45h-322v-489q1 -14 16 -16h307v-45h-315q-51 3 -54 56v494h-22q-117 -362 -351 -555l-34 30q239 188 338 525h-336v45z" />
    <glyph glyph-name="uni3125" unicode="&#x3125;" 
d="M135 -52l-17 32q247 301 412 685l46 -17q-155 -361 -388 -655h693v-45h-746z" />
    <glyph glyph-name="uni3126" unicode="&#x3126;" 
d="M148 -68l-38 28q156 189 155 488v273h47v-273q2 -317 -164 -516zM566 725h47v-707q2 -22 24 -23h256v-48h-269q-55 3 -58 60v718z" />
    <glyph glyph-name="uni3127" unicode="&#x3127;" 
d="M475 726h48v-782h-48v782z" />
    <glyph glyph-name="uni3128" unicode="&#x3128;" 
d="M159 -33l-34 30q170 162 353 348l-330 332q7 6 23 20q7 8 11 11q107 -103 329 -332q186 188 303 324l38 -27q-90 -105 -308 -327q199 -208 330 -348l-35 -31q-3 6 -328 347q-187 -189 -352 -347z" />
    <glyph glyph-name="uni3129" unicode="&#x3129;" 
d="M173 691h47v-659h561v659h45v-705h-653v705z" />
    <glyph glyph-name="uni3220" unicode="&#x3220;" 
d="M139 389h713v-34h-713v34zM223 -111h-32q-139 223 -138 460q1 235 137 461h32q-131 -228 -127 -461q-4 -236 128 -460zM778 810h32q136 -226 137 -461q1 -237 -138 -460h-32q132 224 128 460q4 233 -127 461z" />
    <glyph glyph-name="uni3221" unicode="&#x3221;" 
d="M146 129h714v-35h-714v35zM206 693h597v-35h-597v35zM223 -111h-32q-139 223 -138 460q1 235 137 461h32q-131 -228 -127 -461q-4 -236 128 -460zM778 810h32q136 -226 137 -461q1 -237 -138 -460h-32q132 224 128 460q4 233 -127 461z" />
    <glyph glyph-name="uni3222" unicode="&#x3222;" 
d="M223 -111h-32q-139 223 -138 460q1 235 137 461h32q-131 -228 -127 -461q-1 -155 47 -287v32h719v-23q43 123 44 278q4 233 -127 461h32q136 -226 137 -461q1 -237 -138 -460h-32q51 92 79 168h-712q24 -70 79 -168zM194 699h616v-36h-616v36zM225 411h555v-35h-555v35z
" />
    <glyph glyph-name="uni3223" unicode="&#x3223;" 
d="M778 810h32q136 -226 137 -461q1 -237 -138 -460h-32q132 224 128 460q1 184 -71 348v-683h-666v688q-74 -164 -73 -353q-4 -236 128 -460h-32q-139 223 -138 460q1 235 137 461h32q-27 -48 -48 -94h652q-21 46 -48 94zM209 679v-628h584v197h-155q-61 6 -67 67v364h-147
v-150q12 -198 -157 -334l-29 31q84 71 114 136q32 63 31 167v150h-174zM793 679h-183v-354q4 -35 38 -39h145v393z" />
    <glyph glyph-name="uni3224" unicode="&#x3224;" 
d="M180 436h190l39 236h-236v36h656q-22 49 -51 102h32q136 -226 137 -461q1 -237 -138 -460h-32q44 77 72 149h-698q30 -77 72 -149h-32q-139 223 -138 460q1 235 137 461h32q-131 -228 -127 -461q-1 -148 43 -275h173l53 326h-184v36zM831 672h-381l-39 -236h338v-362h113
q42 123 43 275q1 188 -74 355v-32zM710 400h-305l-53 -326h358v326z" />
    <glyph glyph-name="uni3225" unicode="&#x3225;" 
d="M778 810h32q136 -226 137 -461q1 -237 -138 -460h-32q34 61 59 117l-13 -7l-226 389l34 21l218 -370q56 140 56 310q4 233 -127 461zM223 -111h-32q-139 223 -138 460q1 235 137 461h32q-131 -228 -127 -461q-1 -165 54 -306l216 365l35 -21l-230 -389l-3 2
q25 -55 56 -111zM130 577h348v220l40 -6v-214h342v-36h-730v36z" />
    <glyph glyph-name="uni3226" unicode="&#x3226;" 
d="M223 -111h-32q-139 223 -138 460q1 235 137 461h32q-114 -201 -125 -390l287 42v294h40v-288l439 65l6 -35l-445 -66v-340q4 -42 46 -45h279q40 5 45 45v102l42 -6v-106q-7 -66 -76 -73h-303q-66 7 -73 73v344l-281 -41l-6 32q-2 -33 -2 -68q-4 -236 128 -460zM778 810
h32q136 -226 137 -461q1 -237 -138 -460h-32q132 224 128 460q4 233 -127 461z" />
    <glyph glyph-name="uni3227" unicode="&#x3227;" 
d="M223 -111h-32q-139 223 -138 460q1 235 137 461h32q-131 -228 -127 -461q-1 -166 52 -301q204 219 217 562l7 114h38l-6 -115q-13 -369 -239 -601l-1 1q22 -53 60 -120zM778 810h32q136 -226 137 -461q1 -237 -138 -460h-32q31 54 60 121q-223 222 -237 599l-6 115h38
l6 -114q13 -352 216 -559q50 135 51 298q4 233 -127 461z" />
    <glyph glyph-name="uni3228" unicode="&#x3228;" 
d="M158 591h216v168h39v-168h256v-481q3 -36 38 -39h85q36 4 40 39v108l38 -4v-113v-2q34 113 35 250q4 233 -127 461h32q136 -226 137 -461q1 -237 -138 -460h-32q58 104 82 175q-19 -26 -55 -27h-108q-61 6 -67 64v455h-216q13 -351 -250 -546q24 -58 60 -121h-32
q-139 223 -138 460q1 235 137 461h32q-131 -228 -127 -461q-1 -163 51 -300q131 106 178 215q49 106 50 292h-216v35z" />
    <glyph glyph-name="uni3229" unicode="&#x3229;" 
d="M525 755v-317h361v-38h-361v-451h-40v451h-359v38h359v317h40zM223 -111h-32q-139 223 -138 460q1 235 137 461h32q-131 -228 -127 -461q-4 -236 128 -460zM778 810h32q136 -226 137 -461q1 -237 -138 -460h-32q132 224 128 460q4 233 -127 461z" />
    <glyph glyph-name="uni4E00" unicode="&#x4e00;" 
d="M64 397h872v-42h-872v42z" />
    <glyph glyph-name="uni4E01" unicode="&#x4e01;" 
d="M60 722h878v-42h-381v-674q-9 -79 -87 -88h-136l-11 43h132q50 5 55 56v663h-450v42z" />
    <glyph glyph-name="uni4E03" unicode="&#x4e03;" 
d="M936 502l-506 -75v-386q5 -47 52 -52h317q46 5 51 52v116l48 -8v-119q-8 -76 -85 -83h-345q-76 8 -84 83v390l-319 -47l-6 41l325 48v332h46v-325l500 74z" />
    <glyph glyph-name="uni4E04" unicode="&#x4e04;" 
d="M522 803v-802h424v-42h-894v42h424v802h46z" />
    <glyph glyph-name="uni4E05" unicode="&#x4e05;" 
d="M57 722h885v-42h-420v-782h-47v782h-418v42z" />
    <glyph glyph-name="uni4E07" unicode="&#x4e07;" 
d="M75 727h848v-41h-555v-141q0 -45 -2 -86h449v-423q-10 -101 -111 -111h-141l-12 42h138q73 7 80 80v371h-406q-10 -276 -269 -530l-34 34q158 164 208 290q55 124 53 333v141h-246v41z" />
    <glyph glyph-name="uni4E08" unicode="&#x4e08;" 
d="M83 614h523v194h47v-194h266v-42h-266v-11q3 -239 -130 -382q148 -123 429 -237l-20 -46q-282 114 -441 250q-125 -123 -418 -257l-21 44q280 124 403 244q-140 131 -225 320l40 20q84 -190 217 -307q122 134 119 351v11h-523v42z" />
    <glyph glyph-name="uni4E09" unicode="&#x4e09;" 
d="M79 10h842v-43h-842v43zM140 719h721v-42h-721v42zM176 382h650v-41h-650v41z" />
    <glyph glyph-name="uni4E0A" unicode="&#x4e0a;" 
d="M490 802v-315h376v-41h-376v-451h453v-42h-875v42h375v807h47z" />
    <glyph glyph-name="uni4E0B" unicode="&#x4e0b;" 
d="M63 723h874v-42h-453v-780h-46v780h-375v42zM545 480l324 -182l-21 -40l-326 184z" />
    <glyph glyph-name="uni4E0C" unicode="&#x4e0c;" 
d="M76 712h846v-42h-210v-754h-46v754h-313v-185q18 -376 -251 -591l-34 35q138 124 188 244q52 117 51 312v185h-231v42z" />
    <glyph glyph-name="uni4E0D" unicode="&#x4e0d;" 
d="M88 737h826v-42h-320q-173 -307 -517 -538l-28 41q328 216 491 497h-452v42zM522 473v-576h-47v576h47zM634 467l312 -254l-30 -38l-312 255z" />
    <glyph glyph-name="uni4E0E" unicode="&#x4e0e;" 
d="M854 416v-388q-10 -101 -111 -111h-162l-11 43h157q73 7 80 79v335h-604l41 434l47 -3l-16 -164h628v-42h-632l-17 -183h600zM68 208h656v-42h-656v42z" />
    <glyph glyph-name="uni4E10" unicode="&#x4e10;" 
d="M69 738h857v-42h-408v-162h361v-42h-361v-159h348v-325q-8 -79 -87 -87h-176l-12 43h173q50 5 55 55v272h-668l17 306l46 -3l-14 -261h271v363h-402v42z" />
    <glyph glyph-name="uni4E11" unicode="&#x4e11;" 
d="M129 375h185l27 319h-203v42h672l-24 -738h153v-42h-877v42h220l28 335h-181v42zM358 333l-29 -335h410l12 335h-393zM764 694h-375l-27 -319h391z" />
    <glyph glyph-name="uni4E13" unicode="&#x4e13;" 
d="M73 480h240q19 45 52 140h-227v41h242q26 77 47 149l45 -14q-5 -15 -14 -45q-18 -60 -28 -90h440v-41h-455q-24 -71 -52 -140h565v-41h-581q-30 -71 -61 -140h543v-42l-244 -239l202 -88l-17 -39l-570 249l16 39l325 -142l224 221h-530v42q29 59 62 139h-224v41z" />
    <glyph glyph-name="uni4E14" unicode="&#x4e14;" 
d="M62 -10h139v756h601v-756h139v-41h-879v41zM248 202v-212h507v212h-507zM248 704v-209h507v209h-507zM248 453v-209h507v209h-507z" />
    <glyph glyph-name="uni4E15" unicode="&#x4e15;" 
d="M104 734h796v-42h-324q-182 -287 -496 -498l-27 40q290 190 466 458h-415v42zM93 1h816v-42h-816v42zM621 512l323 -265l-29 -35l-324 266zM521 503v-409h-46v409h46z" />
    <glyph glyph-name="uni4E16" unicode="&#x4e16;" 
d="M61 548h130v230h46v-230h197v249h46v-249h251v251h46v-251h163v-42h-163v-338h-343v338h-197v-518h668v-42h-714v560h-130v42zM480 210h251v296h-251v-296z" />
    <glyph glyph-name="uni4E17" unicode="&#x4e17;" 
d="M204 746v-263h270v317h46v-317h270v263h46v-263h112v-41h-112v-484h-678v484h-106v41h106v263h46zM204 442v-442h270v442h-270zM520 0h270v442h-270v-442z" />
    <glyph glyph-name="uni4E18" unicode="&#x4e18;" 
d="M71 -3h149v718q322 10 609 39l6 -42q-279 -26 -568 -37v-260h626v-42h-193v-376h235v-42h-864v42zM267 373v-376h387v376h-387z" />
    <glyph glyph-name="uni4E19" unicode="&#x4e19;" 
d="M646 -42h114q51 5 56 55v491h-293q12 -211 -260 -407l-29 38q256 181 243 369h-289v-606h-46v648h335v156h-404v42h858v-42h-407v-156h338v-544q-9 -78 -87 -87h-118zM534 374l230 -228l-30 -32l-231 226z" />
    <glyph glyph-name="uni4E1A" unicode="&#x4e1a;" 
d="M629 801v-806h299v-42h-857v42h297v806h47v-806h168v806h46zM897 569l-162 -351l-42 18l162 352zM146 589l161 -350l-41 -20l-162 352z" />
    <glyph glyph-name="uni4E1B" unicode="&#x4e1b;" 
d="M671 790v-111v-9q30 -377 276 -602l-36 -34q-203 199 -256 457q-40 -245 -269 -459l-37 33q289 255 275 615v110h47zM331 789v-115q-1 -76 -7 -140l186 -187l-31 -34l-162 164q-31 -232 -219 -444l-39 30q241 247 225 611v115h47zM74 -10h854v-42h-854v42z" />
    <glyph glyph-name="uni4E1C" unicode="&#x4e1c;" 
d="M88 653h235q44 79 79 153l41 -19q-33 -68 -69 -134h548v-42h-571q-69 -125 -148 -238h293v171h47v-171h343v-42h-343v-324q-8 -78 -88 -87h-131l-10 42h127q50 5 55 56v313h-349v41q87 123 152 239h-211v42zM337 229l-236 -245l-32 32l236 246zM711 262l235 -245l-31 -32
l-236 245z" />
    <glyph glyph-name="uni4E1D" unicode="&#x4e1d;" 
d="M505 197h27q101 102 199 232l-239 -5l-3 42h25q130 160 234 341l40 -23q-87 -150 -217 -317l192 5q51 71 97 143l39 -26q-131 -204 -303 -390l280 8l1 -41l-369 -11zM122 201l30 1q89 97 182 230l-239 -7l-1 42h21q117 143 220 336l40 -22q-92 -169 -204 -312l192 5
q37 56 84 135l40 -23q-117 -199 -277 -382l242 8l1 -42l-329 -11zM73 -14h856v-41h-856v41z" />
    <glyph glyph-name="uni4E1E" unicode="&#x4e1e;" 
d="M902 521l-208 -141q100 -119 263 -217l-27 -41q-279 172 -394 432l-8 -4v-381q-7 -71 -78 -78h-93l-11 43h90q42 4 46 45v396l250 133h-576v42h664v-44l-246 -132q37 -83 93 -159l211 143zM96 541h297v-41q-83 -195 -316 -381l-29 37q214 169 295 344h-247v41zM89 -16
h821v-41h-821v41z" />
    <glyph glyph-name="uni4E21" unicode="&#x4e21;" 
d="M329 378v-257h148v365h-302v-590h-46v632h348v161h-402v42h853v-42h-406v-161h349v-533q-7 -76 -82 -83h-130l-11 43h127q45 5 50 50v481h-303v-365h148v257h45v-298h-431v298h45z" />
    <glyph glyph-name="uni4E22" unicode="&#x4e22;" 
d="M145 515h332v176q-156 -6 -357 -10l-1 42q372 8 757 28l4 -42q-186 -11 -357 -16v-178h334v-42h-334v-168h410v-42h-484l18 -14q-108 -136 -251 -257l550 13l-139 130l31 34l254 -237l-30 -34l-72 67l-704 -18v42l39 1q158 124 274 273h-351v42h409v168h-332v42z" />
    <glyph glyph-name="uni4E24" unicode="&#x4e24;" 
d="M871 -5q-7 -76 -83 -83h-118l-11 43h115q45 5 50 50v481h-178q0 -73 -17 -146l166 -189l-33 -32l-148 170q-37 -117 -127 -235l-37 29q148 190 149 403h-200v-2q0 -61 -11 -116l126 -125l-30 -34l-108 109q-35 -118 -146 -254l-37 30q166 193 160 390v2h-178v-590h-46
v632h224v161h-278v42h853v-42h-282v-161h225v-533zM399 689v-161h200v161h-200z" />
    <glyph glyph-name="uni4E25" unicode="&#x4e25;" 
d="M910 380h-721v-122q6 -222 -99 -374l-41 26q54 78 74 154q20 75 20 194v164h235v280h-291v41h828v-41h-288v-280h283v-42zM425 702v-280h156v280h-156zM184 649l122 -144l-34 -29l-124 146zM858 622l-124 -146l-34 28l123 145z" />
    <glyph glyph-name="uni4E27" unicode="&#x4e27;" 
d="M522 809v-119h375v-41h-375v-249h409v-41h-473q47 -107 123 -182l246 127l21 -39l-232 -120q115 -100 341 -178l-17 -44q-412 135 -531 436h-147v-390l239 94l17 -43l-330 -129l-17 42l45 18v408h-148v41h408v249h-374v41h374v119h46zM208 611l148 -141l-29 -33l-147 142
zM820 579l-149 -143l-28 32l148 142z" />
    <glyph glyph-name="uni4E28" unicode="&#x4e28;" 
d="M522 800v-896h-46v896h46z" />
    <glyph glyph-name="uni4E2A" unicode="&#x4e2a;" 
d="M48 382q281 164 430 405h44q139 -237 431 -402l-24 -43q-289 174 -429 394q-165 -240 -429 -395zM523 435v-539h-47v539h47z" />
    <glyph glyph-name="uni4E2B" unicode="&#x4e2b;" 
d="M137 799l308 -286l-31 -33l-308 286zM893 765l-308 -287l-33 32l309 287zM522 436v-540h-47v540h47z" />
    <glyph glyph-name="uni4E2C" unicode="&#x4e2c;" 
d="M619 806v-911h-45v405l-278 -208l-26 35l304 228v451h45zM346 640l171 -204l-35 -28l-170 204z" />
    <glyph glyph-name="uni4E2D" unicode="&#x4e2d;" 
d="M112 626h366v180h47v-180h365v-413h-365v-313h-47v313h-366v413zM844 584h-319v-329h319v329zM159 584v-329h319v329h-319z" />
    <glyph glyph-name="uni4E30" unicode="&#x4e30;" 
d="M165 410h312v180h-363v41h363v175h46v-175h364v-41h-364v-180h312v-41h-312v-189h398v-42h-398v-243h-46v243h-399v42h399v189h-312v41z" />
    <glyph glyph-name="uni4E32" unicode="&#x4e32;" 
d="M157 679h320v128h47v-128h320v-243h-320v-106h359v-261h-359v-174h-47v174h-359v261h359v106h-320v243zM837 289h-313v-179h313v179zM164 289v-179h313v179h-313zM203 638v-161h274v161h-274zM797 638h-273v-161h273v161z" />
    <glyph glyph-name="uni4E34" unicode="&#x4e34;" 
d="M438 376h439v-443h-439v443zM832 335h-152v-360h152v360zM484 335v-360h151v360h-151zM613 797q-27 -74 -57 -140h386v-41h-213v-198h-45v198h-148q-57 -118 -133 -224l-40 27q130 169 206 391zM326 808v-913h-46v913h46zM157 707v-692h-45v692h45z" />
    <glyph glyph-name="uni4E36" unicode="&#x4e36;" 
d="M376 516l279 -279l-32 -33l-278 280z" />
    <glyph glyph-name="uni4E38" unicode="&#x4e38;" 
d="M389 808v-195h298v-605q3 -34 37 -37h129q35 3 38 37v177l47 -7v-184q-6 -60 -68 -66h-163q-62 6 -67 66v578h-251v-27q0 -141 -28 -250l195 -120l-24 -39l-185 114q-61 -191 -264 -357l-33 35q197 158 256 348l-195 121l25 38l183 -114q24 101 24 224v27h-254v41h254
v195h46z" />
    <glyph glyph-name="uni4E39" unicode="&#x4e39;" 
d="M578 -42h117q51 5 56 56v295h-488q-2 -262 -139 -423l-39 28q129 148 132 395h-164v41h166v33v359h579v-392h148v-41h-148v-306q-9 -79 -88 -88h-121zM265 383v-33h486v350h-486v-317zM433 624l181 -172l-31 -34l-180 173z" />
    <glyph glyph-name="uni4E3A" unicode="&#x4e3a;" 
d="M81 560h324v15v233h47v-233v-15h410v-524q-10 -101 -111 -111h-137l-11 42h133q73 7 80 79v472h-365q-2 -357 -357 -631l-32 39q340 261 341 592h-322v42zM532 367l171 -160l-31 -34l-171 160zM179 779l150 -147l-33 -32l-149 147z" />
    <glyph glyph-name="uni4E3B" unicode="&#x4e3b;" 
d="M109 624h781v-42h-367v-262h331v-41h-331v-297h400v-43h-846v43h399v297h-331v41h331v262h-367v42zM523 801v-145h-46v152z" />
    <glyph glyph-name="uni4E3D" unicode="&#x4e3d;" 
d="M252 406l111 -204l-39 -22l-111 203zM672 406l122 -204l-39 -23l-121 203zM74 732h855v-42h-855v42zM875 -19q-6 -61 -67 -67h-95l-11 42h92q32 3 35 35v547h-233v-639h-46v680h325v-598zM445 -19q-6 -61 -67 -67h-95l-11 42h92q33 4 36 35v547h-226v-639h-45v680h316
v-598z" />
    <glyph glyph-name="uni4E3E" unicode="&#x4e3e;" 
d="M522 481v-148h212v-42h-212v-141h371v-42h-371v-215h-46v215h-373v42h373v141h-214v42h214v148h46zM79 585h841v-42h-271q110 -166 309 -258l-23 -41q-218 106 -336 299h-197q-104 -179 -339 -302l-23 40q207 106 309 262h-270v42zM832 768l-139 -168l-34 28l139 169z
M474 813l85 -157l-40 -22l-85 158zM204 790l110 -144l-35 -27l-111 144z" />
    <glyph glyph-name="uni4E3F" unicode="&#x4e3f;" 
d="M622 793v-227q28 -448 -379 -671l-28 40q210 125 284 260q78 131 76 371v227h47z" />
    <glyph glyph-name="uni4E43" unicode="&#x4e43;" 
d="M897 33q-10 -101 -112 -111h-156l-11 43h153q72 7 79 79v359h-250v42l143 255h-381v-119q18 -394 -277 -686l-37 33q286 277 267 653v119h-214v42h696v-42l-144 -255h244v-412z" />
    <glyph glyph-name="uni4E45" unicode="&#x4e45;" 
d="M431 792q-30 -74 -68 -143h321v-42q-50 -143 -123 -261q128 -241 379 -417l-29 -39q-254 182 -378 414q-152 -224 -442 -414l-28 39q430 272 574 678h-297q-84 -142 -193 -260l-36 32q174 181 277 431z" />
    <glyph glyph-name="uni4E47" unicode="&#x4e47;" 
d="M459 23q4 -42 46 -46h303q43 4 47 46v112l48 -7v-117q-7 -70 -78 -77h-335q-71 7 -78 77v329l-346 -28l-5 41l351 29v281q-145 -14 -277 -21l-5 41q357 22 696 69l7 -41q-162 -23 -374 -44v-281l471 39l4 -42l-475 -39v-321z" />
    <glyph glyph-name="uni4E48" unicode="&#x4e48;" 
d="M653 283l275 -352l-36 -29l-59 76l-692 -21l-2 42l49 1q293 260 512 614l39 -25q-210 -331 -484 -587l546 16l-184 237zM526 784q-154 -264 -414 -502l-33 35q238 205 408 491z" />
    <glyph glyph-name="uni4E49" unicode="&#x4e49;" 
d="M234 708q68 -283 267 -484q186 181 262 485l44 -13q-86 -329 -271 -506q168 -155 419 -256l-23 -44q-256 104 -430 269q-151 -137 -436 -269l-21 42q273 124 423 260q-204 210 -279 504zM461 806l116 -224l-40 -22l-117 225z" />
    <glyph glyph-name="uni4E4B" unicode="&#x4e4b;" 
d="M51 -46q60 71 105 116q61 63 94 59q12 0 25 -5q318 217 526 445h-651v42h333v190l46 -6v-184h332v-42q-216 -246 -544 -471l9 -8q65 -63 125 -83q59 -22 168 -21h329l-11 -43h-318q-212 -9 -324 116q-28 29 -45 27q-16 2 -59 -44q-49 -50 -106 -120z" />
    <glyph glyph-name="uni4E4C" unicode="&#x4e4c;" 
d="M889 27q-10 -99 -110 -109h-147l-11 43h145q69 7 76 77v253h-623v408h176l50 110l44 -15l-44 -95h345v-176q-8 -90 -98 -98h-122l-12 42h119q61 5 66 65v125h-477v-324h623v-306zM73 165h674v-42h-674v42z" />
    <glyph glyph-name="uni4E4D" unicode="&#x4e4d;" 
d="M384 792q-34 -81 -75 -151h622v-42h-472v-179h397v-42h-397v-187h437v-41h-437v-256h-47v705h-128q-75 -124 -198 -258l-34 35q186 193 290 435z" />
    <glyph glyph-name="uni4E4E" unicode="&#x4e4e;" 
d="M68 349h421v339q-190 -7 -369 -7l-1 41q362 2 763 27l4 -42q-141 -9 -351 -18v-340h398v-42h-398v-312q-7 -73 -80 -80h-143l-10 43h139q44 4 48 48v301h-421v42zM202 630l159 -197l-37 -28l-158 196zM847 600l-159 -196l-36 28l159 197z" />
    <glyph glyph-name="uni4E4F" unicode="&#x4e4f;" 
d="M153 456h324v177l47 -7v-170h314v-43q-213 -189 -540 -347l3 -3l2 -2q47 -50 107 -66q58 -17 188 -16h351l-11 -43h-340q-144 -1 -208 19q-68 20 -123 79q-35 37 -43 34q-14 1 -47 -38q-39 -46 -92 -111l-33 31q51 62 88 104q51 61 84 56q18 0 37 -12q283 134 511 316
h-619v42zM113 712q414 13 766 40l3 -42q-405 -30 -767 -40z" />
    <glyph glyph-name="uni4E50" unicode="&#x4e50;" 
d="M856 712q-313 -34 -641 -39l-22 -286h303v202h47v-202h345v-42h-345v-339q-8 -78 -88 -87h-118l-10 42h114q50 5 55 56v328h-352l29 369q357 4 676 40zM716 256l234 -243l-34 -33l-233 243zM326 223l-232 -243l-33 33l232 241z" />
    <glyph glyph-name="uni4E52" unicode="&#x4e52;" 
d="M64 230h167v499q281 0 595 27l5 -42q-281 -24 -554 -27v-177h618v-42h-194v-238h237v-42h-874v42zM277 468v-238h378v238h-378zM408 88l-283 -196l-25 38l282 195z" />
    <glyph glyph-name="uni4E53" unicode="&#x4e53;" 
d="M63 230h167v499q281 0 597 27l4 -42q-262 -22 -555 -27v-177h619v-42h-194v-238h236v-42h-874v42zM276 468v-238h379v238h-379zM629 126l271 -193l-25 -37l-272 193z" />
    <glyph glyph-name="uni4E54" unicode="&#x4e54;" 
d="M80 522h349q33 70 47 165q-183 -6 -344 -6l-1 41q444 7 726 25l2 -42q-148 -9 -336 -16q-14 -96 -44 -167h438v-42h-326q103 -158 366 -249l-20 -44q-289 101 -399 293h-79q-83 -173 -393 -299l-21 44q278 108 361 255h-326v42zM368 279v-75q20 -185 -232 -315l-25 41
q127 70 168 126q43 55 42 149v74h47zM694 277v-381h-47v381h47z" />
    <glyph glyph-name="uni4E56" unicode="&#x4e56;" 
d="M70 570h407v129q-173 -6 -344 -8l-1 41q352 6 713 24l3 -41q-163 -9 -325 -14v-131h407v-41h-407v-636h-46v636h-407v41zM691 479v-161q117 45 204 95l19 -36q-107 -59 -223 -102v-109q3 -31 34 -34h129q31 3 34 34v71l46 -7v-78q-6 -55 -63 -61h-163q-56 6 -62 61v327
h45zM354 478v-398h-45v93l-228 -57l-11 41l239 61v111h-215v40h215v109h45z" />
    <glyph glyph-name="uni4E58" unicode="&#x4e58;" 
d="M70 591h406v109q-158 -5 -343 -7l-2 41q378 5 714 19l2 -41q-59 -3 -202 -7q-81 -3 -122 -4v-110h406v-41h-406v-236q132 -193 429 -314l-19 -45q-278 118 -410 287v-349h-47v350q-137 -169 -408 -291l-21 42q293 132 429 320v236h-406v41zM694 509v-105q103 34 189 74
l18 -37q-98 -45 -207 -78v-69q3 -32 35 -35h124q32 4 35 35v58l44 -6v-65q-5 -58 -64 -63h-155q-59 5 -64 63v228h45zM348 509v-289h-45v56l-223 -46l-7 40l230 46v84h-207v41h207v68h45z" />
    <glyph glyph-name="uni4E59" unicode="&#x4e59;" 
d="M252 -58q-158 -2 -154 90q1 58 61 120q229 233 570 538h-588v42h655l1 -43q-298 -264 -600 -564q-52 -52 -52 -91q-3 -50 105 -49h552q48 5 53 52v126l47 -8v-128q-7 -78 -85 -85h-565z" />
    <glyph glyph-name="uni4E5C" unicode="&#x4e5c;" 
d="M291 779v-271l539 149v-353q-9 -76 -84 -85h-132l-10 43h128q47 5 52 52v287l-493 -135v-437q5 -47 51 -51h492q46 5 51 51v121l47 -7v-125q-7 -76 -84 -83h-521q-76 7 -83 83v435l-167 -46l-10 40l177 48v284h47z" />
    <glyph glyph-name="uni4E5D" unicode="&#x4e5d;" 
d="M79 601h262v204h47v-204h310v-582q4 -44 47 -48h103q44 4 48 48v132l46 -7v-136q-7 -72 -80 -79h-131q-73 7 -80 79v552h-263q17 -426 -303 -662l-32 37q166 133 225 265q62 130 63 360h-262v41z" />
    <glyph glyph-name="uni4E5E" unicode="&#x4e5e;" 
d="M214 469h487v-44q-261 -187 -473 -353q-48 -37 -47 -65q2 -30 46 -31h564q46 5 51 51v125l46 -8v-128q-7 -76 -82 -83h-584q-83 4 -89 71q-2 48 59 95q145 117 433 329h-411v41zM368 788q-34 -63 -72 -118h601v-42h-632q-63 -84 -170 -181l-31 35q170 146 264 328z" />
    <glyph glyph-name="uni4E5F" unicode="&#x4e5f;" 
d="M228 693v-218l255 70v261h47v-248l306 85v-347q-8 -84 -91 -92h-106l-11 44h103q54 6 60 59v279l-261 -72v-408h-47v395l-255 -70v-392q6 -57 63 -63h528q56 6 62 63v109l48 -7v-114q-8 -85 -95 -93h-558q-87 7 -94 93v392l-117 -32l-11 40l128 35v231h46z" />
    <glyph glyph-name="uni4E60" unicode="&#x4e60;" 
d="M242 603l289 -200l-27 -37l-288 201zM725 327l-603 -258l-17 40l602 259zM126 732h722v-699q-10 -102 -111 -112h-162l-11 43h158q72 7 79 79v647h-675v42z" />
    <glyph glyph-name="uni4E61" unicode="&#x4e61;" 
d="M835 663q-258 -236 -532 -385l460 22q42 69 69 154l44 -14q-97 -415 -789 -550l-12 47q508 108 658 321l-583 -28l-3 41l59 3q216 116 372 234l-446 -10l-1 41l49 1q171 109 340 273l32 -34q-138 -130 -295 -237l376 9q78 61 172 148z" />
    <glyph glyph-name="uni4E66" unicode="&#x4e66;" 
d="M436 808v-177h350v-274h121v-258q-9 -77 -88 -86h-162l-12 42h160q48 5 54 55v205h-423v-421h-47v421h-333v42h333v232h-268v42h268v177h47zM739 589h-303v-232h303v232zM745 774l203 -160l-28 -36l-204 161z" />
    <glyph glyph-name="uni4E69" unicode="&#x4e69;" 
d="M295 808v-186h238v-41h-238v-204h185v-432h-385v432h154v431h46zM141 336v-350h293v350h-293zM665 807v-781q5 -44 48 -48h121q44 4 48 48v145l46 -7v-149q-7 -73 -80 -80h-148q-74 7 -81 80v792h46z" />
    <glyph glyph-name="uni4E70" unicode="&#x4e70;" 
d="M627 634v-208q1 -86 -20 -153h321v-42h-337q-68 -181 -495 -340l-18 45q382 142 459 295h-463v42h482q24 63 24 154v207h47zM107 735h801v-40l-78 -197l-42 15l68 181h-749v41zM571 164l366 -232l-24 -41l-366 234zM189 472l206 -108l-20 -39l-206 109zM272 622l190 -108
l-21 -38l-190 108z" />
    <glyph glyph-name="uni4E71" unicode="&#x4e71;" 
d="M87 725q215 7 400 26l6 -41q-65 -6 -182 -15v-187h220v-41h-220v-180h167v-348h-377v348h165v180h-216v41h216v185q-85 -6 -177 -9zM432 246h-285v-266h285v266zM659 8q3 -35 38 -38h147q36 3 39 38v149l46 -7v-156q-6 -62 -68 -68h-181q-62 6 -68 68v804h47v-790z" />
    <glyph glyph-name="uni4E73" unicode="&#x4e73;" 
d="M326 -13q-7 -65 -72 -72h-87l-12 42h89q34 3 37 36v192l-226 -23l-3 40l229 24v76l164 118h-363v42h435v-42l-191 -137v-52l234 25l4 -41l-238 -25v-203zM674 800v-782q4 -40 43 -44h129q39 4 43 44v142l47 -8v-146q-6 -67 -75 -74h-159q-69 7 -75 74v794h47zM76 736
q240 5 468 20l3 -41q-255 -15 -469 -19zM534 641l-72 -145l-40 20l73 145zM127 654l64 -136l-40 -19l-64 136zM308 665l46 -138l-42 -14l-47 139z" />
    <glyph glyph-name="uni4E7E" unicode="&#x4e7e;" 
d="M50 125h192v99h-152v326h152v97h-184v41h184v119h46v-119h184v-41h-184v-97h153v-326h-153v-99h192v-41h-192v-190h-46v190h-192v41zM531 460h340v-44q-180 -197 -298 -352q-30 -38 -29 -55q1 -31 43 -32h267q36 3 39 39v103l46 -7v-110q-6 -61 -69 -67h-294
q-75 4 -79 71q0 35 35 80q135 170 279 332h-280v42zM686 796q-26 -68 -58 -132h316v-41h-337q-39 -74 -90 -150l-41 27q101 142 166 312zM136 264h260v104h-260v-104zM396 510h-260v-103h260v103z" />
    <glyph glyph-name="uni4E86" unicode="&#x4e86;" 
d="M99 728h807v-43l-359 -259v-423q-8 -78 -88 -87h-137l-11 42h134q50 5 55 56v431l330 241h-731v42z" />
    <glyph glyph-name="uni4E88" unicode="&#x4e88;" 
d="M169 745h670v-43l-301 -214l52 -37l-26 -34h350v-41l-92 -191l-43 18l85 172h-325v-374q-9 -77 -87 -86h-116l-12 42h114q49 5 55 55v363h-402v42h469l-271 196l27 38l183 -134l266 186h-596v42z" />
    <glyph glyph-name="uni4E89" unicode="&#x4e89;" 
d="M67 383h392v126h-269v41h344l119 119h-351q-89 -104 -197 -188l-29 37q170 129 278 297l38 -26q-25 -40 -57 -79h380v-42l-118 -118h232v-167h105v-41h-105v-167h-325v-175q-9 -76 -85 -85h-109l-12 42h109q47 5 52 52v166h-325v41h325v126h-392v41zM784 509h-280v-126
h280v126zM504 216h280v126h-280v-126z" />
    <glyph glyph-name="uni4E8B" unicode="&#x4e8b;" 
d="M138 382h340v70h-306v164h306v73h-404v38h404v80h44v-80h401v-38h-401v-73h308v-164h-308v-70h325v-122h97v-38h-97v-123h-325v-110q-7 -69 -77 -76h-107l-11 40h107q40 4 44 44v102h-356v39h356v84h-419v38h419v83h-340v39zM522 138h282v84h-282v-84zM804 343h-282v-83
h282v83zM787 578h-265v-88h265v88zM215 578v-88h263v88h-263z" />
    <glyph glyph-name="uni4E8C" unicode="&#x4e8c;" 
d="M76 30h848v-42h-848v42zM147 700h710v-42h-710v42z" />
    <glyph glyph-name="uni4E8D" unicode="&#x4e8d;" 
d="M562 3q-9 -78 -86 -87h-130l-11 43h126q49 6 55 55v397h-447v42h861v-42h-368v-408zM159 737h682v-42h-682v42z" />
    <glyph glyph-name="uni4E8E" unicode="&#x4e8e;" 
d="M129 730h747v-42h-324v-270h386v-42h-386v-372q-9 -78 -87 -87h-135l-11 43h132q48 5 54 55v361h-443v42h443v270h-376v42z" />
    <glyph glyph-name="uni4E8F" unicode="&#x4e8f;" 
d="M810 30q-10 -102 -111 -112h-140l-11 43h137q72 7 79 79v209h-546l48 220h-202v42h871v-42h-621l-39 -178h535v-261zM146 733h709v-41h-709v41z" />
    <glyph glyph-name="uni4E91" unicode="&#x4e91;" 
d="M104 9l42 1q154 182 276 394h-349v42h854v-42h-453q-115 -205 -270 -392l568 20l-144 190l35 26l239 -311l-36 -28l-64 84l-697 -26zM157 729h686v-42h-686v42z" />
    <glyph glyph-name="uni4E92" unicode="&#x4e92;" 
d="M116 728h780v-42h-585l-22 -182h493v-513h157v-42h-877v42h673v195h-533l63 500h-149v42zM735 462h-452l-29 -234h481v234z" />
    <glyph glyph-name="uni4E93" unicode="&#x4e93;" 
d="M67 458h868v-42h-219v-511h-47v511h-321v-132q14 -227 -231 -395l-30 38q228 155 214 357v132h-234v42zM156 727h690v-41h-690v41z" />
    <glyph glyph-name="uni4E94" unicode="&#x4e94;" 
d="M128 412h221l45 274h-274v42h765v-42h-444l-45 -274h393v-420h145v-42h-864v42h210l62 378h-214v42zM743 370h-354l-61 -378h415v378z" />
    <glyph glyph-name="uni4E95" unicode="&#x4e95;" 
d="M347 808v-215h324v216h46v-216h181v-42h-181v-248h221v-42h-221v-365h-46v365h-328q-6 -198 -215 -373l-32 35q190 156 200 338h-227v42h230v24q1 17 1 26v198h-196v42h196v215h47zM347 353q0 -9 -1 -26v-24h325v248h-324v-198z" />
    <glyph glyph-name="uni4E98" unicode="&#x4e98;" 
d="M189 573h621v-434h-621v434zM236 181h527v155h-527v-155zM763 531h-527v-154h527v154zM74 -14h851v-42h-851v42zM105 743h790v-42h-790v42z" />
    <glyph glyph-name="uni4E9A" unicode="&#x4e9a;" 
d="M107 742h787v-41h-264v-705h300v-42h-858v42h294v705h-259v41zM413 701v-705h171v705h-171zM896 525l-173 -336l-41 20l172 336zM144 546l173 -337l-41 -19l-173 335z" />
    <glyph glyph-name="uni4E9B" unicode="&#x4e9b;" 
d="M386 802v-179h142v-41h-142v-198l151 28l7 -40l-475 -85l-6 39l103 18v366h46v-357l128 23v426h46zM625 798v-233q168 77 272 144l21 -35q-125 -79 -293 -152v-139q3 -34 38 -37h187q34 3 37 37v90l46 -7v-96q-6 -60 -67 -66h-221q-60 6 -66 66v428h46zM86 -19h827v-41
h-827v41zM182 201h635v-41h-635v41z" />
    <glyph glyph-name="uni4E9C" unicode="&#x4e9c;" 
d="M150 510h214v191h-258v41h790v-41h-264v-191h215v-305h-215v-209h300v-42h-862v42h294v209h-214v305zM410 468v-221h176v221h-176zM801 468h-169v-221h169v221zM195 468v-221h169v221h-169zM410 205v-209h176v209h-176zM410 701v-191h176v191h-176z" />
    <glyph glyph-name="uni4E9F" unicode="&#x4e9f;" 
d="M356 553v-355h-240v355h240zM517 146q-8 -75 -83 -83h-97l-11 42h94q47 5 52 51v430l250 132h-527v41h616v-42l-294 -156v-415zM631 448l105 -110q64 76 109 167h-250v40h301v-40q-55 -113 -128 -199l135 -140l-31 -32l-133 139q-68 -74 -167 -147l-27 37q93 67 163 143
l-106 113zM160 513v-276h152v276h-152zM84 -17h830v-42h-830v42z" />
    <glyph glyph-name="uni4EA0" unicode="&#x4ea0;" 
d="M522 764v-229h411v-42h-871v42h413v235z" />
    <glyph glyph-name="uni4EA1" unicode="&#x4ea1;" 
d="M62 600h418v207l47 -8v-199h406v-42h-689v-572h619v-43h-666v615h-135v42z" />
    <glyph glyph-name="uni4EA2" unicode="&#x4ea2;" 
d="M937 131v-125q-7 -73 -81 -80h-144q-75 7 -82 80v392h-319v-113q10 -234 -222 -394l-30 38q215 147 205 356v155h413v-423q4 -44 48 -48h118q44 4 48 48v122zM87 639h390v168l46 -7v-161h389v-42h-825v42z" />
    <glyph glyph-name="uni4EA4" unicode="&#x4ea4;" 
d="M331 406q65 -127 168 -219q106 96 176 216l39 -25q-77 -126 -181 -221q154 -127 412 -214l-19 -46q-268 95 -427 230q-151 -128 -427 -240l-20 44q256 98 412 226q-104 98 -172 224zM71 662h405v144l47 -6v-138h406v-42h-858v42zM632 574l284 -218l-28 -36l-282 220z
M397 539l-282 -222l-28 36l285 220z" />
    <glyph glyph-name="uni4EA5" unicode="&#x4ea5;" 
d="M524 802v-131h391v-42h-427q-99 -109 -226 -214l309 8q68 69 123 151l37 -26q-198 -311 -658 -477l-17 44q285 99 469 264l-372 -9l-1 42l35 1q122 93 239 216h-329v42h381v137zM860 392q-115 -146 -237 -245l282 -223l-28 -36l-289 231q-173 -132 -458 -231l-17 44
q458 146 711 487z" />
    <glyph glyph-name="uni4EA6" unicode="&#x4ea6;" 
d="M524 801v-148h397v-41h-270v-608q-9 -79 -88 -88h-100l-11 44h97q51 5 56 55v597h-193v-179q18 -306 -264 -549l-33 35q144 131 198 243q54 109 53 271v179h-289v41h401v155zM808 481l135 -277l-42 -20l-134 278zM234 461l-135 -277l-41 19l135 277z" />
    <glyph glyph-name="uni4EA7" unicode="&#x4ea7;" 
d="M923 381h-713v-129q5 -213 -123 -364l-40 27q120 139 116 337v171h414l152 196l36 -29l-130 -167h288v-42zM103 680h391v127l46 -7v-120h398v-42h-835v42zM305 619l127 -152l-35 -30l-126 152z" />
    <glyph glyph-name="uni4EA8" unicode="&#x4ea8;" 
d="M196 567h608v-189h-608v189zM538 -5q-7 -72 -80 -79h-107l-12 42h106q43 5 47 46v161l235 87h-614v41h726v-41l-301 -112v-145zM758 527h-517v-109h517v109zM523 803v-107h389v-41h-827v41h392v114z" />
    <glyph glyph-name="uni4EA9" unicode="&#x4ea9;" 
d="M156 508h689v-573h-689v573zM523 -23h275v224h-275v-224zM798 466h-275v-224h275v224zM203 466v-224h274v224h-274zM203 201v-224h274v224h-274zM524 802v-129h417v-41h-881v41h418v136z" />
    <glyph glyph-name="uni4EAB" unicode="&#x4eab;" 
d="M195 588h610v-176h-610v176zM533 -9q-7 -69 -76 -76h-109l-11 41h107q40 4 44 44v122h-424v41h424v51l235 84h-559v40h673v-40l-304 -111v-24h400v-41h-400v-131zM760 548h-520v-96h520v96zM523 800v-97h389v-41h-827v41h392v105z" />
    <glyph glyph-name="uni4EAC" unicode="&#x4eac;" 
d="M182 528h632v-259h-283v-276q-7 -70 -78 -77h-111l-11 42h108q42 4 46 46v265h-303v259zM768 487h-540v-177h540v177zM523 799v-120h398v-42h-844v42h400v127zM705 202l238 -177l-28 -36l-238 177zM321 165l-239 -177l-28 36l240 177z" />
    <glyph glyph-name="uni4EAD" unicode="&#x4ead;" 
d="M196 597h609v-172h-609v172zM760 558h-521v-94h521v94zM96 207v146h810v-148h-45v108h-720v-106h-45zM198 217h604v-40h-268v-188q-7 -67 -76 -74h-109l-11 41h107q40 4 44 43v178h-291v40zM523 802v-92h391v-40h-829v40h393v99z" />
    <glyph glyph-name="uni4EAE" unicode="&#x4eae;" 
d="M207 592h586v-178h-586v178zM667 5q3 -34 37 -37h143q35 3 38 37v76l45 -7v-82q-6 -60 -67 -66h-174q-61 5 -67 66v182h-283v-35q13 -160 -245 -251l-19 42q231 79 219 211v74h373v-210zM748 552h-496v-98h496v98zM96 197v141h810v-141h-46v100h-719v-100h-45zM523 801
v-92h389v-41h-826v41h391v99z" />
    <glyph glyph-name="uni4EB2" unicode="&#x4eb2;" 
d="M526 388v-105h370v-41h-370v-244q-8 -76 -87 -85h-103l-11 42h102q48 5 53 54v233h-380v41h380v105h46zM73 460h494l144 172l35 -29l-119 -143h293v-41h-847v41zM522 802v-115h353v-41h-758v41h359v122zM342 155l-239 -191l-28 35l239 191zM696 189l241 -190l-29 -35
l-239 191zM285 630l113 -130l-36 -28l-112 130z" />
    <glyph glyph-name="uni4EB3" unicode="&#x4eb3;" 
d="M197 605h608v-157h-608v157zM82 99l335 21v94q-106 -7 -221 -12l-4 40q327 16 582 38l6 -40q-181 -16 -318 -24v-93l455 29l2 -39l-457 -29v-80q3 -35 38 -38h307q35 3 38 38v40l44 -7v-47q-6 -58 -64 -64h-345q-57 5 -63 64v91l-332 -21zM760 567h-519v-82h519v82z
M94 256v129h814v-129h-45v89h-725v-89h-44zM523 800v-89h391v-40h-826v40h390v96z" />
    <glyph glyph-name="uni4EB5" unicode="&#x4eb5;" 
d="M563 248q-9 -7 -29 -20l-18 -12q43 -48 97 -89l204 98l17 -36l-183 -88q115 -77 302 -132l-14 -43q-308 93 -460 268q-67 -39 -147 -75v-161l221 75l12 -38l-306 -106l-13 39l41 14v158q-106 -44 -233 -80l-12 43q300 82 496 220zM448 472l99 -44q22 38 26 96h-124v39
h125v85h43v-85h195v-63q-1 -146 33 -186q13 -17 30 -17q19 0 27 24q8 27 16 66l39 -16q-8 -41 -19 -72q-17 -45 -63 -46q-41 1 -64 32q-45 56 -43 216v23h-152q-5 -66 -30 -114l116 -51l-18 -38l-120 54q-49 -67 -169 -125l-23 37q106 48 153 106l-93 43zM278 641v-80h121
v-39h-121v-85l122 12l3 -39l-125 -12v-91q-6 -60 -68 -66h-75l-10 39h74q31 3 35 35v79l-167 -15l-3 39l170 15v89h-151v39h151v80h44zM522 802v-95h393v-39h-831v39h394v101z" />
    <glyph glyph-name="uni4EBA" unicode="&#x4eba;" 
d="M523 800v-92q0 -8 -1 -22v-21q11 -442 421 -720l-30 -39q-344 240 -412 587q-72 -345 -416 -590l-30 38q429 296 422 767v92h46z" />
    <glyph glyph-name="uni4EBB" unicode="&#x4ebb;" 
d="M518 780q-59 -113 -141 -224v-659h-47v599q-107 -128 -232 -230l-32 35q263 217 412 502z" />
    <glyph glyph-name="uni4EBF" unicode="&#x4ebf;" 
d="M417 726h443l2 -43q-221 -286 -420 -569q-42 -61 -42 -93q1 -37 46 -38h386q46 5 50 49v128l47 -7v-132q-7 -75 -82 -82h-412q-81 4 -85 79q0 44 50 115q208 295 406 551h-389v42zM342 791q-42 -123 -83 -210v-685h-47v589q-65 -121 -131 -203l-37 30q153 194 254 494z
" />
    <glyph glyph-name="uni4EC0" unicode="&#x4ec0;" 
d="M681 804v-363h272v-42h-272v-505h-46v505h-278v42h278v363h46zM358 792q-33 -94 -87 -205v-693h-47v604q-70 -123 -142 -216l-38 29q169 217 270 497z" />
    <glyph glyph-name="uni4EC1" unicode="&#x4ec1;" 
d="M358 790q-33 -97 -87 -211v-684h-47v593q-72 -128 -137 -211l-37 30q152 191 264 499zM358 19h593v-42h-593v42zM410 674h482v-42h-482v42z" />
    <glyph glyph-name="uni4EC2" unicode="&#x4ec2;" 
d="M338 593h195v213h47v-213h310v-572q-9 -79 -88 -88h-118l-11 43h114q51 5 56 56v520h-263q15 -413 -228 -661l-38 30q128 143 172 275q47 128 47 356h-195v41zM334 791q-39 -112 -84 -212v-685h-47v591q-56 -108 -128 -203l-38 30q157 210 252 495z" />
    <glyph glyph-name="uni4EC3" unicode="&#x4ec3;" 
d="M402 722h534v-42h-180v-670q-9 -79 -87 -88h-128l-11 43h124q51 5 56 56v659h-308v42zM340 793q-45 -127 -82 -207v-692h-47v594q-58 -111 -129 -207l-38 29q155 213 252 498z" />
    <glyph glyph-name="uni4EC4" unicode="&#x4ec4;" 
d="M598 653v-106q0 -17 -1 -33q22 -348 358 -578l-29 -39q-276 195 -346 467q-48 -251 -348 -471l-31 37q371 264 350 617v106h47zM927 686h-710v-231q1 -213 -27 -330q-29 -126 -103 -233l-41 25q71 97 98 215q27 113 26 323v273h757v-42z" />
    <glyph glyph-name="uni4EC5" unicode="&#x4ec5;" 
d="M365 718h509v-42q-59 -275 -213 -478q116 -150 292 -265l-28 -42q-177 119 -294 270q-121 -147 -304 -270l-28 39q183 122 302 271q-147 206 -193 475h-43v42zM454 676q41 -244 176 -437q146 196 197 437h-373zM330 794q-36 -114 -80 -213v-687h-46v592
q-55 -105 -124 -195l-40 29q152 205 246 488z" />
    <glyph glyph-name="uni4EC6" unicode="&#x4ec6;" 
d="M353 791q-44 -123 -87 -215v-682h-47v590q-58 -106 -136 -203l-37 30q164 206 263 496zM613 806v-912h-47v912h47zM674 520l284 -244l-28 -36l-283 247z" />
    <glyph glyph-name="uni4EC7" unicode="&#x4ec7;" 
d="M756 5q3 -33 37 -36h64q31 2 34 36v148l47 -9v-152q-5 -60 -65 -65h-96q-61 5 -66 65v558h-175v-15q14 -430 -214 -645l-39 29q116 117 162 256q46 133 45 360v15h-152v42h152v213h46v-213h220v-587zM323 796q-34 -108 -79 -210v-691h-45v597q-61 -119 -123 -203l-37 29
q144 199 242 491z" />
    <glyph glyph-name="uni4EC9" unicode="&#x4ec9;" 
d="M933 145v-154q-5 -54 -60 -60h-92q-56 6 -61 60v701h-249v-249q2 -223 -26 -316q-25 -99 -125 -238l-41 27q97 130 120 223q27 86 25 304v291h342v-728q3 -30 34 -33h55q30 3 33 33v147zM320 790q-33 -108 -77 -209v-682h-46v585q-57 -111 -119 -198l-39 28
q151 213 237 490z" />
    <glyph glyph-name="uni4ECA" unicode="&#x4eca;" 
d="M50 420q274 162 429 375h40q153 -213 433 -372l-23 -42q-266 153 -430 366q-166 -215 -427 -368zM450 532l127 -159l-34 -29l-127 160zM149 286h667v-41l-286 -359l-35 30l262 328h-608v42z" />
    <glyph glyph-name="uni4ECB" unicode="&#x4ecb;" 
d="M47 376q277 176 430 415h46q152 -237 433 -412l-27 -42q-266 169 -429 404q-168 -244 -428 -406zM354 432v-145q8 -239 -213 -400l-31 37q205 149 197 363v145h47zM691 429v-531h-47v531h47z" />
    <glyph glyph-name="uni4ECD" unicode="&#x4ecd;" 
d="M363 729h477v-42l-110 -246h163v-431q-9 -76 -85 -85h-123l-11 43h119q48 5 53 53v379h-165v42l109 245h-270v-144q9 -412 -192 -656l-40 29q194 230 185 627v144h-110v42zM320 796q-34 -109 -76 -206v-696h-46v598q-50 -97 -119 -202l-38 28q155 229 236 490z" />
    <glyph glyph-name="uni4ECE" unicode="&#x4ece;" 
d="M671 805v-142q0 -19 -1 -37q28 -429 291 -691l-37 -33q-209 210 -272 537q-46 -289 -313 -539l-36 32q339 310 321 732v141h47zM311 805v-153q0 -93 -7 -173l14 12l194 -216l-33 -32l-178 201q-28 -294 -220 -541l-40 27q236 290 223 722v153h47z" />
    <glyph glyph-name="uni4ECF" unicode="&#x4ecf;" 
d="M759 422l189 -497l-44 -18l-32 83l-533 -24l-3 41l39 2q152 350 247 765l46 -11q-89 -390 -241 -752l430 20l-141 372zM357 786q-38 -104 -89 -208v-678h-46v591q-65 -114 -143 -218l-37 30q169 219 270 499z" />
    <glyph glyph-name="uni4ED1" unicode="&#x4ed1;" 
d="M273 446v-214q252 83 454 190l20 -41q-215 -113 -474 -197v-158q5 -45 51 -50h400q46 5 51 50v86l46 -7v-89q-7 -77 -83 -84h-429q-76 7 -83 84v430h47zM45 422q277 152 432 369h47q147 -210 432 -365l-24 -43q-268 150 -432 360q-161 -212 -430 -361z" />
    <glyph glyph-name="uni4ED3" unicode="&#x4ed3;" 
d="M47 441q276 148 429 354h46q157 -208 432 -352l-24 -43q-275 150 -430 347q-162 -202 -429 -348zM528 209h99q49 5 54 54v154h-407v-389q5 -46 51 -51h437q45 5 50 51v91l46 -7v-95q-7 -76 -82 -83h-466q-75 7 -82 83v441h500v-205q-9 -78 -87 -87h-102z" />
    <glyph glyph-name="uni4ED4" unicode="&#x4ed4;" 
d="M331 374h309v128l191 188h-407v41h469v-42l-207 -203v-112h271v-42h-271v-329q-8 -78 -87 -87h-107l-11 43h103q51 5 56 55v318h-309v42zM329 801q-36 -108 -81 -209v-698h-47v601q-55 -105 -124 -204l-38 29q151 213 246 496z" />
    <glyph glyph-name="uni4ED5" unicode="&#x4ed5;" 
d="M674 800v-317h281v-42h-281v-441h254v-41h-555v41h254v441h-281v42h281v317h47zM359 793q-42 -113 -95 -220v-678h-46v593q-61 -108 -138 -200l-37 32q164 196 271 489z" />
    <glyph glyph-name="uni4ED6" unicode="&#x4ed6;" 
d="M425 695v-228l182 59v284h46v-269l233 77v-349q-6 -64 -70 -70h-69l-11 42h68q32 3 36 36v283l-187 -62v-407h-46v392l-182 -61v-398q4 -47 50 -51h366q47 4 51 51v111l46 -8v-114q-7 -75 -83 -82h-394q-75 7 -82 83v393l-79 -26l-12 41l91 30v243h46zM303 793
q-27 -100 -72 -212v-685h-45v582q-50 -107 -103 -187l-39 28q131 199 215 487z" />
    <glyph glyph-name="uni4ED7" unicode="&#x4ed7;" 
d="M332 610h364v196h46v-196h190v-41h-190v-4q4 -252 -104 -399q128 -137 318 -229l-24 -42q-189 93 -322 234q-94 -116 -291 -243l-27 39q199 126 288 238q-125 146 -190 335l45 14q55 -172 173 -311q92 131 88 364v4h-364v41zM332 791q-35 -108 -80 -212v-679h-45v584
q-61 -116 -127 -204l-39 29q150 197 246 496z" />
    <glyph glyph-name="uni4ED8" unicode="&#x4ed8;" 
d="M795 802v-217h153v-42h-153v-539q-9 -79 -87 -88h-121l-11 43h117q50 5 55 56v528h-414v42h414v217h47zM328 793q-36 -113 -88 -227v-672h-47v577q-54 -99 -105 -167l-39 27q140 192 235 477zM414 442l187 -211l-34 -31l-185 214z" />
    <glyph glyph-name="uni4ED9" unicode="&#x4ed9;" 
d="M423 604v-606h187v803h47v-803h188v606h46v-648h-514v648h46zM316 793q-33 -108 -79 -217v-681h-45v583q-55 -110 -112 -189l-40 27q140 198 232 491z" />
    <glyph glyph-name="uni4EDD" unicode="&#x4edd;" 
d="M209 368h583v-42h-269v-318h377v-42h-800v42h377v318h-268v42zM47 396q280 173 430 397h46q152 -229 431 -395l-25 -42q-275 172 -428 387q-153 -213 -430 -387z" />
    <glyph glyph-name="uni4EDE" unicode="&#x4ede;" 
d="M385 722h489v-708q-8 -78 -88 -87h-110l-12 42h107q51 5 56 56v655h-214v-175q19 -386 -270 -616l-34 33q276 216 258 582v176h-182v42zM329 793q-32 -105 -79 -213v-679h-45v585q-60 -115 -122 -195l-38 28q144 188 240 488zM475 519l-87 -256l-43 14l89 255z" />
    <glyph glyph-name="uni4EDF" unicode="&#x4edf;" 
d="M348 387h276v286q-151 -10 -232 -13l-3 42q261 10 502 36l5 -41q-95 -10 -225 -20v-290h276v-42h-276v-451h-47v451h-276v42zM328 790q-36 -110 -81 -212v-684h-46v589q-52 -99 -122 -195l-39 30q148 202 243 486z" />
    <glyph glyph-name="uni4EE1" unicode="&#x4ee1;" 
d="M423 471h392v-44q-179 -169 -370 -360q-37 -35 -34 -61q1 -36 72 -36h356q37 3 40 40v110l47 -8v-117q-6 -62 -69 -68h-381q-116 0 -116 76q-2 42 44 89q166 168 345 337h-326v42zM329 791q-34 -109 -81 -214v-683h-46v588q-60 -114 -125 -202l-38 29q148 198 246 495z
M568 791q-30 -68 -69 -134h427v-42h-453q-56 -89 -115 -161l-38 29q127 148 206 327z" />
    <glyph glyph-name="uni4EE3" unicode="&#x4ee3;" 
d="M934 493l-349 -43q34 -283 147 -443q42 -60 85 -60q39 1 55 55q18 63 27 122l46 -17q-11 -64 -29 -122q-27 -84 -98 -85q-69 0 -123 77q-121 171 -155 468l-208 -25l-5 41l208 25q-7 60 -11 129q-7 102 -10 190l46 1q2 -72 10 -189q4 -66 10 -126l349 43zM347 784
q-37 -102 -85 -203v-687h-47v596q-54 -96 -123 -191l-38 29q161 218 249 472zM699 748l152 -131l-30 -34l-152 133z" />
    <glyph glyph-name="uni4EE4" unicode="&#x4ee4;" 
d="M165 343h659v-42l-290 -291l116 -84l-27 -38l-376 277l26 35l223 -163l262 264h-593v42zM47 425q286 167 429 375h47q150 -213 432 -374l-25 -42q-268 158 -430 368q-149 -200 -429 -368zM451 567l122 -139l-33 -29l-122 139z" />
    <glyph glyph-name="uni4EE5" unicode="&#x4ee5;" 
d="M811 772q-3 -132 -9 -218q-15 -205 -82 -335l237 -270l-35 -33l-224 262q-95 -158 -330 -289l-25 42q400 198 412 625q5 76 10 218zM191 751v-679l252 187l25 -35l-344 -254l-25 35l45 33v713h47zM415 806l133 -267l-41 -21l-131 270z" />
    <glyph glyph-name="uni4EE8" unicode="&#x4ee8;" 
d="M326 794q-33 -106 -77 -208v-690h-46v590q-59 -118 -120 -203l-39 28q137 183 238 497zM341 7h603v-42h-603v42zM383 708h520v-42h-520v42zM409 376h466v-42h-466v42z" />
    <glyph glyph-name="uni4EE9" unicode="&#x4ee9;" 
d="M314 -6h266v810h47v-320h280v-42h-280v-448h323v-42h-636v42zM343 792q-39 -112 -87 -212v-683h-47v593q-61 -109 -142 -209l-36 31q170 212 268 496z" />
    <glyph glyph-name="uni4EEA" unicode="&#x4eea;" 
d="M427 686q61 -248 199 -438q151 203 209 441l46 -11q-74 -273 -225 -470q120 -152 299 -276l-30 -39q-175 119 -300 276q-120 -145 -312 -282l-27 40q177 117 310 282q-146 198 -214 466zM326 794q-32 -105 -74 -207v-689h-46v586q-61 -126 -125 -216l-38 26
q145 203 241 512zM595 808l100 -215l-42 -19l-98 216z" />
    <glyph glyph-name="uni4EEB" unicode="&#x4eeb;" 
d="M757 263l196 -338l-39 -26l-49 84l-530 -27l-3 42l37 2q260 253 429 580l40 -24q-162 -309 -402 -553l406 21l-124 215zM336 789q-37 -114 -81 -212v-683h-46v587q-62 -120 -132 -211l-38 28q159 213 252 506zM678 780q-134 -275 -324 -473l-35 33q187 191 318 460z" />
    <glyph glyph-name="uni4EEC" unicode="&#x4eec;" 
d="M312 789q-36 -110 -77 -212v-683h-46v581q-54 -110 -114 -191l-38 28q140 201 231 490zM597 726h300v-723q-8 -78 -87 -87h-111l-11 42h107q51 5 56 56v670h-254v42zM418 623v-729h-47v729h47zM424 808l118 -145l-35 -29l-119 146z" />
    <glyph glyph-name="uni4EF0" unicode="&#x4ef0;" 
d="M742 117h71q39 4 43 44v506h-184v-772h-45v813h275v-558q-7 -67 -74 -74h-75zM306 794q-31 -102 -76 -210v-687h-45v587q-53 -111 -107 -191l-39 26q131 194 223 488zM598 727l-181 -45v-571l152 80l19 -38l-229 -121l-20 38l32 17v626l216 56z" />
    <glyph glyph-name="uni4EF2" unicode="&#x4ef2;" 
d="M363 615h242v189h47v-189h243v-411h-243v-310h-47v310h-242v411zM849 573h-197v-327h197v327zM409 573v-327h196v327h-196zM317 791q-30 -99 -78 -210v-687h-45v590q-60 -120 -117 -199l-39 28q139 196 236 492z" />
    <glyph glyph-name="uni4EF3" unicode="&#x4ef3;" 
d="M691 794v-398q121 95 205 206l32 -29q-114 -141 -237 -232v-333q3 -35 38 -38h130q35 3 38 38v122l43 -7v-129q-6 -61 -67 -67h-162q-60 6 -66 67v800h46zM434 787v-317h162v-41h-162v-437l152 90l21 -38l-242 -144l-21 39l44 26v822h46zM317 791q-30 -96 -78 -207v-688
h-45v591q-55 -111 -116 -196l-38 27q139 197 233 488z" />
    <glyph glyph-name="uni4EF5" unicode="&#x4ef5;" 
d="M558 794q-26 -80 -52 -141h410v-42h-232v-278h267v-42h-267v-397h-46v397h-316v42h316v278h-151q-42 -92 -93 -174l-40 25q110 174 160 346zM336 794q-33 -100 -84 -211v-689h-45v598q-61 -115 -130 -206l-38 29q155 201 252 494z" />
    <glyph glyph-name="uni4EF6" unicode="&#x4ef6;" 
d="M683 808v-231h232v-42h-232v-252h266v-41h-266v-349h-47v349h-327v41h327v252h-192q-31 -90 -72 -170l-44 18q81 161 126 355l46 -10q-25 -100 -42 -151h178v231h47zM319 794q-34 -109 -86 -227v-672h-46v576q-57 -111 -111 -184l-38 28q148 205 237 493z" />
    <glyph glyph-name="uni4EF7" unicode="&#x4ef7;" 
d="M309 794q-36 -119 -76 -216v-684h-45v586q-46 -92 -103 -170l-39 27q140 195 219 469zM280 396q229 194 314 408h46q104 -240 322 -408l-31 -36q-198 156 -315 381q-96 -202 -306 -380zM506 423v-136q13 -234 -178 -398l-33 34q176 147 165 364v136h46zM771 420v-520h-46
v520h46z" />
    <glyph glyph-name="uni4EFB" unicode="&#x4efb;" 
d="M334 379h287v292q-114 -9 -238 -15l-2 42q263 12 511 45l7 -42q-109 -15 -231 -26v-296h287v-42h-287v-346h252v-42h-551v42h252v346h-287v42zM339 792q-36 -107 -83 -206v-693h-46v601q-63 -115 -131 -205l-39 29q155 198 254 489z" />
    <glyph glyph-name="uni4EFD" unicode="&#x4efd;" 
d="M382 400h439v-397q-8 -77 -86 -85h-112l-11 42h110q49 5 54 53v345h-254v-72q14 -206 -210 -399l-32 36q208 175 196 363v72h-94v42zM316 795q-32 -106 -76 -210v-688h-46v587q-60 -118 -113 -189l-38 28q136 190 229 485zM717 802q87 -226 240 -388l-37 -32
q-165 186 -246 403zM574 784q-84 -219 -245 -404l-38 31q162 179 240 390z" />
    <glyph glyph-name="uni4EFF" unicode="&#x4eff;" 
d="M683 801v-154h266v-42h-420v-167h329v-435q-9 -77 -85 -86h-116l-11 43h113q48 5 53 54v382h-283q11 -303 -202 -507l-36 32q114 120 152 222q41 101 40 269v193h-134v42h288v161zM325 795q-35 -113 -78 -212v-689h-46v592q-53 -104 -119 -190l-38 28q144 194 236 484z
" />
    <glyph glyph-name="uni4F01" unicode="&#x4f01;" 
d="M546 537v-215h270v-42h-270v-296h372v-42h-865v42h160v418h46v-418h241v553h46zM44 428q281 156 433 367h46q154 -212 432 -363l-24 -43q-269 151 -431 359q-157 -206 -431 -361z" />
    <glyph glyph-name="uni4F08" unicode="&#x4f08;" 
d="M322 796q-27 -91 -79 -210v-687h-46v590q-61 -119 -121 -200l-37 29q139 186 240 490zM521 608v-589q4 -39 43 -43h175q40 4 44 43v116l45 -7v-121q-6 -67 -74 -73h-206q-66 6 -73 73v601h46zM854 535l105 -344l-44 -14l-104 344zM617 808l109 -344l-42 -16l-109 345z
M435 521l-100 -346l-43 12l100 346z" />
    <glyph glyph-name="uni4F09" unicode="&#x4f09;" 
d="M758 5q3 -34 34 -37h62q33 3 36 36v112l44 -8v-117q-6 -59 -65 -65h-93q-58 5 -64 66v415h-224v-118q13 -244 -161 -400l-35 34q87 80 119 158q32 76 31 208v160h316v-444zM332 795q-34 -107 -81 -212v-687h-45v593q-56 -110 -125 -205l-38 30q150 203 245 495zM639 797
v-163h253v-42h-536v42h236v170z" />
    <glyph glyph-name="uni4F0A" unicode="&#x4f0a;" 
d="M307 517h202v186h-144v41h497v-227h88v-42h-88v-228h-319q-22 -206 -205 -361l-33 35q174 148 193 326h-154v41h159q6 70 6 163v24h-202v42zM313 797q-35 -120 -85 -241v-662h-46v562q-47 -95 -100 -171l-39 27q137 200 225 497zM549 288h265v187h-259v-24q0 -91 -6 -163
zM814 703h-259v-186h259v186z" />
    <glyph glyph-name="uni4F0D" unicode="&#x4f0d;" 
d="M356 407h149l43 278h-207v42h568v-42h-315l-42 -278h299v-415h104v-42h-666v42h152l57 373h-142v42zM806 365h-261l-57 -373h318v373zM293 796q-28 -108 -72 -221v-679h-46v569q-45 -99 -98 -184l-40 27q128 208 212 500z" />
    <glyph glyph-name="uni4F0E" unicode="&#x4f0e;" 
d="M651 809v-157h284v-42h-284v-161h226v-41q-83 -181 -217 -301q114 -94 296 -174l-21 -43q-193 87 -311 186q-125 -101 -328 -184l-21 43q194 77 313 173q-125 117 -194 284l29 16h-71v41h253v161h-276v42h276v157h46zM436 408q65 -158 188 -269q122 109 200 269h-388z
M313 797q-34 -110 -74 -209v-694h-45v592q-50 -106 -112 -199l-39 28q138 200 226 494z" />
    <glyph glyph-name="uni4F0F" unicode="&#x4f0f;" 
d="M631 805v-290h301v-42h-301q40 -330 324 -541l-31 -39q-244 184 -313 449q-63 -255 -305 -450l-32 36q290 236 308 545h-255v42h257v290h47zM336 793q-33 -102 -84 -212v-687h-46v595q-63 -117 -126 -200l-38 31q144 187 250 488zM744 754l138 -141l-30 -34l-140 143z
" />
    <glyph glyph-name="uni4F10" unicode="&#x4f10;" 
d="M931 520l-348 -40q19 -147 51 -250q122 97 203 214l37 -29q-90 -126 -225 -232q36 -100 88 -178q40 -59 83 -60q37 -2 54 52q19 58 29 120l45 -18q-14 -71 -30 -119q-28 -85 -97 -83q-70 -1 -124 82q-51 78 -87 174q-120 -87 -273 -162l-25 42q160 75 283 166
q-39 122 -58 275l-176 -20l-3 41l174 20q-5 51 -8 106l-10 186l46 1l10 -186q3 -53 9 -102l348 41zM356 783q-39 -106 -90 -208v-681h-47v592q-73 -126 -142 -212l-37 32q168 206 273 493zM690 750l152 -130l-31 -34l-150 131z" />
    <glyph glyph-name="uni4F11" unicode="&#x4f11;" 
d="M639 808v-214h282v-41h-271q94 -283 311 -474l-33 -36q-195 179 -289 417v-566h-46v567q-99 -231 -298 -431l-34 33q226 226 320 490h-253v41h265v214h46zM314 795q-27 -93 -74 -210v-691h-46v588q-61 -123 -110 -195l-38 28q135 199 224 493z" />
    <glyph glyph-name="uni4F17" unicode="&#x4f17;" 
d="M685 495v-84q0 -21 -1 -40q26 -253 273 -444l-31 -38q-200 156 -264 363q-59 -202 -279 -366l-30 38q291 211 286 487v84h46zM62 452q269 142 415 350h47q152 -211 412 -346l-23 -43q-244 129 -412 339q-146 -195 -416 -343zM330 495v-95q0 -29 -3 -56l198 -170l-28 -36
l-177 153q-37 -219 -238 -401l-33 35q235 209 234 475v95h47z" />
    <glyph glyph-name="uni4F18" unicode="&#x4f18;" 
d="M571 807v-229q0 -6 -1 -17v-15h351v-42h-232v-494q3 -34 37 -37h124q33 3 36 37v136l47 -8v-142q-6 -59 -66 -65h-158q-61 5 -66 65v508h-74q-8 -373 -253 -615l-36 32q237 235 243 583h-206v42h207v15q1 11 1 17v229h46zM318 795q-35 -115 -78 -215v-686h-46v587
q-52 -105 -116 -195l-39 29q142 197 234 494zM718 760l135 -126l-31 -32l-133 128z" />
    <glyph glyph-name="uni4F19" unicode="&#x4f19;" 
d="M640 806v-265q0 -21 -1 -41q20 -314 315 -573l-34 -36q-246 223 -300 461q-49 -232 -305 -464l-34 35q327 278 312 617v266h47zM322 796q-30 -103 -78 -215v-687h-46v588q-54 -108 -117 -194l-38 30q142 195 234 491zM904 617l-141 -257l-41 21l143 256zM368 637
l143 -256l-40 -21l-142 257z" />
    <glyph glyph-name="uni4F1A" unicode="&#x4f1a;" 
d="M136 -8l42 1q120 119 219 254h-291v42h787v-42h-440q-92 -134 -213 -252l492 13l-119 129l33 31l217 -232l-32 -34l-61 66l-633 -17zM53 439q272 151 426 353h41q143 -194 426 -353l-23 -42q-277 158 -423 348q-161 -200 -425 -347zM259 476h482v-42h-482v42z" />
    <glyph glyph-name="uni4F1B" unicode="&#x4f1b;" 
d="M919 696h-512v-722h530v-42h-577v806h559v-42zM905 600l-187 -255l199 -268l-39 -30l-190 258l-190 -260l-38 29l199 271l-188 257l37 26l180 -244l178 242zM312 797q-31 -103 -76 -213v-690h-46v589q-54 -110 -110 -191l-38 29q134 192 225 488z" />
    <glyph glyph-name="uni4F1D" unicode="&#x4f1d;" 
d="M342 0l38 2q109 176 202 410h-253v42h622v-42h-320q-85 -215 -198 -407l401 22l-103 192l40 23l169 -315l-40 -22l-44 82l-511 -29zM318 795q-40 -123 -77 -210v-690h-45v590q-58 -119 -117 -202l-37 29q131 179 233 496zM401 728h487v-42h-487v42z" />
    <glyph glyph-name="uni4F1E" unicode="&#x4f1e;" 
d="M68 178h407v406h47v-406h408v-42h-408v-240h-47v240h-407v42zM44 469q273 131 432 336h47q154 -197 432 -333l-23 -43q-256 127 -431 329q-179 -206 -433 -331zM229 451l150 -161l-33 -34l-150 164zM804 419l-151 -163l-34 33l152 160z" />
    <glyph glyph-name="uni4F1F" unicode="&#x4f1f;" 
d="M349 485h212v133h-234v41h234v149h46v-149h284v-41h-284v-133h247v-41h-247v-141h288v-212q-7 -68 -76 -75h-97l-10 42h95q39 4 43 43v161h-243v-368h-46v368h-266v41h266v141h-212v41zM317 792q-36 -114 -78 -211v-687h-45v591q-59 -118 -119 -202l-38 28
q145 207 237 495z" />
    <glyph glyph-name="uni4F20" unicode="&#x4f20;" 
d="M312 476h174q21 69 39 141h-149v41h159q20 78 33 151l48 -9q-15 -72 -32 -142h322v-41h-333q-18 -72 -39 -141h414v-41h-426q-22 -71 -48 -139h403l1 -42l-188 -243l144 -82l-22 -39l-410 237l21 38l226 -130l173 220h-398v41q25 63 49 139h-161v41zM326 794
q-30 -99 -78 -209v-691h-46v593q-57 -114 -118 -200l-39 27q147 206 237 493z" />
    <glyph glyph-name="uni4F22" unicode="&#x4f22;" 
d="M485 634l-49 -199h313v263h-371v41h552v-41h-134v-263h150v-41h-150v-398q-7 -72 -80 -79h-104l-11 42h101q43 4 47 48v387h-14q-112 -213 -407 -425l-27 37q263 186 383 388h-295v41l52 210zM325 796q-31 -99 -82 -215v-684h-46v588q-60 -115 -119 -192l-37 28
q146 202 240 488z" />
    </font>
</defs>
</svg>
